%TF.GenerationSoftware,KiCad,Pcbnew,10.0.5*%
%TF.CreationDate,2026-09-21T14:35:13+08:00*%
%TF.ProjectId,esp32s3-camera,65737033-3273-4332-9d63-616d6572612e,1.2*%
%TF.SameCoordinates,Original*%
%TF.FileFunction,Paste,Bot*%
%TF.FilePolarity,Positive*%
%FSLAX46Y46*%
G04 Gerber Fmt 4.6, Leading zero omitted, Abs format (unit mm)*
G04 Created by KiCad (PCBNEW 10.0.5) date 2026-09-21 14:35:13*
%MOMM*%
%LPD*%
G01*
G04 APERTURE LIST*
G04 Aperture macros list*
%AMRoundRect*
0 Rectangle with rounded corners*
0 $1 Rounding radius*
0 $2 $3 $4 $5 $6 $7 $8 $9 X,Y pos of 4 corners*
0 Add a 4 corners polygon primitive as box body*
4,1,4,$2,$3,$4,$5,$6,$7,$8,$9,$2,$3,0*
0 Add four circle primitives for the rounded corners*
1,1,$1+$1,$2,$3*
1,1,$1+$1,$4,$5*
1,1,$1+$1,$6,$7*
1,1,$1+$1,$8,$9*
0 Add four rect primitives between the rounded corners*
20,1,$1+$1,$2,$3,$4,$5,0*
20,1,$1+$1,$4,$5,$6,$7,0*
20,1,$1+$1,$6,$7,$8,$9,0*
20,1,$1+$1,$8,$9,$2,$3,0*%
G04 Aperture macros list end*
%ADD10RoundRect,0.250000X0.250000X0.475000X-0.250000X0.475000X-0.250000X-0.475000X0.250000X-0.475000X0*%
%ADD11RoundRect,0.200000X0.200000X0.275000X-0.200000X0.275000X-0.200000X-0.275000X0.200000X-0.275000X0*%
%ADD12R,1.200000X0.700000*%
%ADD13R,0.800000X1.000000*%
%ADD14R,2.800000X1.000000*%
%ADD15R,1.200000X1.000000*%
%ADD16R,1.900000X1.300000*%
%ADD17RoundRect,0.200000X0.275000X-0.200000X0.275000X0.200000X-0.275000X0.200000X-0.275000X-0.200000X0*%
%ADD18RoundRect,0.150000X0.512500X0.150000X-0.512500X0.150000X-0.512500X-0.150000X0.512500X-0.150000X0*%
%ADD19RoundRect,0.250000X0.475000X-0.250000X0.475000X0.250000X-0.475000X0.250000X-0.475000X-0.250000X0*%
%ADD20RoundRect,0.225000X0.250000X-0.225000X0.250000X0.225000X-0.250000X0.225000X-0.250000X-0.225000X0*%
%ADD21RoundRect,0.225000X0.225000X0.250000X-0.225000X0.250000X-0.225000X-0.250000X0.225000X-0.250000X0*%
%ADD22RoundRect,0.225000X0.225000X0.375000X-0.225000X0.375000X-0.225000X-0.375000X0.225000X-0.375000X0*%
%ADD23RoundRect,0.218750X0.218750X0.256250X-0.218750X0.256250X-0.218750X-0.256250X0.218750X-0.256250X0*%
%ADD24RoundRect,0.242500X0.242500X0.422500X-0.242500X0.422500X-0.242500X-0.422500X0.242500X-0.422500X0*%
%ADD25RoundRect,0.150000X0.825000X0.150000X-0.825000X0.150000X-0.825000X-0.150000X0.825000X-0.150000X0*%
%ADD26RoundRect,0.150000X0.587500X0.150000X-0.587500X0.150000X-0.587500X-0.150000X0.587500X-0.150000X0*%
G04 APERTURE END LIST*
D10*
%TO.C,C5*%
X42950000Y-66000000D03*
X41050000Y-66000000D03*
%TD*%
D11*
%TO.C,R8*%
X46825000Y-58000000D03*
X45175000Y-58000000D03*
%TD*%
%TO.C,R13*%
X26825000Y-50000000D03*
X25175000Y-50000000D03*
%TD*%
D10*
%TO.C,C3*%
X44950000Y-52000000D03*
X43050000Y-52000000D03*
%TD*%
D11*
%TO.C,R6*%
X42825000Y-62000000D03*
X41175000Y-62000000D03*
%TD*%
D12*
%TO.C,J3*%
X16925000Y-41225000D03*
X16925000Y-42325000D03*
X16925000Y-43425000D03*
X16925000Y-44525000D03*
X16925000Y-45625000D03*
X16925000Y-46725000D03*
X16925000Y-47825000D03*
X16925000Y-48925000D03*
X16925000Y-49875000D03*
D13*
X6425000Y-50825000D03*
D14*
X2275000Y-50825000D03*
D15*
X12625000Y-50825000D03*
X16925000Y-39675000D03*
D16*
X1825000Y-37325000D03*
%TD*%
D17*
%TO.C,R16*%
X32000000Y-28825000D03*
X32000000Y-27175000D03*
%TD*%
D18*
%TO.C,U2*%
X51137500Y-44050000D03*
X51137500Y-45000000D03*
X51137500Y-45950000D03*
X48862500Y-45950000D03*
X48862500Y-44050000D03*
%TD*%
D19*
%TO.C,C10*%
X36000000Y-32950000D03*
X36000000Y-31050000D03*
%TD*%
D11*
%TO.C,R7*%
X42825000Y-58000000D03*
X41175000Y-58000000D03*
%TD*%
D17*
%TO.C,R17*%
X32000000Y-32825000D03*
X32000000Y-31175000D03*
%TD*%
%TO.C,R15*%
X32000000Y-24825000D03*
X32000000Y-23175000D03*
%TD*%
D11*
%TO.C,R3*%
X34825000Y-10000000D03*
X33175000Y-10000000D03*
%TD*%
D20*
%TO.C,C11*%
X32000000Y-36775000D03*
X32000000Y-35225000D03*
%TD*%
D17*
%TO.C,R19*%
X36000000Y-28825000D03*
X36000000Y-27175000D03*
%TD*%
D21*
%TO.C,C6*%
X46775000Y-66000000D03*
X45225000Y-66000000D03*
%TD*%
D11*
%TO.C,R14*%
X30825000Y-50000000D03*
X29175000Y-50000000D03*
%TD*%
D22*
%TO.C,D3*%
X54650000Y-9000000D03*
X51350000Y-9000000D03*
%TD*%
D17*
%TO.C,R21*%
X53200000Y-42525000D03*
X53200000Y-40875000D03*
%TD*%
D21*
%TO.C,C2*%
X40775000Y-52000000D03*
X39225000Y-52000000D03*
%TD*%
D11*
%TO.C,R4*%
X38825000Y-10000000D03*
X37175000Y-10000000D03*
%TD*%
D17*
%TO.C,R18*%
X36000000Y-24825000D03*
X36000000Y-23175000D03*
%TD*%
D23*
%TO.C,D2*%
X53787500Y-14000000D03*
X52212500Y-14000000D03*
%TD*%
D11*
%TO.C,R5*%
X50825000Y-34000000D03*
X49175000Y-34000000D03*
%TD*%
D21*
%TO.C,C7*%
X46775000Y-62000000D03*
X45225000Y-62000000D03*
%TD*%
D24*
%TO.C,U3*%
X44600000Y-9825000D03*
X44600000Y-8175000D03*
X43400000Y-9825000D03*
X43400000Y-8175000D03*
D25*
X46475000Y-7095000D03*
X46475000Y-8365000D03*
X46475000Y-9635000D03*
X46475000Y-10905000D03*
X41525000Y-10905000D03*
X41525000Y-9635000D03*
X41525000Y-8365000D03*
X41525000Y-7095000D03*
%TD*%
D21*
%TO.C,C4*%
X48775000Y-52000000D03*
X47225000Y-52000000D03*
%TD*%
D10*
%TO.C,C1*%
X36950000Y-52000000D03*
X35050000Y-52000000D03*
%TD*%
D26*
%TO.C,Q2*%
X50937500Y-38050000D03*
X50937500Y-39950000D03*
X49062500Y-39000000D03*
%TD*%
M02*
