%TF.GenerationSoftware,KiCad,Pcbnew,10.0.5*%
%TF.CreationDate,2026-09-21T14:35:13+08:00*%
%TF.ProjectId,esp32s3-camera,65737033-3273-4332-9d63-616d6572612e,1.2*%
%TF.SameCoordinates,Original*%
%TF.FileFunction,Copper,L2,Inr*%
%TF.FilePolarity,Positive*%
%FSLAX46Y46*%
G04 Gerber Fmt 4.6, Leading zero omitted, Abs format (unit mm)*
G04 Created by KiCad (PCBNEW 10.0.5) date 2026-09-21 14:35:13*
%MOMM*%
%LPD*%
G01*
G04 APERTURE LIST*
G04 Aperture macros list*
%AMRoundRect*
0 Rectangle with rounded corners*
0 $1 Rounding radius*
0 $2 $3 $4 $5 $6 $7 $8 $9 X,Y pos of 4 corners*
0 Add a 4 corners polygon primitive as box body*
4,1,4,$2,$3,$4,$5,$6,$7,$8,$9,$2,$3,0*
0 Add four circle primitives for the rounded corners*
1,1,$1+$1,$2,$3*
1,1,$1+$1,$4,$5*
1,1,$1+$1,$6,$7*
1,1,$1+$1,$8,$9*
0 Add four rect primitives between the rounded corners*
20,1,$1+$1,$2,$3,$4,$5,0*
20,1,$1+$1,$4,$5,$6,$7,0*
20,1,$1+$1,$6,$7,$8,$9,0*
20,1,$1+$1,$8,$9,$2,$3,0*%
G04 Aperture macros list end*
%TA.AperFunction,HeatsinkPad*%
%ADD10C,0.550000*%
%TD*%
%TA.AperFunction,ComponentPad*%
%ADD11O,2.100000X1.000000*%
%TD*%
%TA.AperFunction,ComponentPad*%
%ADD12O,1.600000X1.000000*%
%TD*%
%TA.AperFunction,ComponentPad*%
%ADD13R,1.700000X1.700000*%
%TD*%
%TA.AperFunction,ComponentPad*%
%ADD14C,1.700000*%
%TD*%
%TA.AperFunction,ComponentPad*%
%ADD15RoundRect,0.250000X0.350000X0.625000X-0.350000X0.625000X-0.350000X-0.625000X0.350000X-0.625000X0*%
%TD*%
%TA.AperFunction,ComponentPad*%
%ADD16O,1.200000X1.750000*%
%TD*%
%TA.AperFunction,ViaPad*%
%ADD17C,0.600000*%
%TD*%
G04 APERTURE END LIST*
D10*
%TO.N,GND*%
%TO.C,U1*%
X32200000Y-67440000D03*
X32200000Y-66040000D03*
X32200000Y-64640000D03*
X30800000Y-67440000D03*
X30800000Y-66040000D03*
X30800000Y-64640000D03*
%TD*%
D11*
%TO.N,GND*%
%TO.C,J1*%
X53165000Y-28320000D03*
D12*
X57345000Y-28320000D03*
D11*
X53165000Y-19680000D03*
D12*
X57345000Y-19680000D03*
%TD*%
D13*
%TO.N,GND*%
%TO.C,J6*%
X56000000Y-54000000D03*
D14*
%TO.N,IO4*%
X56000000Y-56540000D03*
%TO.N,IO5*%
X56000000Y-59080000D03*
%TO.N,IO6*%
X56000000Y-61620000D03*
%TD*%
D13*
%TO.N,+3V3*%
%TO.C,J5*%
X56000000Y-40000000D03*
D14*
%TO.N,GND*%
X56000000Y-42540000D03*
%TO.N,UART_TX*%
X56000000Y-45080000D03*
%TO.N,UART_RX*%
X56000000Y-47620000D03*
%TD*%
D15*
%TO.N,VBAT*%
%TO.C,J4*%
X12000000Y-62000000D03*
D16*
%TO.N,GND*%
X10000000Y-62000000D03*
%TD*%
D17*
%TO.N,LED_STAT*%
X21000000Y-71000000D03*
X20800000Y-56200000D03*
%TO.N,EN*%
X49300000Y-64400000D03*
X36900000Y-23900000D03*
X47500000Y-39700000D03*
X42600000Y-34800000D03*
X54200000Y-46000000D03*
X13000000Y-21200000D03*
%TO.N,GND*%
X33200000Y-10900000D03*
X51000000Y-72000000D03*
X3000000Y-45000000D03*
X14400000Y-41800000D03*
X39000000Y-51200000D03*
X43900000Y-14300000D03*
X9000000Y-6000000D03*
X45000000Y-33000000D03*
X9000000Y-66000000D03*
X45000000Y-45000000D03*
X36800000Y-30200000D03*
X54000000Y-72000000D03*
X24800000Y-13900000D03*
X15000000Y-72000000D03*
X45700000Y-7300000D03*
X45000000Y-30000000D03*
X9000000Y-15000000D03*
X12000000Y-21000000D03*
X6000000Y-57000000D03*
X54000000Y-6000000D03*
X12800000Y-35000000D03*
X45800000Y-68100000D03*
X3000000Y-33000000D03*
X12000000Y-9000000D03*
X28800000Y-3600000D03*
X45000000Y-27000000D03*
X53100000Y-28200000D03*
X15000000Y-57000000D03*
X51000000Y-54000000D03*
X12800000Y-16400000D03*
X6000000Y-36000000D03*
X6000000Y-6000000D03*
X42900000Y-3900000D03*
X9000000Y-18000000D03*
X6000000Y-54000000D03*
X47800000Y-9600000D03*
X48000000Y-72000000D03*
X3000000Y-60000000D03*
X51500000Y-20500000D03*
X32900000Y-35200000D03*
X15000000Y-21000000D03*
X12000000Y-3000000D03*
X12000000Y-57000000D03*
X52800000Y-45000000D03*
X1800000Y-36300000D03*
X51000000Y-6000000D03*
X22600000Y-5100000D03*
X15000000Y-33000000D03*
X18500000Y-47200000D03*
X45000000Y-24000000D03*
X5900000Y-34800000D03*
X15000000Y-36000000D03*
X9000000Y-21000000D03*
X3000000Y-63000000D03*
X33400000Y-69400000D03*
X44600000Y-9800000D03*
X3200000Y-37300000D03*
X9000000Y-36000000D03*
X3000000Y-42000000D03*
X21000000Y-6000000D03*
X9000000Y-63000000D03*
X12000000Y-26700000D03*
X12000000Y-6000000D03*
X9000000Y-27000000D03*
X33000000Y-72000000D03*
X9000000Y-54000000D03*
X9000000Y-48000000D03*
X9000000Y-24000000D03*
X41400000Y-12900000D03*
X18000000Y-3000000D03*
X15000000Y-18000000D03*
X3000000Y-66000000D03*
X3000000Y-6000000D03*
X44600000Y-8200000D03*
X9000000Y-45000000D03*
X22400000Y-73800000D03*
X3000000Y-51000000D03*
X21800000Y-13800000D03*
X40000000Y-73800000D03*
X6000000Y-45000000D03*
X16900000Y-38800000D03*
X55650000Y-7300000D03*
X6000000Y-48000000D03*
X3000000Y-48000000D03*
X54000000Y-66000000D03*
X12000000Y-18000000D03*
X7200000Y-41800000D03*
X15000000Y-3000000D03*
X21000000Y-12000000D03*
X51000000Y-18000000D03*
X9000000Y-60000000D03*
X44900000Y-53200000D03*
X6000000Y-27000000D03*
X51000000Y-69000000D03*
X51000000Y-15000000D03*
X9000000Y-57000000D03*
X7200000Y-25800000D03*
X6000000Y-63000000D03*
X12000000Y-54000000D03*
X9000000Y-30000000D03*
X4100000Y-50800000D03*
X18000000Y-12000000D03*
X18000000Y-21000000D03*
X49100000Y-33000000D03*
X3000000Y-54000000D03*
X42000000Y-72000000D03*
X3000000Y-9000000D03*
X7200000Y-13900000D03*
X9000000Y-69000000D03*
X6000000Y-15000000D03*
X3000000Y-24000000D03*
X21000000Y-3000000D03*
X12000000Y-36000000D03*
X6000000Y-60000000D03*
X3000000Y-30000000D03*
X42600000Y-19700000D03*
X18000000Y-6000000D03*
X54000000Y-69000000D03*
X3000000Y-27000000D03*
X3000000Y-69000000D03*
X14500000Y-48500000D03*
X3000000Y-15000000D03*
X12300000Y-52100000D03*
X45300000Y-65200000D03*
X12000000Y-66000000D03*
X52212500Y-12600000D03*
X43400000Y-8200000D03*
X6000000Y-21000000D03*
X51000000Y-66000000D03*
X12000000Y-72000000D03*
X41900000Y-66100000D03*
X54000000Y-54000000D03*
X9000000Y-72000000D03*
X43400000Y-9800000D03*
X47500000Y-3900000D03*
X3000000Y-57000000D03*
X51000000Y-3000000D03*
X45000000Y-72000000D03*
X18000000Y-72000000D03*
X40000000Y-8900000D03*
X12400000Y-42700000D03*
X15000000Y-39000000D03*
X6000000Y-42000000D03*
X34200000Y-52000000D03*
X36000000Y-60000000D03*
X12800000Y-27000000D03*
X27000000Y-3000000D03*
X3000000Y-12000000D03*
X54000000Y-3000000D03*
X15000000Y-15000000D03*
X47500000Y-12400000D03*
X54400000Y-38000000D03*
X9000000Y-42000000D03*
X15000000Y-24000000D03*
X6000000Y-66000000D03*
X6000000Y-3000000D03*
X13000000Y-49900000D03*
X3000000Y-36000000D03*
X6000000Y-69000000D03*
X15300000Y-40100000D03*
X3000000Y-39000000D03*
X9000000Y-3000000D03*
X9000000Y-33000000D03*
X18000000Y-9000000D03*
X12000000Y-60000000D03*
X3000000Y-21000000D03*
X15000000Y-27000000D03*
X36000000Y-72000000D03*
X33800000Y-2400000D03*
X6000000Y-72000000D03*
X48000000Y-69000000D03*
X12000000Y-69000000D03*
X6000000Y-18000000D03*
X11900000Y-34800000D03*
X15000000Y-30000000D03*
X49600000Y-50600000D03*
X45200000Y-61200000D03*
X36000000Y-63000000D03*
X3000000Y-18000000D03*
X49700000Y-34800000D03*
X32700000Y-2400000D03*
X13700000Y-5300000D03*
X7200000Y-33800000D03*
X52800000Y-39100000D03*
%TO.N,+3V3*%
X48300000Y-6300000D03*
X36900000Y-28800000D03*
X8800000Y-9200000D03*
X18200000Y-13000000D03*
X45100000Y-14600000D03*
X52175000Y-6900000D03*
X32900000Y-36800000D03*
X30800000Y-3600000D03*
X19600000Y-14000000D03*
X43800000Y-58000000D03*
X46700000Y-14800000D03*
X44100000Y-66000000D03*
X49900000Y-44300000D03*
X32900000Y-32800000D03*
X32900000Y-24800000D03*
X27800000Y-50000000D03*
X23200000Y-12200000D03*
X36900000Y-24800000D03*
X31800000Y-50000000D03*
X37200000Y-33000000D03*
X18000000Y-44500000D03*
X47800000Y-58000000D03*
X32900000Y-28800000D03*
X46100000Y-52000000D03*
X49700000Y-52000000D03*
X43800000Y-62000000D03*
X40000000Y-72500000D03*
X45100000Y-4800000D03*
X47700000Y-66000000D03*
%TO.N,IO4*%
X49300000Y-63500000D03*
X51600000Y-60900000D03*
%TO.N,CAM_SIOD*%
X41300000Y-11800000D03*
X27700000Y-52000000D03*
X34800000Y-3600000D03*
X42300000Y-59900000D03*
X39100000Y-8000000D03*
X28000000Y-53500000D03*
X43600000Y-57100000D03*
%TO.N,CAM_SIOC*%
X40500000Y-42200000D03*
X47100000Y-51000000D03*
X41400000Y-39200000D03*
X33800000Y-3600000D03*
X29300000Y-49200000D03*
X29400000Y-52000000D03*
%TO.N,CAM_RESET*%
X46500000Y-50400000D03*
X33900000Y-5900000D03*
%TO.N,CAM_VSYNC*%
X45900000Y-51000000D03*
X39300000Y-12300000D03*
%TO.N,CAM_PWDN*%
X42600000Y-54100000D03*
X39200000Y-13200000D03*
%TO.N,CAM_HREF*%
X40600000Y-57000000D03*
X39400000Y-15100000D03*
%TO.N,USB_DM*%
X41800000Y-43500000D03*
X40000000Y-53100000D03*
%TO.N,BOOT*%
X43100000Y-39500000D03*
X36700000Y-40400000D03*
X45400000Y-41800000D03*
X47800000Y-54900000D03*
X50300000Y-48200000D03*
X50400000Y-47000000D03*
X21400000Y-32700000D03*
X31500000Y-38700000D03*
X13000000Y-29200000D03*
X43500000Y-58900000D03*
X23400000Y-53800000D03*
X49400000Y-53400000D03*
X23400000Y-38400000D03*
X31600000Y-40400000D03*
%TO.N,SD_CMD*%
X16200000Y-43600000D03*
X16200000Y-51600000D03*
X21500000Y-62100000D03*
%TO.N,SD_CLK*%
X15800000Y-53600000D03*
X22600000Y-65900000D03*
X14800000Y-47700000D03*
%TO.N,SD_D0*%
X16900000Y-47800000D03*
X20100000Y-40700000D03*
%TO.N,SD_D3*%
X17600000Y-52900000D03*
X20100000Y-52800000D03*
X16200000Y-52600000D03*
X16900000Y-42300000D03*
X21500000Y-65900000D03*
%TO.N,UART_RX*%
X33100000Y-57400000D03*
X38900000Y-53100000D03*
%TO.N,UART_TX*%
X54200000Y-46900000D03*
X29000000Y-68200000D03*
%TO.N,BTN_SHUTTER*%
X37400000Y-65800000D03*
%TO.N,+5V*%
X47800000Y-10500000D03*
X50500000Y-9100000D03*
X50400000Y-26400000D03*
X52000000Y-34000000D03*
X51500000Y-21500000D03*
%TO.N,CC1*%
X51700000Y-35700000D03*
X51400000Y-25700000D03*
%TO.N,LDO_EN*%
X54500000Y-43810000D03*
%TO.N,VSYS*%
X37100000Y-53100000D03*
X49600000Y-46900000D03*
X37700000Y-54400000D03*
X50900000Y-43450000D03*
X41800000Y-50500000D03*
%TO.N,IPROG*%
X31900000Y-3500000D03*
X47800000Y-8400000D03*
%TO.N,LEDCHG*%
X38800000Y-17300000D03*
X51000000Y-14100000D03*
%TO.N,CHRG_N*%
X40600000Y-4800000D03*
X40700000Y-6200000D03*
%TO.N,VBAT*%
X48600000Y-51000000D03*
X48500000Y-61000000D03*
%TD*%
%TA.AperFunction,Conductor*%
%TO.N,GND*%
G36*
X58003523Y-300751D02*
G01*
X58234808Y-317293D01*
X58248771Y-319300D01*
X58471895Y-367838D01*
X58485435Y-371814D01*
X58699366Y-451606D01*
X58712210Y-457472D01*
X58912607Y-566897D01*
X58924483Y-574529D01*
X59107263Y-711356D01*
X59117939Y-720606D01*
X59279393Y-882060D01*
X59288643Y-892736D01*
X59425468Y-1075513D01*
X59433104Y-1087395D01*
X59542526Y-1287787D01*
X59548394Y-1300636D01*
X59628183Y-1514557D01*
X59632163Y-1528110D01*
X59680697Y-1751218D01*
X59682707Y-1765199D01*
X59699248Y-1996475D01*
X59699500Y-2003538D01*
X59699500Y-74401000D01*
X59680593Y-74459191D01*
X59631093Y-74495155D01*
X59600500Y-74500000D01*
X399500Y-74500000D01*
X341309Y-74481093D01*
X305345Y-74431593D01*
X300500Y-74401000D01*
X300500Y-72427525D01*
X39449500Y-72427525D01*
X39449500Y-72572474D01*
X39487017Y-72712489D01*
X39559487Y-72838010D01*
X39559489Y-72838012D01*
X39559491Y-72838015D01*
X39661985Y-72940509D01*
X39661987Y-72940510D01*
X39661989Y-72940512D01*
X39787511Y-73012982D01*
X39787512Y-73012982D01*
X39787515Y-73012984D01*
X39927525Y-73050500D01*
X39927526Y-73050500D01*
X40072474Y-73050500D01*
X40072475Y-73050500D01*
X40212485Y-73012984D01*
X40212487Y-73012982D01*
X40212489Y-73012982D01*
X40338010Y-72940512D01*
X40338010Y-72940511D01*
X40338015Y-72940509D01*
X40440509Y-72838015D01*
X40512984Y-72712485D01*
X40550500Y-72572475D01*
X40550500Y-72427525D01*
X40512984Y-72287515D01*
X40512982Y-72287512D01*
X40512982Y-72287510D01*
X40440512Y-72161989D01*
X40440510Y-72161987D01*
X40440509Y-72161985D01*
X40338015Y-72059491D01*
X40338012Y-72059489D01*
X40338010Y-72059487D01*
X40212488Y-71987017D01*
X40212489Y-71987017D01*
X40182896Y-71979087D01*
X40072475Y-71949500D01*
X39927525Y-71949500D01*
X39865790Y-71966041D01*
X39787510Y-71987017D01*
X39661989Y-72059487D01*
X39559487Y-72161989D01*
X39487017Y-72287510D01*
X39449500Y-72427525D01*
X300500Y-72427525D01*
X300500Y-70901579D01*
X2749500Y-70901579D01*
X2749500Y-71098420D01*
X2780289Y-71292821D01*
X2841116Y-71480025D01*
X2877024Y-71550500D01*
X2930476Y-71655405D01*
X3046172Y-71814646D01*
X3185354Y-71953828D01*
X3344595Y-72069524D01*
X3519975Y-72158884D01*
X3707174Y-72219709D01*
X3707175Y-72219709D01*
X3707178Y-72219710D01*
X3901580Y-72250500D01*
X3901583Y-72250500D01*
X4098420Y-72250500D01*
X4292821Y-72219710D01*
X4292822Y-72219709D01*
X4292826Y-72219709D01*
X4480025Y-72158884D01*
X4655405Y-72069524D01*
X4814646Y-71953828D01*
X4953828Y-71814646D01*
X5069524Y-71655405D01*
X5158884Y-71480025D01*
X5219709Y-71292826D01*
X5250500Y-71098417D01*
X5250500Y-70927525D01*
X20449500Y-70927525D01*
X20449500Y-71072474D01*
X20487017Y-71212489D01*
X20559487Y-71338010D01*
X20559489Y-71338012D01*
X20559491Y-71338015D01*
X20661985Y-71440509D01*
X20661987Y-71440510D01*
X20661989Y-71440512D01*
X20787511Y-71512982D01*
X20787512Y-71512982D01*
X20787515Y-71512984D01*
X20927525Y-71550500D01*
X20927526Y-71550500D01*
X21072474Y-71550500D01*
X21072475Y-71550500D01*
X21212485Y-71512984D01*
X21212487Y-71512982D01*
X21212489Y-71512982D01*
X21338010Y-71440512D01*
X21338010Y-71440511D01*
X21338015Y-71440509D01*
X21440509Y-71338015D01*
X21512984Y-71212485D01*
X21550500Y-71072475D01*
X21550500Y-70927525D01*
X21543548Y-70901579D01*
X54749500Y-70901579D01*
X54749500Y-71098420D01*
X54780289Y-71292821D01*
X54841116Y-71480025D01*
X54877024Y-71550500D01*
X54930476Y-71655405D01*
X55046172Y-71814646D01*
X55185354Y-71953828D01*
X55344595Y-72069524D01*
X55519975Y-72158884D01*
X55707174Y-72219709D01*
X55707175Y-72219709D01*
X55707178Y-72219710D01*
X55901580Y-72250500D01*
X55901583Y-72250500D01*
X56098420Y-72250500D01*
X56292821Y-72219710D01*
X56292822Y-72219709D01*
X56292826Y-72219709D01*
X56480025Y-72158884D01*
X56655405Y-72069524D01*
X56814646Y-71953828D01*
X56953828Y-71814646D01*
X57069524Y-71655405D01*
X57158884Y-71480025D01*
X57219709Y-71292826D01*
X57250500Y-71098417D01*
X57250500Y-70901583D01*
X57250500Y-70901579D01*
X57219710Y-70707178D01*
X57205026Y-70661985D01*
X57158884Y-70519975D01*
X57069524Y-70344595D01*
X56953828Y-70185354D01*
X56814646Y-70046172D01*
X56655405Y-69930476D01*
X56655404Y-69930475D01*
X56655402Y-69930474D01*
X56480025Y-69841116D01*
X56292821Y-69780289D01*
X56098420Y-69749500D01*
X56098417Y-69749500D01*
X55901583Y-69749500D01*
X55901580Y-69749500D01*
X55707178Y-69780289D01*
X55519974Y-69841116D01*
X55344597Y-69930474D01*
X55185355Y-70046171D01*
X55046171Y-70185355D01*
X54930474Y-70344597D01*
X54841116Y-70519974D01*
X54780289Y-70707178D01*
X54749500Y-70901579D01*
X21543548Y-70901579D01*
X21512984Y-70787515D01*
X21512981Y-70787509D01*
X21440512Y-70661989D01*
X21440510Y-70661987D01*
X21440509Y-70661985D01*
X21338015Y-70559491D01*
X21338012Y-70559489D01*
X21338010Y-70559487D01*
X21212488Y-70487017D01*
X21212489Y-70487017D01*
X21182896Y-70479087D01*
X21072475Y-70449500D01*
X20927525Y-70449500D01*
X20865790Y-70466041D01*
X20787510Y-70487017D01*
X20661989Y-70559487D01*
X20559487Y-70661989D01*
X20487017Y-70787510D01*
X20449500Y-70927525D01*
X5250500Y-70927525D01*
X5250500Y-70901583D01*
X5250500Y-70901579D01*
X5219710Y-70707178D01*
X5205026Y-70661985D01*
X5158884Y-70519975D01*
X5069524Y-70344595D01*
X4953828Y-70185354D01*
X4814646Y-70046172D01*
X4655405Y-69930476D01*
X4655404Y-69930475D01*
X4655402Y-69930474D01*
X4480025Y-69841116D01*
X4292821Y-69780289D01*
X4098420Y-69749500D01*
X4098417Y-69749500D01*
X3901583Y-69749500D01*
X3901580Y-69749500D01*
X3707178Y-69780289D01*
X3519974Y-69841116D01*
X3344597Y-69930474D01*
X3185355Y-70046171D01*
X3046171Y-70185355D01*
X2930474Y-70344597D01*
X2841116Y-70519974D01*
X2780289Y-70707178D01*
X2749500Y-70901579D01*
X300500Y-70901579D01*
X300500Y-68127525D01*
X28449500Y-68127525D01*
X28449500Y-68272474D01*
X28487017Y-68412489D01*
X28559487Y-68538010D01*
X28559489Y-68538012D01*
X28559491Y-68538015D01*
X28661985Y-68640509D01*
X28661987Y-68640510D01*
X28661989Y-68640512D01*
X28787511Y-68712982D01*
X28787512Y-68712982D01*
X28787515Y-68712984D01*
X28927525Y-68750500D01*
X28927526Y-68750500D01*
X29072474Y-68750500D01*
X29072475Y-68750500D01*
X29212485Y-68712984D01*
X29212487Y-68712982D01*
X29212489Y-68712982D01*
X29338010Y-68640512D01*
X29338010Y-68640511D01*
X29338015Y-68640509D01*
X29440509Y-68538015D01*
X29512984Y-68412485D01*
X29550500Y-68272475D01*
X29550500Y-68127525D01*
X29512984Y-67987515D01*
X29512982Y-67987512D01*
X29512982Y-67987510D01*
X29440512Y-67861989D01*
X29440510Y-67861987D01*
X29440509Y-67861985D01*
X29338015Y-67759491D01*
X29338012Y-67759489D01*
X29338010Y-67759487D01*
X29212488Y-67687017D01*
X29212489Y-67687017D01*
X29182896Y-67679087D01*
X29072475Y-67649500D01*
X28927525Y-67649500D01*
X28865790Y-67666041D01*
X28787510Y-67687017D01*
X28661989Y-67759487D01*
X28559487Y-67861989D01*
X28487017Y-67987510D01*
X28449500Y-68127525D01*
X300500Y-68127525D01*
X300500Y-65827525D01*
X20949500Y-65827525D01*
X20949500Y-65972474D01*
X20987017Y-66112489D01*
X21059487Y-66238010D01*
X21059489Y-66238012D01*
X21059491Y-66238015D01*
X21161985Y-66340509D01*
X21161987Y-66340510D01*
X21161989Y-66340512D01*
X21287511Y-66412982D01*
X21287512Y-66412982D01*
X21287515Y-66412984D01*
X21427525Y-66450500D01*
X21427526Y-66450500D01*
X21572474Y-66450500D01*
X21572475Y-66450500D01*
X21712485Y-66412984D01*
X21712487Y-66412982D01*
X21712489Y-66412982D01*
X21838010Y-66340512D01*
X21838010Y-66340511D01*
X21838015Y-66340509D01*
X21940509Y-66238015D01*
X21964264Y-66196869D01*
X22009733Y-66155930D01*
X22070583Y-66149534D01*
X22123571Y-66180127D01*
X22135734Y-66196867D01*
X22159491Y-66238015D01*
X22261985Y-66340509D01*
X22261987Y-66340510D01*
X22261989Y-66340512D01*
X22387511Y-66412982D01*
X22387512Y-66412982D01*
X22387515Y-66412984D01*
X22527525Y-66450500D01*
X22527526Y-66450500D01*
X22672474Y-66450500D01*
X22672475Y-66450500D01*
X22812485Y-66412984D01*
X22812487Y-66412982D01*
X22812489Y-66412982D01*
X22938010Y-66340512D01*
X22938010Y-66340511D01*
X22938015Y-66340509D01*
X23040509Y-66238015D01*
X23040512Y-66238010D01*
X23112982Y-66112489D01*
X23112982Y-66112487D01*
X23112984Y-66112485D01*
X23150500Y-65972475D01*
X23150500Y-65827525D01*
X23123705Y-65727525D01*
X36849500Y-65727525D01*
X36849500Y-65872475D01*
X36864251Y-65927525D01*
X36887017Y-66012489D01*
X36959487Y-66138010D01*
X36959489Y-66138012D01*
X36959491Y-66138015D01*
X37061985Y-66240509D01*
X37061987Y-66240510D01*
X37061989Y-66240512D01*
X37187511Y-66312982D01*
X37187512Y-66312982D01*
X37187515Y-66312984D01*
X37327525Y-66350500D01*
X37327526Y-66350500D01*
X37472474Y-66350500D01*
X37472475Y-66350500D01*
X37612485Y-66312984D01*
X37612487Y-66312982D01*
X37612489Y-66312982D01*
X37738010Y-66240512D01*
X37738010Y-66240511D01*
X37738015Y-66240509D01*
X37840509Y-66138015D01*
X37840512Y-66138010D01*
X37912982Y-66012489D01*
X37912982Y-66012487D01*
X37912984Y-66012485D01*
X37935749Y-65927525D01*
X43549500Y-65927525D01*
X43549500Y-66072474D01*
X43587017Y-66212489D01*
X43659487Y-66338010D01*
X43659489Y-66338012D01*
X43659491Y-66338015D01*
X43761985Y-66440509D01*
X43761987Y-66440510D01*
X43761989Y-66440512D01*
X43887511Y-66512982D01*
X43887512Y-66512982D01*
X43887515Y-66512984D01*
X44027525Y-66550500D01*
X44027526Y-66550500D01*
X44172474Y-66550500D01*
X44172475Y-66550500D01*
X44312485Y-66512984D01*
X44312487Y-66512982D01*
X44312489Y-66512982D01*
X44438010Y-66440512D01*
X44438010Y-66440511D01*
X44438015Y-66440509D01*
X44540509Y-66338015D01*
X44596803Y-66240512D01*
X44612982Y-66212489D01*
X44612982Y-66212487D01*
X44612984Y-66212485D01*
X44650500Y-66072475D01*
X44650500Y-65927525D01*
X47149500Y-65927525D01*
X47149500Y-66072474D01*
X47187017Y-66212489D01*
X47259487Y-66338010D01*
X47259489Y-66338012D01*
X47259491Y-66338015D01*
X47361985Y-66440509D01*
X47361987Y-66440510D01*
X47361989Y-66440512D01*
X47487511Y-66512982D01*
X47487512Y-66512982D01*
X47487515Y-66512984D01*
X47627525Y-66550500D01*
X47627526Y-66550500D01*
X47772474Y-66550500D01*
X47772475Y-66550500D01*
X47912485Y-66512984D01*
X47912487Y-66512982D01*
X47912489Y-66512982D01*
X48038010Y-66440512D01*
X48038010Y-66440511D01*
X48038015Y-66440509D01*
X48140509Y-66338015D01*
X48196803Y-66240512D01*
X48212982Y-66212489D01*
X48212982Y-66212487D01*
X48212984Y-66212485D01*
X48250500Y-66072475D01*
X48250500Y-65927525D01*
X48212984Y-65787515D01*
X48212982Y-65787512D01*
X48212982Y-65787510D01*
X48140512Y-65661989D01*
X48140510Y-65661987D01*
X48140509Y-65661985D01*
X48038015Y-65559491D01*
X48038012Y-65559489D01*
X48038010Y-65559487D01*
X47912488Y-65487017D01*
X47912489Y-65487017D01*
X47882896Y-65479087D01*
X47772475Y-65449500D01*
X47627525Y-65449500D01*
X47590239Y-65459491D01*
X47487510Y-65487017D01*
X47361989Y-65559487D01*
X47259487Y-65661989D01*
X47187017Y-65787510D01*
X47149500Y-65927525D01*
X44650500Y-65927525D01*
X44612984Y-65787515D01*
X44612982Y-65787512D01*
X44612982Y-65787510D01*
X44540512Y-65661989D01*
X44540510Y-65661987D01*
X44540509Y-65661985D01*
X44438015Y-65559491D01*
X44438012Y-65559489D01*
X44438010Y-65559487D01*
X44312488Y-65487017D01*
X44312489Y-65487017D01*
X44282896Y-65479087D01*
X44172475Y-65449500D01*
X44027525Y-65449500D01*
X43990239Y-65459491D01*
X43887510Y-65487017D01*
X43761989Y-65559487D01*
X43659487Y-65661989D01*
X43587017Y-65787510D01*
X43549500Y-65927525D01*
X37935749Y-65927525D01*
X37950500Y-65872475D01*
X37950500Y-65727525D01*
X37912984Y-65587515D01*
X37912982Y-65587512D01*
X37912982Y-65587510D01*
X37840512Y-65461989D01*
X37840510Y-65461987D01*
X37840509Y-65461985D01*
X37738015Y-65359491D01*
X37738012Y-65359489D01*
X37738010Y-65359487D01*
X37612488Y-65287017D01*
X37612489Y-65287017D01*
X37582896Y-65279087D01*
X37472475Y-65249500D01*
X37327525Y-65249500D01*
X37265790Y-65266041D01*
X37187510Y-65287017D01*
X37061989Y-65359487D01*
X36959487Y-65461989D01*
X36887017Y-65587510D01*
X36860222Y-65687510D01*
X36849500Y-65727525D01*
X23123705Y-65727525D01*
X23112984Y-65687515D01*
X23112982Y-65687512D01*
X23112982Y-65687510D01*
X23040512Y-65561989D01*
X23040510Y-65561987D01*
X23040509Y-65561985D01*
X22938015Y-65459491D01*
X22938012Y-65459489D01*
X22938010Y-65459487D01*
X22812488Y-65387017D01*
X22812489Y-65387017D01*
X22709761Y-65359491D01*
X22672475Y-65349500D01*
X22527525Y-65349500D01*
X22490239Y-65359491D01*
X22387510Y-65387017D01*
X22261989Y-65459487D01*
X22159489Y-65561987D01*
X22135736Y-65603129D01*
X22090266Y-65644069D01*
X22029416Y-65650464D01*
X21976428Y-65619871D01*
X21964264Y-65603129D01*
X21940510Y-65561987D01*
X21940509Y-65561985D01*
X21838015Y-65459491D01*
X21838012Y-65459489D01*
X21838010Y-65459487D01*
X21712488Y-65387017D01*
X21712489Y-65387017D01*
X21609761Y-65359491D01*
X21572475Y-65349500D01*
X21427525Y-65349500D01*
X21390239Y-65359491D01*
X21287510Y-65387017D01*
X21161989Y-65459487D01*
X21059487Y-65561989D01*
X20987017Y-65687510D01*
X20949500Y-65827525D01*
X300500Y-65827525D01*
X300500Y-63427525D01*
X48749500Y-63427525D01*
X48749500Y-63572474D01*
X48787017Y-63712489D01*
X48859487Y-63838010D01*
X48859489Y-63838012D01*
X48859491Y-63838015D01*
X48901474Y-63879998D01*
X48929250Y-63934513D01*
X48919679Y-63994945D01*
X48901475Y-64020000D01*
X48859491Y-64061985D01*
X48859488Y-64061988D01*
X48859487Y-64061989D01*
X48787017Y-64187510D01*
X48749500Y-64327525D01*
X48749500Y-64472474D01*
X48787017Y-64612489D01*
X48859487Y-64738010D01*
X48859489Y-64738012D01*
X48859491Y-64738015D01*
X48961985Y-64840509D01*
X48961987Y-64840510D01*
X48961989Y-64840512D01*
X49087511Y-64912982D01*
X49087512Y-64912982D01*
X49087515Y-64912984D01*
X49227525Y-64950500D01*
X49227526Y-64950500D01*
X49372474Y-64950500D01*
X49372475Y-64950500D01*
X49512485Y-64912984D01*
X49512487Y-64912982D01*
X49512489Y-64912982D01*
X49638010Y-64840512D01*
X49638010Y-64840511D01*
X49638015Y-64840509D01*
X49740509Y-64738015D01*
X49812984Y-64612485D01*
X49850500Y-64472475D01*
X49850500Y-64327525D01*
X49812984Y-64187515D01*
X49812982Y-64187512D01*
X49812982Y-64187510D01*
X49740512Y-64061989D01*
X49740510Y-64061987D01*
X49740509Y-64061985D01*
X49698525Y-64020001D01*
X49670750Y-63965487D01*
X49680321Y-63905055D01*
X49698524Y-63879999D01*
X49740509Y-63838015D01*
X49812984Y-63712485D01*
X49850500Y-63572475D01*
X49850500Y-63427525D01*
X49812984Y-63287515D01*
X49812982Y-63287512D01*
X49812982Y-63287510D01*
X49740512Y-63161989D01*
X49740510Y-63161987D01*
X49740509Y-63161985D01*
X49638015Y-63059491D01*
X49638012Y-63059489D01*
X49638010Y-63059487D01*
X49512488Y-62987017D01*
X49512489Y-62987017D01*
X49464193Y-62974076D01*
X49372475Y-62949500D01*
X49227525Y-62949500D01*
X49165790Y-62966041D01*
X49087510Y-62987017D01*
X48961989Y-63059487D01*
X48859487Y-63161989D01*
X48787017Y-63287510D01*
X48749500Y-63427525D01*
X300500Y-63427525D01*
X300500Y-61636355D01*
X9100000Y-61636355D01*
X9100000Y-61799999D01*
X9100001Y-61800000D01*
X9682457Y-61800000D01*
X9650556Y-61855255D01*
X9625000Y-61950630D01*
X9625000Y-62049370D01*
X9650556Y-62144745D01*
X9682457Y-62200000D01*
X9100001Y-62200000D01*
X9100000Y-62200001D01*
X9100000Y-62363644D01*
X9134586Y-62537519D01*
X9134586Y-62537521D01*
X9202429Y-62701308D01*
X9300923Y-62848715D01*
X9426284Y-62974076D01*
X9573691Y-63072570D01*
X9737473Y-63140411D01*
X9737484Y-63140414D01*
X9800000Y-63152848D01*
X9800000Y-62317542D01*
X9855255Y-62349444D01*
X9950630Y-62375000D01*
X10049370Y-62375000D01*
X10144745Y-62349444D01*
X10200000Y-62317542D01*
X10200000Y-63152847D01*
X10262515Y-63140414D01*
X10262526Y-63140411D01*
X10426308Y-63072570D01*
X10573715Y-62974076D01*
X10699076Y-62848715D01*
X10797570Y-62701308D01*
X10865413Y-62537521D01*
X10865413Y-62537519D01*
X10899999Y-62363644D01*
X10900000Y-62363641D01*
X10900000Y-62200001D01*
X10899999Y-62200000D01*
X10317543Y-62200000D01*
X10349444Y-62144745D01*
X10375000Y-62049370D01*
X10375000Y-61950630D01*
X10349444Y-61855255D01*
X10317543Y-61800000D01*
X10899999Y-61800000D01*
X10900000Y-61799999D01*
X10900000Y-61636358D01*
X10899999Y-61636355D01*
X10865413Y-61462480D01*
X10865413Y-61462478D01*
X10823944Y-61362361D01*
X10809350Y-61327129D01*
X11149500Y-61327129D01*
X11149500Y-62672866D01*
X11149501Y-62672870D01*
X11155908Y-62732480D01*
X11155909Y-62732485D01*
X11206202Y-62867329D01*
X11286113Y-62974076D01*
X11292454Y-62982546D01*
X11292457Y-62982548D01*
X11292458Y-62982549D01*
X11407670Y-63068797D01*
X11542511Y-63119089D01*
X11542512Y-63119089D01*
X11542517Y-63119091D01*
X11602127Y-63125500D01*
X12397872Y-63125499D01*
X12457483Y-63119091D01*
X12524907Y-63093943D01*
X12592329Y-63068797D01*
X12592329Y-63068796D01*
X12592331Y-63068796D01*
X12707546Y-62982546D01*
X12793796Y-62867331D01*
X12800740Y-62848715D01*
X12844089Y-62732488D01*
X12844090Y-62732485D01*
X12844091Y-62732483D01*
X12850500Y-62672873D01*
X12850499Y-62027525D01*
X20949500Y-62027525D01*
X20949500Y-62172475D01*
X20956876Y-62200001D01*
X20987017Y-62312489D01*
X21059487Y-62438010D01*
X21059489Y-62438012D01*
X21059491Y-62438015D01*
X21161985Y-62540509D01*
X21161987Y-62540510D01*
X21161989Y-62540512D01*
X21287511Y-62612982D01*
X21287512Y-62612982D01*
X21287515Y-62612984D01*
X21427525Y-62650500D01*
X21427526Y-62650500D01*
X21572474Y-62650500D01*
X21572475Y-62650500D01*
X21712485Y-62612984D01*
X21712487Y-62612982D01*
X21712489Y-62612982D01*
X21838010Y-62540512D01*
X21838010Y-62540511D01*
X21838015Y-62540509D01*
X21940509Y-62438015D01*
X22012984Y-62312485D01*
X22050500Y-62172475D01*
X22050500Y-62027525D01*
X22023705Y-61927525D01*
X43249500Y-61927525D01*
X43249500Y-62072474D01*
X43287017Y-62212489D01*
X43359487Y-62338010D01*
X43359489Y-62338012D01*
X43359491Y-62338015D01*
X43461985Y-62440509D01*
X43461987Y-62440510D01*
X43461989Y-62440512D01*
X43587511Y-62512982D01*
X43587512Y-62512982D01*
X43587515Y-62512984D01*
X43727525Y-62550500D01*
X43727526Y-62550500D01*
X43872474Y-62550500D01*
X43872475Y-62550500D01*
X44012485Y-62512984D01*
X44012487Y-62512982D01*
X44012489Y-62512982D01*
X44138010Y-62440512D01*
X44138010Y-62440511D01*
X44138015Y-62440509D01*
X44240509Y-62338015D01*
X44241138Y-62336926D01*
X44312982Y-62212489D01*
X44312982Y-62212487D01*
X44312984Y-62212485D01*
X44350500Y-62072475D01*
X44350500Y-61927525D01*
X44312984Y-61787515D01*
X44312982Y-61787512D01*
X44312982Y-61787510D01*
X44240512Y-61661989D01*
X44240510Y-61661987D01*
X44240509Y-61661985D01*
X44138015Y-61559491D01*
X44138012Y-61559489D01*
X44138010Y-61559487D01*
X44012488Y-61487017D01*
X44012489Y-61487017D01*
X43920916Y-61462480D01*
X43872475Y-61449500D01*
X43727525Y-61449500D01*
X43679091Y-61462478D01*
X43587510Y-61487017D01*
X43461989Y-61559487D01*
X43359487Y-61661989D01*
X43287017Y-61787510D01*
X43249500Y-61927525D01*
X22023705Y-61927525D01*
X22012984Y-61887515D01*
X22012982Y-61887512D01*
X22012982Y-61887510D01*
X21940512Y-61761989D01*
X21940510Y-61761987D01*
X21940509Y-61761985D01*
X21838015Y-61659491D01*
X21838012Y-61659489D01*
X21838010Y-61659487D01*
X21712488Y-61587017D01*
X21712489Y-61587017D01*
X21609761Y-61559491D01*
X21572475Y-61549500D01*
X21427525Y-61549500D01*
X21390239Y-61559491D01*
X21287510Y-61587017D01*
X21161989Y-61659487D01*
X21059487Y-61761989D01*
X20987017Y-61887510D01*
X20970104Y-61950630D01*
X20949500Y-62027525D01*
X12850499Y-62027525D01*
X12850499Y-61950630D01*
X12850499Y-61327133D01*
X12850499Y-61327128D01*
X12844091Y-61267517D01*
X12844089Y-61267511D01*
X12793797Y-61132670D01*
X12707549Y-61017458D01*
X12707548Y-61017457D01*
X12707546Y-61017454D01*
X12647461Y-60972474D01*
X12592329Y-60931202D01*
X12582470Y-60927525D01*
X47949500Y-60927525D01*
X47949500Y-61072475D01*
X47970617Y-61151284D01*
X47987017Y-61212489D01*
X48059487Y-61338010D01*
X48059489Y-61338012D01*
X48059491Y-61338015D01*
X48161985Y-61440509D01*
X48161987Y-61440510D01*
X48161989Y-61440512D01*
X48287511Y-61512982D01*
X48287512Y-61512982D01*
X48287515Y-61512984D01*
X48427525Y-61550500D01*
X48427526Y-61550500D01*
X48572474Y-61550500D01*
X48572475Y-61550500D01*
X48636348Y-61533385D01*
X54899500Y-61533385D01*
X54899500Y-61706614D01*
X54926597Y-61877702D01*
X54926598Y-61877706D01*
X54980123Y-62042438D01*
X54980125Y-62042441D01*
X55046379Y-62172474D01*
X55058768Y-62196788D01*
X55160586Y-62336928D01*
X55283072Y-62459414D01*
X55423212Y-62561232D01*
X55577555Y-62639873D01*
X55577557Y-62639873D01*
X55577558Y-62639874D01*
X55577561Y-62639876D01*
X55742293Y-62693401D01*
X55742297Y-62693402D01*
X55913386Y-62720500D01*
X55913389Y-62720500D01*
X56086614Y-62720500D01*
X56257702Y-62693402D01*
X56257706Y-62693401D01*
X56422438Y-62639876D01*
X56422440Y-62639874D01*
X56422445Y-62639873D01*
X56576788Y-62561232D01*
X56716928Y-62459414D01*
X56839414Y-62336928D01*
X56941232Y-62196788D01*
X57019873Y-62042445D01*
X57019874Y-62042440D01*
X57019876Y-62042438D01*
X57073401Y-61877706D01*
X57073402Y-61877702D01*
X57100500Y-61706614D01*
X57100500Y-61533385D01*
X57073402Y-61362297D01*
X57073401Y-61362293D01*
X57019876Y-61197561D01*
X57019874Y-61197558D01*
X57019873Y-61197557D01*
X57019873Y-61197555D01*
X56941232Y-61043212D01*
X56839414Y-60903072D01*
X56716928Y-60780586D01*
X56576788Y-60678768D01*
X56576787Y-60678767D01*
X56576785Y-60678766D01*
X56422441Y-60600125D01*
X56422438Y-60600123D01*
X56257706Y-60546598D01*
X56257702Y-60546597D01*
X56086614Y-60519500D01*
X56086611Y-60519500D01*
X55913389Y-60519500D01*
X55913386Y-60519500D01*
X55742297Y-60546597D01*
X55742293Y-60546598D01*
X55577561Y-60600123D01*
X55577558Y-60600125D01*
X55423214Y-60678766D01*
X55283073Y-60780585D01*
X55160585Y-60903073D01*
X55058766Y-61043214D01*
X54980125Y-61197558D01*
X54980123Y-61197561D01*
X54926598Y-61362293D01*
X54926597Y-61362297D01*
X54899500Y-61533385D01*
X48636348Y-61533385D01*
X48712485Y-61512984D01*
X48712487Y-61512982D01*
X48712489Y-61512982D01*
X48838010Y-61440512D01*
X48838010Y-61440511D01*
X48838015Y-61440509D01*
X48940509Y-61338015D01*
X49012984Y-61212485D01*
X49050500Y-61072475D01*
X49050500Y-60927525D01*
X49023705Y-60827525D01*
X51049500Y-60827525D01*
X51049500Y-60972474D01*
X51087017Y-61112489D01*
X51159487Y-61238010D01*
X51159489Y-61238012D01*
X51159491Y-61238015D01*
X51261985Y-61340509D01*
X51261987Y-61340510D01*
X51261989Y-61340512D01*
X51387511Y-61412982D01*
X51387512Y-61412982D01*
X51387515Y-61412984D01*
X51527525Y-61450500D01*
X51527526Y-61450500D01*
X51672474Y-61450500D01*
X51672475Y-61450500D01*
X51812485Y-61412984D01*
X51938015Y-61340509D01*
X52040509Y-61238015D01*
X52040512Y-61238010D01*
X52112982Y-61112489D01*
X52112982Y-61112487D01*
X52112984Y-61112485D01*
X52150500Y-60972475D01*
X52150500Y-60827525D01*
X52112984Y-60687515D01*
X52112982Y-60687512D01*
X52112982Y-60687510D01*
X52040512Y-60561989D01*
X52040510Y-60561987D01*
X52040509Y-60561985D01*
X51938015Y-60459491D01*
X51938012Y-60459489D01*
X51938010Y-60459487D01*
X51812488Y-60387017D01*
X51812489Y-60387017D01*
X51782896Y-60379087D01*
X51672475Y-60349500D01*
X51527525Y-60349500D01*
X51465790Y-60366041D01*
X51387510Y-60387017D01*
X51261989Y-60459487D01*
X51159487Y-60561989D01*
X51087017Y-60687510D01*
X51049500Y-60827525D01*
X49023705Y-60827525D01*
X49012984Y-60787515D01*
X49012982Y-60787512D01*
X49012982Y-60787510D01*
X48940512Y-60661989D01*
X48940510Y-60661987D01*
X48940509Y-60661985D01*
X48838015Y-60559491D01*
X48838012Y-60559489D01*
X48838010Y-60559487D01*
X48712488Y-60487017D01*
X48712489Y-60487017D01*
X48609761Y-60459491D01*
X48572475Y-60449500D01*
X48427525Y-60449500D01*
X48390239Y-60459491D01*
X48287510Y-60487017D01*
X48161989Y-60559487D01*
X48059487Y-60661989D01*
X47987017Y-60787510D01*
X47956052Y-60903072D01*
X47949500Y-60927525D01*
X12582470Y-60927525D01*
X12457488Y-60880910D01*
X12457483Y-60880909D01*
X12457481Y-60880908D01*
X12457477Y-60880908D01*
X12426249Y-60877550D01*
X12397873Y-60874500D01*
X12397870Y-60874500D01*
X11602133Y-60874500D01*
X11602129Y-60874500D01*
X11602128Y-60874501D01*
X11594949Y-60875272D01*
X11542519Y-60880908D01*
X11542514Y-60880909D01*
X11407670Y-60931202D01*
X11292458Y-61017450D01*
X11292450Y-61017458D01*
X11206202Y-61132670D01*
X11155910Y-61267511D01*
X11155908Y-61267522D01*
X11149500Y-61327129D01*
X10809350Y-61327129D01*
X10797569Y-61298689D01*
X10699076Y-61151284D01*
X10573715Y-61025923D01*
X10426308Y-60927429D01*
X10262520Y-60859586D01*
X10200000Y-60847149D01*
X10200000Y-61682457D01*
X10144745Y-61650556D01*
X10049370Y-61625000D01*
X9950630Y-61625000D01*
X9855255Y-61650556D01*
X9800000Y-61682457D01*
X9800000Y-60847149D01*
X9737480Y-60859586D01*
X9737478Y-60859586D01*
X9573691Y-60927429D01*
X9426284Y-61025923D01*
X9300923Y-61151284D01*
X9202429Y-61298691D01*
X9134586Y-61462478D01*
X9134586Y-61462480D01*
X9100000Y-61636355D01*
X300500Y-61636355D01*
X300500Y-59827525D01*
X41749500Y-59827525D01*
X41749500Y-59972474D01*
X41787017Y-60112489D01*
X41859487Y-60238010D01*
X41859489Y-60238012D01*
X41859491Y-60238015D01*
X41961985Y-60340509D01*
X41961987Y-60340510D01*
X41961989Y-60340512D01*
X42087511Y-60412982D01*
X42087512Y-60412982D01*
X42087515Y-60412984D01*
X42227525Y-60450500D01*
X42227526Y-60450500D01*
X42372474Y-60450500D01*
X42372475Y-60450500D01*
X42512485Y-60412984D01*
X42512487Y-60412982D01*
X42512489Y-60412982D01*
X42638010Y-60340512D01*
X42638010Y-60340511D01*
X42638015Y-60340509D01*
X42740509Y-60238015D01*
X42740512Y-60238010D01*
X42812982Y-60112489D01*
X42812982Y-60112487D01*
X42812984Y-60112485D01*
X42850500Y-59972475D01*
X42850500Y-59827525D01*
X42812984Y-59687515D01*
X42812982Y-59687512D01*
X42812982Y-59687510D01*
X42740512Y-59561989D01*
X42740510Y-59561987D01*
X42740509Y-59561985D01*
X42638015Y-59459491D01*
X42638012Y-59459489D01*
X42638010Y-59459487D01*
X42512488Y-59387017D01*
X42512489Y-59387017D01*
X42482896Y-59379087D01*
X42372475Y-59349500D01*
X42227525Y-59349500D01*
X42165790Y-59366041D01*
X42087510Y-59387017D01*
X41961989Y-59459487D01*
X41859487Y-59561989D01*
X41787017Y-59687510D01*
X41749500Y-59827525D01*
X300500Y-59827525D01*
X300500Y-58827525D01*
X42949500Y-58827525D01*
X42949500Y-58972474D01*
X42987017Y-59112489D01*
X43059487Y-59238010D01*
X43059489Y-59238012D01*
X43059491Y-59238015D01*
X43161985Y-59340509D01*
X43161987Y-59340510D01*
X43161989Y-59340512D01*
X43287511Y-59412982D01*
X43287512Y-59412982D01*
X43287515Y-59412984D01*
X43427525Y-59450500D01*
X43427526Y-59450500D01*
X43572474Y-59450500D01*
X43572475Y-59450500D01*
X43712485Y-59412984D01*
X43712487Y-59412982D01*
X43712489Y-59412982D01*
X43838010Y-59340512D01*
X43838010Y-59340511D01*
X43838015Y-59340509D01*
X43940509Y-59238015D01*
X44012984Y-59112485D01*
X44044897Y-58993385D01*
X54899500Y-58993385D01*
X54899500Y-59166614D01*
X54926597Y-59337702D01*
X54926598Y-59337706D01*
X54980123Y-59502438D01*
X54980125Y-59502441D01*
X54980126Y-59502444D01*
X54980127Y-59502445D01*
X55058768Y-59656788D01*
X55160586Y-59796928D01*
X55283072Y-59919414D01*
X55423212Y-60021232D01*
X55577555Y-60099873D01*
X55577557Y-60099873D01*
X55577558Y-60099874D01*
X55577561Y-60099876D01*
X55742293Y-60153401D01*
X55742297Y-60153402D01*
X55913386Y-60180500D01*
X55913389Y-60180500D01*
X56086614Y-60180500D01*
X56257702Y-60153402D01*
X56257706Y-60153401D01*
X56422438Y-60099876D01*
X56422440Y-60099874D01*
X56422445Y-60099873D01*
X56576788Y-60021232D01*
X56716928Y-59919414D01*
X56839414Y-59796928D01*
X56941232Y-59656788D01*
X57019873Y-59502445D01*
X57019874Y-59502440D01*
X57019876Y-59502438D01*
X57073401Y-59337706D01*
X57073402Y-59337702D01*
X57100500Y-59166614D01*
X57100500Y-58993385D01*
X57073402Y-58822297D01*
X57073401Y-58822293D01*
X57019876Y-58657561D01*
X57019874Y-58657558D01*
X57019873Y-58657557D01*
X57019873Y-58657555D01*
X56941232Y-58503212D01*
X56839414Y-58363072D01*
X56716928Y-58240586D01*
X56576788Y-58138768D01*
X56576787Y-58138767D01*
X56576785Y-58138766D01*
X56422441Y-58060125D01*
X56422438Y-58060123D01*
X56257706Y-58006598D01*
X56257702Y-58006597D01*
X56086614Y-57979500D01*
X56086611Y-57979500D01*
X55913389Y-57979500D01*
X55913386Y-57979500D01*
X55742297Y-58006597D01*
X55742293Y-58006598D01*
X55577561Y-58060123D01*
X55577558Y-58060125D01*
X55423214Y-58138766D01*
X55283073Y-58240585D01*
X55160585Y-58363073D01*
X55058766Y-58503214D01*
X54980125Y-58657558D01*
X54980123Y-58657561D01*
X54926598Y-58822293D01*
X54926597Y-58822297D01*
X54899500Y-58993385D01*
X44044897Y-58993385D01*
X44050500Y-58972475D01*
X44050500Y-58827525D01*
X44012984Y-58687515D01*
X43986784Y-58642136D01*
X43974063Y-58582290D01*
X43998949Y-58526394D01*
X44023016Y-58506903D01*
X44138015Y-58440509D01*
X44240509Y-58338015D01*
X44296760Y-58240586D01*
X44312982Y-58212489D01*
X44312982Y-58212487D01*
X44312984Y-58212485D01*
X44350500Y-58072475D01*
X44350500Y-57927525D01*
X47249500Y-57927525D01*
X47249500Y-58072474D01*
X47287017Y-58212489D01*
X47359487Y-58338010D01*
X47359489Y-58338012D01*
X47359491Y-58338015D01*
X47461985Y-58440509D01*
X47461987Y-58440510D01*
X47461989Y-58440512D01*
X47587511Y-58512982D01*
X47587512Y-58512982D01*
X47587515Y-58512984D01*
X47727525Y-58550500D01*
X47727526Y-58550500D01*
X47872474Y-58550500D01*
X47872475Y-58550500D01*
X48012485Y-58512984D01*
X48012487Y-58512982D01*
X48012489Y-58512982D01*
X48138010Y-58440512D01*
X48138010Y-58440511D01*
X48138015Y-58440509D01*
X48240509Y-58338015D01*
X48296760Y-58240586D01*
X48312982Y-58212489D01*
X48312982Y-58212487D01*
X48312984Y-58212485D01*
X48350500Y-58072475D01*
X48350500Y-57927525D01*
X48312984Y-57787515D01*
X48312982Y-57787512D01*
X48312982Y-57787510D01*
X48240512Y-57661989D01*
X48240510Y-57661987D01*
X48240509Y-57661985D01*
X48138015Y-57559491D01*
X48138012Y-57559489D01*
X48138010Y-57559487D01*
X48012488Y-57487017D01*
X48012489Y-57487017D01*
X47958214Y-57472474D01*
X47872475Y-57449500D01*
X47727525Y-57449500D01*
X47665790Y-57466041D01*
X47587510Y-57487017D01*
X47461989Y-57559487D01*
X47359487Y-57661989D01*
X47287017Y-57787510D01*
X47249500Y-57927525D01*
X44350500Y-57927525D01*
X44312984Y-57787515D01*
X44312982Y-57787512D01*
X44312982Y-57787510D01*
X44240512Y-57661989D01*
X44240510Y-57661987D01*
X44240509Y-57661985D01*
X44138015Y-57559491D01*
X44098019Y-57536399D01*
X44057080Y-57490931D01*
X44050684Y-57430081D01*
X44061783Y-57401165D01*
X44112984Y-57312485D01*
X44150500Y-57172475D01*
X44150500Y-57027525D01*
X44112984Y-56887515D01*
X44112982Y-56887512D01*
X44112982Y-56887510D01*
X44040512Y-56761989D01*
X44040510Y-56761987D01*
X44040509Y-56761985D01*
X43938015Y-56659491D01*
X43938012Y-56659489D01*
X43938010Y-56659487D01*
X43812488Y-56587017D01*
X43812489Y-56587017D01*
X43709761Y-56559491D01*
X43672475Y-56549500D01*
X43527525Y-56549500D01*
X43490239Y-56559491D01*
X43387510Y-56587017D01*
X43261989Y-56659487D01*
X43159487Y-56761989D01*
X43087017Y-56887510D01*
X43049500Y-57027525D01*
X43049500Y-57172474D01*
X43087017Y-57312489D01*
X43159487Y-57438010D01*
X43159489Y-57438012D01*
X43159491Y-57438015D01*
X43261985Y-57540509D01*
X43261987Y-57540510D01*
X43261989Y-57540512D01*
X43301978Y-57563600D01*
X43342919Y-57609070D01*
X43349315Y-57669920D01*
X43338215Y-57698836D01*
X43287016Y-57787513D01*
X43272816Y-57840509D01*
X43249500Y-57927525D01*
X43249500Y-58072475D01*
X43267263Y-58138768D01*
X43287017Y-58212487D01*
X43313214Y-58257861D01*
X43325936Y-58317710D01*
X43301050Y-58373605D01*
X43276979Y-58393098D01*
X43161987Y-58459489D01*
X43059487Y-58561989D01*
X42987017Y-58687510D01*
X42949500Y-58827525D01*
X300500Y-58827525D01*
X300500Y-57327525D01*
X32549500Y-57327525D01*
X32549500Y-57472475D01*
X32572919Y-57559874D01*
X32587017Y-57612489D01*
X32659487Y-57738010D01*
X32659489Y-57738012D01*
X32659491Y-57738015D01*
X32761985Y-57840509D01*
X32761987Y-57840510D01*
X32761989Y-57840512D01*
X32887511Y-57912982D01*
X32887512Y-57912982D01*
X32887515Y-57912984D01*
X33027525Y-57950500D01*
X33027526Y-57950500D01*
X33172474Y-57950500D01*
X33172475Y-57950500D01*
X33312485Y-57912984D01*
X33312487Y-57912982D01*
X33312489Y-57912982D01*
X33438010Y-57840512D01*
X33438010Y-57840511D01*
X33438015Y-57840509D01*
X33540509Y-57738015D01*
X33584405Y-57661985D01*
X33612982Y-57612489D01*
X33612982Y-57612487D01*
X33612984Y-57612485D01*
X33650500Y-57472475D01*
X33650500Y-57327525D01*
X33612984Y-57187515D01*
X33612982Y-57187512D01*
X33612982Y-57187510D01*
X33540512Y-57061989D01*
X33540510Y-57061987D01*
X33540509Y-57061985D01*
X33438015Y-56959491D01*
X33438012Y-56959489D01*
X33438010Y-56959487D01*
X33382650Y-56927525D01*
X40049500Y-56927525D01*
X40049500Y-57072474D01*
X40087017Y-57212489D01*
X40159487Y-57338010D01*
X40159489Y-57338012D01*
X40159491Y-57338015D01*
X40261985Y-57440509D01*
X40261987Y-57440510D01*
X40261989Y-57440512D01*
X40387511Y-57512982D01*
X40387512Y-57512982D01*
X40387515Y-57512984D01*
X40527525Y-57550500D01*
X40527526Y-57550500D01*
X40672474Y-57550500D01*
X40672475Y-57550500D01*
X40812485Y-57512984D01*
X40812487Y-57512982D01*
X40812489Y-57512982D01*
X40938010Y-57440512D01*
X40938010Y-57440511D01*
X40938015Y-57440509D01*
X41040509Y-57338015D01*
X41040512Y-57338010D01*
X41112982Y-57212489D01*
X41112982Y-57212487D01*
X41112984Y-57212485D01*
X41150500Y-57072475D01*
X41150500Y-56927525D01*
X41112984Y-56787515D01*
X41112982Y-56787512D01*
X41112982Y-56787510D01*
X41040512Y-56661989D01*
X41040510Y-56661987D01*
X41040509Y-56661985D01*
X40938015Y-56559491D01*
X40938012Y-56559489D01*
X40938010Y-56559487D01*
X40896004Y-56535235D01*
X40812488Y-56487017D01*
X40812489Y-56487017D01*
X40782896Y-56479087D01*
X40686974Y-56453385D01*
X54899500Y-56453385D01*
X54899500Y-56626614D01*
X54926597Y-56797702D01*
X54926598Y-56797706D01*
X54980123Y-56962438D01*
X54980125Y-56962441D01*
X55036189Y-57072475D01*
X55058768Y-57116788D01*
X55160586Y-57256928D01*
X55283072Y-57379414D01*
X55423212Y-57481232D01*
X55577555Y-57559873D01*
X55577557Y-57559873D01*
X55577558Y-57559874D01*
X55577561Y-57559876D01*
X55742293Y-57613401D01*
X55742297Y-57613402D01*
X55913386Y-57640500D01*
X55913389Y-57640500D01*
X56086614Y-57640500D01*
X56257702Y-57613402D01*
X56257706Y-57613401D01*
X56422438Y-57559876D01*
X56422440Y-57559874D01*
X56422445Y-57559873D01*
X56576788Y-57481232D01*
X56716928Y-57379414D01*
X56839414Y-57256928D01*
X56941232Y-57116788D01*
X57019873Y-56962445D01*
X57019874Y-56962440D01*
X57019876Y-56962438D01*
X57073401Y-56797706D01*
X57073402Y-56797702D01*
X57100500Y-56626614D01*
X57100500Y-56453385D01*
X57073402Y-56282297D01*
X57073401Y-56282293D01*
X57019876Y-56117561D01*
X57019874Y-56117558D01*
X57019873Y-56117557D01*
X57019873Y-56117555D01*
X56941232Y-55963212D01*
X56839414Y-55823072D01*
X56716928Y-55700586D01*
X56576788Y-55598768D01*
X56576787Y-55598767D01*
X56576785Y-55598766D01*
X56422441Y-55520125D01*
X56422438Y-55520123D01*
X56257706Y-55466598D01*
X56257702Y-55466597D01*
X56086614Y-55439500D01*
X56086611Y-55439500D01*
X55913389Y-55439500D01*
X55913386Y-55439500D01*
X55742297Y-55466597D01*
X55742293Y-55466598D01*
X55577561Y-55520123D01*
X55577558Y-55520125D01*
X55423214Y-55598766D01*
X55283073Y-55700585D01*
X55160585Y-55823073D01*
X55058766Y-55963214D01*
X54980125Y-56117558D01*
X54980123Y-56117561D01*
X54926598Y-56282293D01*
X54926597Y-56282297D01*
X54899500Y-56453385D01*
X40686974Y-56453385D01*
X40672475Y-56449500D01*
X40527525Y-56449500D01*
X40465790Y-56466041D01*
X40387510Y-56487017D01*
X40261989Y-56559487D01*
X40159487Y-56661989D01*
X40087017Y-56787510D01*
X40049500Y-56927525D01*
X33382650Y-56927525D01*
X33312488Y-56887017D01*
X33312489Y-56887017D01*
X33282896Y-56879087D01*
X33172475Y-56849500D01*
X33027525Y-56849500D01*
X32965790Y-56866041D01*
X32887510Y-56887017D01*
X32761989Y-56959487D01*
X32659487Y-57061989D01*
X32587017Y-57187510D01*
X32553530Y-57312485D01*
X32549500Y-57327525D01*
X300500Y-57327525D01*
X300500Y-56127525D01*
X20249500Y-56127525D01*
X20249500Y-56272475D01*
X20279087Y-56382896D01*
X20287017Y-56412489D01*
X20359487Y-56538010D01*
X20359489Y-56538012D01*
X20359491Y-56538015D01*
X20461985Y-56640509D01*
X20461987Y-56640510D01*
X20461989Y-56640512D01*
X20587511Y-56712982D01*
X20587512Y-56712982D01*
X20587515Y-56712984D01*
X20727525Y-56750500D01*
X20727526Y-56750500D01*
X20872474Y-56750500D01*
X20872475Y-56750500D01*
X21012485Y-56712984D01*
X21012487Y-56712982D01*
X21012489Y-56712982D01*
X21138010Y-56640512D01*
X21138010Y-56640511D01*
X21138015Y-56640509D01*
X21240509Y-56538015D01*
X21269953Y-56487017D01*
X21312982Y-56412489D01*
X21312982Y-56412487D01*
X21312984Y-56412485D01*
X21350500Y-56272475D01*
X21350500Y-56127525D01*
X21312984Y-55987515D01*
X21312982Y-55987512D01*
X21312982Y-55987510D01*
X21240512Y-55861989D01*
X21240510Y-55861987D01*
X21240509Y-55861985D01*
X21138015Y-55759491D01*
X21138012Y-55759489D01*
X21138010Y-55759487D01*
X21012488Y-55687017D01*
X21012489Y-55687017D01*
X20982896Y-55679087D01*
X20872475Y-55649500D01*
X20727525Y-55649500D01*
X20665790Y-55666041D01*
X20587510Y-55687017D01*
X20461989Y-55759487D01*
X20359487Y-55861989D01*
X20287017Y-55987510D01*
X20287016Y-55987515D01*
X20249500Y-56127525D01*
X300500Y-56127525D01*
X300500Y-53527525D01*
X15249500Y-53527525D01*
X15249500Y-53672475D01*
X15279087Y-53782896D01*
X15287017Y-53812489D01*
X15359487Y-53938010D01*
X15359489Y-53938012D01*
X15359491Y-53938015D01*
X15461985Y-54040509D01*
X15461987Y-54040510D01*
X15461989Y-54040512D01*
X15587511Y-54112982D01*
X15587512Y-54112982D01*
X15587515Y-54112984D01*
X15727525Y-54150500D01*
X15727526Y-54150500D01*
X15872474Y-54150500D01*
X15872475Y-54150500D01*
X16012485Y-54112984D01*
X16012487Y-54112982D01*
X16012489Y-54112982D01*
X16138010Y-54040512D01*
X16138010Y-54040511D01*
X16138015Y-54040509D01*
X16240509Y-53938015D01*
X16269953Y-53887017D01*
X16312982Y-53812489D01*
X16312982Y-53812487D01*
X16312984Y-53812485D01*
X16335749Y-53727525D01*
X22849500Y-53727525D01*
X22849500Y-53872475D01*
X22867060Y-53938010D01*
X22887017Y-54012489D01*
X22959487Y-54138010D01*
X22959489Y-54138012D01*
X22959491Y-54138015D01*
X23061985Y-54240509D01*
X23061987Y-54240510D01*
X23061989Y-54240512D01*
X23187511Y-54312982D01*
X23187512Y-54312982D01*
X23187515Y-54312984D01*
X23327525Y-54350500D01*
X23327526Y-54350500D01*
X23472474Y-54350500D01*
X23472475Y-54350500D01*
X23558218Y-54327525D01*
X37149500Y-54327525D01*
X37149500Y-54472475D01*
X37179087Y-54582896D01*
X37187017Y-54612489D01*
X37259487Y-54738010D01*
X37259489Y-54738012D01*
X37259491Y-54738015D01*
X37361985Y-54840509D01*
X37361987Y-54840510D01*
X37361989Y-54840512D01*
X37487511Y-54912982D01*
X37487512Y-54912982D01*
X37487515Y-54912984D01*
X37627525Y-54950500D01*
X37627526Y-54950500D01*
X37772474Y-54950500D01*
X37772475Y-54950500D01*
X37912485Y-54912984D01*
X37912487Y-54912982D01*
X37912489Y-54912982D01*
X38038010Y-54840512D01*
X38038010Y-54840511D01*
X38038015Y-54840509D01*
X38050999Y-54827525D01*
X47249500Y-54827525D01*
X47249500Y-54972474D01*
X47287017Y-55112489D01*
X47359487Y-55238010D01*
X47359489Y-55238012D01*
X47359491Y-55238015D01*
X47461985Y-55340509D01*
X47461987Y-55340510D01*
X47461989Y-55340512D01*
X47587511Y-55412982D01*
X47587512Y-55412982D01*
X47587515Y-55412984D01*
X47727525Y-55450500D01*
X47727526Y-55450500D01*
X47872474Y-55450500D01*
X47872475Y-55450500D01*
X48012485Y-55412984D01*
X48012487Y-55412982D01*
X48012489Y-55412982D01*
X48138010Y-55340512D01*
X48138010Y-55340511D01*
X48138015Y-55340509D01*
X48240509Y-55238015D01*
X48312984Y-55112485D01*
X48350500Y-54972475D01*
X48350500Y-54827525D01*
X48312984Y-54687515D01*
X48312982Y-54687512D01*
X48312982Y-54687510D01*
X48240512Y-54561989D01*
X48240510Y-54561987D01*
X48240509Y-54561985D01*
X48138015Y-54459491D01*
X48138012Y-54459489D01*
X48138010Y-54459487D01*
X48012488Y-54387017D01*
X48012489Y-54387017D01*
X47982896Y-54379087D01*
X47872475Y-54349500D01*
X47727525Y-54349500D01*
X47665790Y-54366041D01*
X47587510Y-54387017D01*
X47461989Y-54459487D01*
X47359487Y-54561989D01*
X47287017Y-54687510D01*
X47249500Y-54827525D01*
X38050999Y-54827525D01*
X38140509Y-54738015D01*
X38212984Y-54612485D01*
X38250500Y-54472475D01*
X38250500Y-54327525D01*
X38212984Y-54187515D01*
X38140509Y-54061985D01*
X38106049Y-54027525D01*
X42049500Y-54027525D01*
X42049500Y-54172475D01*
X42056876Y-54200001D01*
X42087017Y-54312489D01*
X42159487Y-54438010D01*
X42159489Y-54438012D01*
X42159491Y-54438015D01*
X42261985Y-54540509D01*
X42261987Y-54540510D01*
X42261989Y-54540512D01*
X42387511Y-54612982D01*
X42387512Y-54612982D01*
X42387515Y-54612984D01*
X42527525Y-54650500D01*
X42527526Y-54650500D01*
X42672474Y-54650500D01*
X42672475Y-54650500D01*
X42812485Y-54612984D01*
X42812487Y-54612982D01*
X42812489Y-54612982D01*
X42938010Y-54540512D01*
X42938010Y-54540511D01*
X42938015Y-54540509D01*
X43040509Y-54438015D01*
X43069953Y-54387017D01*
X43112982Y-54312489D01*
X43112982Y-54312487D01*
X43112984Y-54312485D01*
X43150500Y-54172475D01*
X43150500Y-54027525D01*
X43112984Y-53887515D01*
X43112982Y-53887512D01*
X43112982Y-53887510D01*
X43040512Y-53761989D01*
X43040510Y-53761987D01*
X43040509Y-53761985D01*
X42938015Y-53659491D01*
X42938012Y-53659489D01*
X42938010Y-53659487D01*
X42812488Y-53587017D01*
X42812489Y-53587017D01*
X42758214Y-53572474D01*
X42672475Y-53549500D01*
X42527525Y-53549500D01*
X42465790Y-53566041D01*
X42387510Y-53587017D01*
X42261989Y-53659487D01*
X42159487Y-53761989D01*
X42087017Y-53887510D01*
X42073486Y-53938010D01*
X42049500Y-54027525D01*
X38106049Y-54027525D01*
X38038015Y-53959491D01*
X38038012Y-53959489D01*
X38038010Y-53959487D01*
X37912488Y-53887017D01*
X37912489Y-53887017D01*
X37858214Y-53872474D01*
X37772475Y-53849500D01*
X37627525Y-53849500D01*
X37565790Y-53866041D01*
X37487510Y-53887017D01*
X37361989Y-53959487D01*
X37259487Y-54061989D01*
X37187017Y-54187510D01*
X37183670Y-54200001D01*
X37149500Y-54327525D01*
X23558218Y-54327525D01*
X23612485Y-54312984D01*
X23612487Y-54312982D01*
X23612489Y-54312982D01*
X23738008Y-54240513D01*
X23738007Y-54240513D01*
X23738015Y-54240509D01*
X23840509Y-54138015D01*
X23879468Y-54070536D01*
X23912982Y-54012489D01*
X23912982Y-54012487D01*
X23912984Y-54012485D01*
X23950500Y-53872475D01*
X23950500Y-53727525D01*
X23912984Y-53587515D01*
X23912696Y-53587017D01*
X23845446Y-53470536D01*
X23840511Y-53461989D01*
X23840509Y-53461985D01*
X23806049Y-53427525D01*
X27449500Y-53427525D01*
X27449500Y-53572475D01*
X27470407Y-53650500D01*
X27487017Y-53712489D01*
X27559487Y-53838010D01*
X27559489Y-53838012D01*
X27559491Y-53838015D01*
X27661985Y-53940509D01*
X27661987Y-53940510D01*
X27661989Y-53940512D01*
X27787511Y-54012982D01*
X27787512Y-54012982D01*
X27787515Y-54012984D01*
X27927525Y-54050500D01*
X27927526Y-54050500D01*
X28072474Y-54050500D01*
X28072475Y-54050500D01*
X28212485Y-54012984D01*
X28212487Y-54012982D01*
X28212489Y-54012982D01*
X28338010Y-53940512D01*
X28338010Y-53940511D01*
X28338015Y-53940509D01*
X28440509Y-53838015D01*
X28440512Y-53838010D01*
X28512982Y-53712489D01*
X28512982Y-53712487D01*
X28512984Y-53712485D01*
X28550500Y-53572475D01*
X28550500Y-53427525D01*
X28512984Y-53287515D01*
X28512982Y-53287512D01*
X28512982Y-53287510D01*
X28440512Y-53161989D01*
X28440510Y-53161987D01*
X28440509Y-53161985D01*
X28338015Y-53059491D01*
X28338012Y-53059489D01*
X28338010Y-53059487D01*
X28282650Y-53027525D01*
X36549500Y-53027525D01*
X36549500Y-53172475D01*
X36579087Y-53282896D01*
X36587017Y-53312489D01*
X36659487Y-53438010D01*
X36659489Y-53438012D01*
X36659491Y-53438015D01*
X36761985Y-53540509D01*
X36761987Y-53540510D01*
X36761989Y-53540512D01*
X36887511Y-53612982D01*
X36887512Y-53612982D01*
X36887515Y-53612984D01*
X37027525Y-53650500D01*
X37027526Y-53650500D01*
X37172474Y-53650500D01*
X37172475Y-53650500D01*
X37312485Y-53612984D01*
X37312487Y-53612982D01*
X37312489Y-53612982D01*
X37438010Y-53540512D01*
X37438010Y-53540511D01*
X37438015Y-53540509D01*
X37540509Y-53438015D01*
X37540512Y-53438010D01*
X37612982Y-53312489D01*
X37612982Y-53312487D01*
X37612984Y-53312485D01*
X37650500Y-53172475D01*
X37650500Y-53027525D01*
X38349500Y-53027525D01*
X38349500Y-53172475D01*
X38379087Y-53282896D01*
X38387017Y-53312489D01*
X38459487Y-53438010D01*
X38459489Y-53438012D01*
X38459491Y-53438015D01*
X38561985Y-53540509D01*
X38561987Y-53540510D01*
X38561989Y-53540512D01*
X38687511Y-53612982D01*
X38687512Y-53612982D01*
X38687515Y-53612984D01*
X38827525Y-53650500D01*
X38827526Y-53650500D01*
X38972474Y-53650500D01*
X38972475Y-53650500D01*
X39112485Y-53612984D01*
X39112487Y-53612982D01*
X39112489Y-53612982D01*
X39238010Y-53540512D01*
X39238010Y-53540511D01*
X39238015Y-53540509D01*
X39340509Y-53438015D01*
X39364264Y-53396869D01*
X39409733Y-53355930D01*
X39470583Y-53349534D01*
X39523571Y-53380127D01*
X39535734Y-53396867D01*
X39559491Y-53438015D01*
X39661985Y-53540509D01*
X39661987Y-53540510D01*
X39661989Y-53540512D01*
X39787511Y-53612982D01*
X39787512Y-53612982D01*
X39787515Y-53612984D01*
X39927525Y-53650500D01*
X39927526Y-53650500D01*
X40072474Y-53650500D01*
X40072475Y-53650500D01*
X40212485Y-53612984D01*
X40212487Y-53612982D01*
X40212489Y-53612982D01*
X40338010Y-53540512D01*
X40338010Y-53540511D01*
X40338015Y-53540509D01*
X40440509Y-53438015D01*
X40440512Y-53438010D01*
X40504301Y-53327525D01*
X48849500Y-53327525D01*
X48849500Y-53472475D01*
X48864251Y-53527525D01*
X48887017Y-53612489D01*
X48959487Y-53738010D01*
X48959489Y-53738012D01*
X48959491Y-53738015D01*
X49061985Y-53840509D01*
X49061987Y-53840510D01*
X49061989Y-53840512D01*
X49187511Y-53912982D01*
X49187512Y-53912982D01*
X49187515Y-53912984D01*
X49327525Y-53950500D01*
X49327526Y-53950500D01*
X49472474Y-53950500D01*
X49472475Y-53950500D01*
X49612485Y-53912984D01*
X49612487Y-53912982D01*
X49612489Y-53912982D01*
X49738010Y-53840512D01*
X49738010Y-53840511D01*
X49738015Y-53840509D01*
X49840509Y-53738015D01*
X49840512Y-53738010D01*
X49912982Y-53612489D01*
X49912982Y-53612487D01*
X49912984Y-53612485D01*
X49950500Y-53472475D01*
X49950500Y-53327525D01*
X49912984Y-53187515D01*
X49865460Y-53105202D01*
X54850000Y-53105202D01*
X54850000Y-53799999D01*
X54850001Y-53800000D01*
X55538120Y-53800000D01*
X55534075Y-53807007D01*
X55500000Y-53934174D01*
X55500000Y-54065826D01*
X55534075Y-54192993D01*
X55538120Y-54200000D01*
X54850002Y-54200000D01*
X54850001Y-54200001D01*
X54850001Y-54894791D01*
X54852909Y-54919874D01*
X54898213Y-55022477D01*
X54977522Y-55101786D01*
X55080127Y-55147090D01*
X55105203Y-55149999D01*
X55799998Y-55149999D01*
X55800000Y-55149998D01*
X55800000Y-54461879D01*
X55807007Y-54465925D01*
X55934174Y-54500000D01*
X56065826Y-54500000D01*
X56192993Y-54465925D01*
X56200000Y-54461879D01*
X56200000Y-55149998D01*
X56200001Y-55149999D01*
X56894790Y-55149999D01*
X56894791Y-55149998D01*
X56919874Y-55147090D01*
X57022477Y-55101786D01*
X57101786Y-55022477D01*
X57147090Y-54919872D01*
X57149999Y-54894797D01*
X57150000Y-54894795D01*
X57150000Y-54200001D01*
X57149999Y-54200000D01*
X56461880Y-54200000D01*
X56465925Y-54192993D01*
X56500000Y-54065826D01*
X56500000Y-53934174D01*
X56465925Y-53807007D01*
X56461880Y-53800000D01*
X57149998Y-53800000D01*
X57149999Y-53799999D01*
X57149999Y-53105210D01*
X57149998Y-53105208D01*
X57147090Y-53080125D01*
X57101786Y-52977522D01*
X57022477Y-52898213D01*
X56919872Y-52852909D01*
X56894797Y-52850000D01*
X56200001Y-52850000D01*
X56200000Y-52850001D01*
X56200000Y-53538120D01*
X56192993Y-53534075D01*
X56065826Y-53500000D01*
X55934174Y-53500000D01*
X55807007Y-53534075D01*
X55800000Y-53538120D01*
X55800000Y-52850001D01*
X55799999Y-52850000D01*
X55105210Y-52850000D01*
X55105207Y-52850001D01*
X55080125Y-52852909D01*
X54977522Y-52898213D01*
X54898213Y-52977522D01*
X54852909Y-53080127D01*
X54850000Y-53105202D01*
X49865460Y-53105202D01*
X49840509Y-53061985D01*
X49738015Y-52959491D01*
X49738012Y-52959489D01*
X49738010Y-52959487D01*
X49612488Y-52887017D01*
X49612489Y-52887017D01*
X49485197Y-52852909D01*
X49472475Y-52849500D01*
X49327525Y-52849500D01*
X49314803Y-52852909D01*
X49187510Y-52887017D01*
X49061989Y-52959487D01*
X48959487Y-53061989D01*
X48887017Y-53187510D01*
X48861005Y-53284587D01*
X48849500Y-53327525D01*
X40504301Y-53327525D01*
X40512982Y-53312489D01*
X40512982Y-53312487D01*
X40512984Y-53312485D01*
X40550500Y-53172475D01*
X40550500Y-53027525D01*
X40512984Y-52887515D01*
X40512982Y-52887512D01*
X40512982Y-52887510D01*
X40440512Y-52761989D01*
X40440510Y-52761987D01*
X40440509Y-52761985D01*
X40338015Y-52659491D01*
X40338012Y-52659489D01*
X40338010Y-52659487D01*
X40212488Y-52587017D01*
X40212489Y-52587017D01*
X40182896Y-52579087D01*
X40072475Y-52549500D01*
X39927525Y-52549500D01*
X39880931Y-52561985D01*
X39787510Y-52587017D01*
X39661989Y-52659487D01*
X39559489Y-52761987D01*
X39535736Y-52803129D01*
X39490266Y-52844069D01*
X39429416Y-52850464D01*
X39376428Y-52819871D01*
X39364264Y-52803129D01*
X39340510Y-52761987D01*
X39340509Y-52761985D01*
X39238015Y-52659491D01*
X39238012Y-52659489D01*
X39238010Y-52659487D01*
X39112488Y-52587017D01*
X39112489Y-52587017D01*
X39082896Y-52579087D01*
X38972475Y-52549500D01*
X38827525Y-52549500D01*
X38780931Y-52561985D01*
X38687510Y-52587017D01*
X38561989Y-52659487D01*
X38459487Y-52761989D01*
X38387017Y-52887510D01*
X38362898Y-52977522D01*
X38349500Y-53027525D01*
X37650500Y-53027525D01*
X37612984Y-52887515D01*
X37612982Y-52887512D01*
X37612982Y-52887510D01*
X37540512Y-52761989D01*
X37540510Y-52761987D01*
X37540509Y-52761985D01*
X37438015Y-52659491D01*
X37438012Y-52659489D01*
X37438010Y-52659487D01*
X37312488Y-52587017D01*
X37312489Y-52587017D01*
X37282896Y-52579087D01*
X37172475Y-52549500D01*
X37027525Y-52549500D01*
X36980931Y-52561985D01*
X36887510Y-52587017D01*
X36761989Y-52659487D01*
X36659487Y-52761989D01*
X36587017Y-52887510D01*
X36562898Y-52977522D01*
X36549500Y-53027525D01*
X28282650Y-53027525D01*
X28212488Y-52987017D01*
X28212489Y-52987017D01*
X28177053Y-52977522D01*
X28072475Y-52949500D01*
X27927525Y-52949500D01*
X27890239Y-52959491D01*
X27787510Y-52987017D01*
X27661989Y-53059487D01*
X27559487Y-53161989D01*
X27487017Y-53287510D01*
X27476295Y-53327525D01*
X27449500Y-53427525D01*
X23806049Y-53427525D01*
X23738015Y-53359491D01*
X23738012Y-53359489D01*
X23738010Y-53359487D01*
X23612488Y-53287017D01*
X23612489Y-53287017D01*
X23582896Y-53279087D01*
X23472475Y-53249500D01*
X23327525Y-53249500D01*
X23280931Y-53261985D01*
X23187510Y-53287017D01*
X23061989Y-53359487D01*
X22959487Y-53461989D01*
X22887017Y-53587510D01*
X22870139Y-53650500D01*
X22849500Y-53727525D01*
X16335749Y-53727525D01*
X16350500Y-53672475D01*
X16350500Y-53527525D01*
X16312984Y-53387515D01*
X16312982Y-53387512D01*
X16312982Y-53387510D01*
X16253559Y-53284587D01*
X16240837Y-53224739D01*
X16265723Y-53168843D01*
X16313668Y-53139462D01*
X16412485Y-53112984D01*
X16412487Y-53112982D01*
X16412489Y-53112982D01*
X16538010Y-53040512D01*
X16538010Y-53040511D01*
X16538015Y-53040509D01*
X16640509Y-52938015D01*
X16669953Y-52887017D01*
X16704301Y-52827525D01*
X17049500Y-52827525D01*
X17049500Y-52972475D01*
X17078345Y-53080125D01*
X17087017Y-53112489D01*
X17159487Y-53238010D01*
X17159489Y-53238012D01*
X17159491Y-53238015D01*
X17261985Y-53340509D01*
X17261987Y-53340510D01*
X17261989Y-53340512D01*
X17387511Y-53412982D01*
X17387512Y-53412982D01*
X17387515Y-53412984D01*
X17527525Y-53450500D01*
X17527526Y-53450500D01*
X17672474Y-53450500D01*
X17672475Y-53450500D01*
X17812485Y-53412984D01*
X17812487Y-53412982D01*
X17812489Y-53412982D01*
X17938010Y-53340512D01*
X17938010Y-53340511D01*
X17938015Y-53340509D01*
X18040509Y-53238015D01*
X18069668Y-53187510D01*
X18112982Y-53112489D01*
X18112982Y-53112487D01*
X18112984Y-53112485D01*
X18150500Y-52972475D01*
X18150500Y-52827525D01*
X18123705Y-52727525D01*
X19549500Y-52727525D01*
X19549500Y-52872475D01*
X19553397Y-52887017D01*
X19587017Y-53012489D01*
X19659487Y-53138010D01*
X19659489Y-53138012D01*
X19659491Y-53138015D01*
X19761985Y-53240509D01*
X19761987Y-53240510D01*
X19761989Y-53240512D01*
X19887511Y-53312982D01*
X19887512Y-53312982D01*
X19887515Y-53312984D01*
X20027525Y-53350500D01*
X20027526Y-53350500D01*
X20172474Y-53350500D01*
X20172475Y-53350500D01*
X20312485Y-53312984D01*
X20312487Y-53312982D01*
X20312489Y-53312982D01*
X20438010Y-53240512D01*
X20438010Y-53240511D01*
X20438015Y-53240509D01*
X20540509Y-53138015D01*
X20554962Y-53112982D01*
X20612982Y-53012489D01*
X20612982Y-53012487D01*
X20612984Y-53012485D01*
X20650500Y-52872475D01*
X20650500Y-52727525D01*
X20612984Y-52587515D01*
X20612982Y-52587512D01*
X20612982Y-52587510D01*
X20540512Y-52461989D01*
X20540510Y-52461987D01*
X20540509Y-52461985D01*
X20438015Y-52359491D01*
X20438012Y-52359489D01*
X20438010Y-52359487D01*
X20312488Y-52287017D01*
X20312489Y-52287017D01*
X20282896Y-52279087D01*
X20172475Y-52249500D01*
X20027525Y-52249500D01*
X19980931Y-52261985D01*
X19887510Y-52287017D01*
X19761989Y-52359487D01*
X19659487Y-52461989D01*
X19587017Y-52587510D01*
X19587016Y-52587515D01*
X19549500Y-52727525D01*
X18123705Y-52727525D01*
X18112984Y-52687515D01*
X18112982Y-52687512D01*
X18112982Y-52687510D01*
X18040512Y-52561989D01*
X18040510Y-52561987D01*
X18040509Y-52561985D01*
X17938015Y-52459491D01*
X17938012Y-52459489D01*
X17938010Y-52459487D01*
X17812488Y-52387017D01*
X17812489Y-52387017D01*
X17709761Y-52359491D01*
X17672475Y-52349500D01*
X17527525Y-52349500D01*
X17490239Y-52359491D01*
X17387510Y-52387017D01*
X17261989Y-52459487D01*
X17159487Y-52561989D01*
X17087017Y-52687510D01*
X17058105Y-52795412D01*
X17049500Y-52827525D01*
X16704301Y-52827525D01*
X16712982Y-52812489D01*
X16712983Y-52812486D01*
X16712984Y-52812485D01*
X16750500Y-52672475D01*
X16750500Y-52527525D01*
X16712984Y-52387515D01*
X16712982Y-52387512D01*
X16712982Y-52387510D01*
X16640512Y-52261989D01*
X16640510Y-52261987D01*
X16640509Y-52261985D01*
X16548525Y-52170001D01*
X16520750Y-52115487D01*
X16530321Y-52055055D01*
X16548524Y-52029999D01*
X16640509Y-51938015D01*
X16646565Y-51927525D01*
X27149500Y-51927525D01*
X27149500Y-52072475D01*
X27161025Y-52115487D01*
X27187017Y-52212489D01*
X27259487Y-52338010D01*
X27259489Y-52338012D01*
X27259491Y-52338015D01*
X27361985Y-52440509D01*
X27361987Y-52440510D01*
X27361989Y-52440512D01*
X27487511Y-52512982D01*
X27487512Y-52512982D01*
X27487515Y-52512984D01*
X27627525Y-52550500D01*
X27627526Y-52550500D01*
X27772474Y-52550500D01*
X27772475Y-52550500D01*
X27912485Y-52512984D01*
X27912487Y-52512982D01*
X27912489Y-52512982D01*
X28038010Y-52440512D01*
X28038010Y-52440511D01*
X28038015Y-52440509D01*
X28140509Y-52338015D01*
X28169953Y-52287017D01*
X28212982Y-52212489D01*
X28212982Y-52212487D01*
X28212984Y-52212485D01*
X28250500Y-52072475D01*
X28250500Y-51927525D01*
X28849500Y-51927525D01*
X28849500Y-52072475D01*
X28861025Y-52115487D01*
X28887017Y-52212489D01*
X28959487Y-52338010D01*
X28959489Y-52338012D01*
X28959491Y-52338015D01*
X29061985Y-52440509D01*
X29061987Y-52440510D01*
X29061989Y-52440512D01*
X29187511Y-52512982D01*
X29187512Y-52512982D01*
X29187515Y-52512984D01*
X29327525Y-52550500D01*
X29327526Y-52550500D01*
X29472474Y-52550500D01*
X29472475Y-52550500D01*
X29612485Y-52512984D01*
X29612487Y-52512982D01*
X29612489Y-52512982D01*
X29738010Y-52440512D01*
X29738010Y-52440511D01*
X29738015Y-52440509D01*
X29840509Y-52338015D01*
X29869953Y-52287017D01*
X29912982Y-52212489D01*
X29912982Y-52212487D01*
X29912984Y-52212485D01*
X29950500Y-52072475D01*
X29950500Y-51927525D01*
X29912984Y-51787515D01*
X29912982Y-51787512D01*
X29912982Y-51787510D01*
X29840512Y-51661989D01*
X29840510Y-51661987D01*
X29840509Y-51661985D01*
X29738015Y-51559491D01*
X29738012Y-51559489D01*
X29738010Y-51559487D01*
X29612488Y-51487017D01*
X29612489Y-51487017D01*
X29506600Y-51458644D01*
X29472475Y-51449500D01*
X29327525Y-51449500D01*
X29293400Y-51458644D01*
X29187510Y-51487017D01*
X29061989Y-51559487D01*
X28959487Y-51661989D01*
X28887017Y-51787510D01*
X28887016Y-51787515D01*
X28849500Y-51927525D01*
X28250500Y-51927525D01*
X28212984Y-51787515D01*
X28212982Y-51787512D01*
X28212982Y-51787510D01*
X28140512Y-51661989D01*
X28140510Y-51661987D01*
X28140509Y-51661985D01*
X28038015Y-51559491D01*
X28038012Y-51559489D01*
X28038010Y-51559487D01*
X27912488Y-51487017D01*
X27912489Y-51487017D01*
X27806600Y-51458644D01*
X27772475Y-51449500D01*
X27627525Y-51449500D01*
X27593400Y-51458644D01*
X27487510Y-51487017D01*
X27361989Y-51559487D01*
X27259487Y-51661989D01*
X27187017Y-51787510D01*
X27187016Y-51787515D01*
X27149500Y-51927525D01*
X16646565Y-51927525D01*
X16661030Y-51902471D01*
X16678892Y-51871535D01*
X16699388Y-51836033D01*
X16712984Y-51812485D01*
X16750500Y-51672475D01*
X16750500Y-51527525D01*
X16712984Y-51387515D01*
X16712982Y-51387512D01*
X16712982Y-51387510D01*
X16640512Y-51261989D01*
X16640510Y-51261987D01*
X16640509Y-51261985D01*
X16538015Y-51159491D01*
X16538012Y-51159489D01*
X16538010Y-51159487D01*
X16412488Y-51087017D01*
X16412489Y-51087017D01*
X16358214Y-51072474D01*
X16272475Y-51049500D01*
X16127525Y-51049500D01*
X16065790Y-51066041D01*
X15987510Y-51087017D01*
X15861989Y-51159487D01*
X15759487Y-51261989D01*
X15687017Y-51387510D01*
X15649500Y-51527525D01*
X15649500Y-51672474D01*
X15687017Y-51812489D01*
X15759487Y-51938010D01*
X15759489Y-51938012D01*
X15759491Y-51938015D01*
X15851474Y-52029998D01*
X15879250Y-52084513D01*
X15869679Y-52144945D01*
X15851475Y-52170000D01*
X15771976Y-52249500D01*
X15759488Y-52261988D01*
X15759487Y-52261989D01*
X15687017Y-52387510D01*
X15649500Y-52527525D01*
X15649500Y-52672474D01*
X15687016Y-52812486D01*
X15746441Y-52915412D01*
X15759162Y-52975260D01*
X15734275Y-53031156D01*
X15686328Y-53060538D01*
X15587515Y-53087015D01*
X15587511Y-53087017D01*
X15461989Y-53159487D01*
X15359487Y-53261989D01*
X15287017Y-53387510D01*
X15264770Y-53470536D01*
X15249500Y-53527525D01*
X300500Y-53527525D01*
X300500Y-49927525D01*
X27249500Y-49927525D01*
X27249500Y-50072475D01*
X27279087Y-50182896D01*
X27287017Y-50212489D01*
X27359487Y-50338010D01*
X27359489Y-50338012D01*
X27359491Y-50338015D01*
X27461985Y-50440509D01*
X27461987Y-50440510D01*
X27461989Y-50440512D01*
X27587511Y-50512982D01*
X27587512Y-50512982D01*
X27587515Y-50512984D01*
X27727525Y-50550500D01*
X27727526Y-50550500D01*
X27872474Y-50550500D01*
X27872475Y-50550500D01*
X28012485Y-50512984D01*
X28012487Y-50512982D01*
X28012489Y-50512982D01*
X28138010Y-50440512D01*
X28138010Y-50440511D01*
X28138015Y-50440509D01*
X28240509Y-50338015D01*
X28240512Y-50338010D01*
X28312982Y-50212489D01*
X28312982Y-50212487D01*
X28312984Y-50212485D01*
X28350500Y-50072475D01*
X28350500Y-49927525D01*
X31249500Y-49927525D01*
X31249500Y-50072475D01*
X31279087Y-50182896D01*
X31287017Y-50212489D01*
X31359487Y-50338010D01*
X31359489Y-50338012D01*
X31359491Y-50338015D01*
X31461985Y-50440509D01*
X31461987Y-50440510D01*
X31461989Y-50440512D01*
X31587511Y-50512982D01*
X31587512Y-50512982D01*
X31587515Y-50512984D01*
X31727525Y-50550500D01*
X31727526Y-50550500D01*
X31872474Y-50550500D01*
X31872475Y-50550500D01*
X32012485Y-50512984D01*
X32012487Y-50512982D01*
X32012489Y-50512982D01*
X32138010Y-50440512D01*
X32138010Y-50440511D01*
X32138015Y-50440509D01*
X32150999Y-50427525D01*
X41249500Y-50427525D01*
X41249500Y-50572475D01*
X41279087Y-50682896D01*
X41287017Y-50712489D01*
X41359487Y-50838010D01*
X41359489Y-50838012D01*
X41359491Y-50838015D01*
X41461985Y-50940509D01*
X41461987Y-50940510D01*
X41461989Y-50940512D01*
X41587511Y-51012982D01*
X41587512Y-51012982D01*
X41587515Y-51012984D01*
X41727525Y-51050500D01*
X41727526Y-51050500D01*
X41872474Y-51050500D01*
X41872475Y-51050500D01*
X42012485Y-51012984D01*
X42012487Y-51012982D01*
X42012489Y-51012982D01*
X42138010Y-50940512D01*
X42138010Y-50940511D01*
X42138015Y-50940509D01*
X42150999Y-50927525D01*
X45349500Y-50927525D01*
X45349500Y-51072475D01*
X45353397Y-51087017D01*
X45387017Y-51212489D01*
X45459487Y-51338010D01*
X45459489Y-51338012D01*
X45459491Y-51338015D01*
X45561985Y-51440509D01*
X45652478Y-51492755D01*
X45693418Y-51538224D01*
X45699814Y-51599074D01*
X45672983Y-51648493D01*
X45659487Y-51661989D01*
X45587017Y-51787510D01*
X45587016Y-51787515D01*
X45549500Y-51927525D01*
X45549500Y-52072475D01*
X45561025Y-52115487D01*
X45587017Y-52212489D01*
X45659487Y-52338010D01*
X45659489Y-52338012D01*
X45659491Y-52338015D01*
X45761985Y-52440509D01*
X45761987Y-52440510D01*
X45761989Y-52440512D01*
X45887511Y-52512982D01*
X45887512Y-52512982D01*
X45887515Y-52512984D01*
X46027525Y-52550500D01*
X46027526Y-52550500D01*
X46172474Y-52550500D01*
X46172475Y-52550500D01*
X46312485Y-52512984D01*
X46312487Y-52512982D01*
X46312489Y-52512982D01*
X46438010Y-52440512D01*
X46438010Y-52440511D01*
X46438015Y-52440509D01*
X46540509Y-52338015D01*
X46569953Y-52287017D01*
X46612982Y-52212489D01*
X46612982Y-52212487D01*
X46612984Y-52212485D01*
X46650500Y-52072475D01*
X46650500Y-51927525D01*
X49149500Y-51927525D01*
X49149500Y-52072475D01*
X49161025Y-52115487D01*
X49187017Y-52212489D01*
X49259487Y-52338010D01*
X49259489Y-52338012D01*
X49259491Y-52338015D01*
X49361985Y-52440509D01*
X49361987Y-52440510D01*
X49361989Y-52440512D01*
X49487511Y-52512982D01*
X49487512Y-52512982D01*
X49487515Y-52512984D01*
X49627525Y-52550500D01*
X49627526Y-52550500D01*
X49772474Y-52550500D01*
X49772475Y-52550500D01*
X49912485Y-52512984D01*
X49912487Y-52512982D01*
X49912489Y-52512982D01*
X50038010Y-52440512D01*
X50038010Y-52440511D01*
X50038015Y-52440509D01*
X50140509Y-52338015D01*
X50169953Y-52287017D01*
X50212982Y-52212489D01*
X50212982Y-52212487D01*
X50212984Y-52212485D01*
X50250500Y-52072475D01*
X50250500Y-51927525D01*
X50212984Y-51787515D01*
X50212982Y-51787512D01*
X50212982Y-51787510D01*
X50140512Y-51661989D01*
X50140510Y-51661987D01*
X50140509Y-51661985D01*
X50038015Y-51559491D01*
X50038012Y-51559489D01*
X50038010Y-51559487D01*
X49912488Y-51487017D01*
X49912489Y-51487017D01*
X49806600Y-51458644D01*
X49772475Y-51449500D01*
X49627525Y-51449500D01*
X49593400Y-51458644D01*
X49487510Y-51487017D01*
X49361989Y-51559487D01*
X49259487Y-51661989D01*
X49187017Y-51787510D01*
X49187016Y-51787515D01*
X49149500Y-51927525D01*
X46650500Y-51927525D01*
X46612984Y-51787515D01*
X46612982Y-51787512D01*
X46612982Y-51787510D01*
X46540512Y-51661989D01*
X46540510Y-51661987D01*
X46540509Y-51661985D01*
X46438015Y-51559491D01*
X46438012Y-51559489D01*
X46438010Y-51559487D01*
X46347522Y-51507244D01*
X46306581Y-51461775D01*
X46300185Y-51400925D01*
X46327017Y-51351506D01*
X46340509Y-51338015D01*
X46412982Y-51212489D01*
X46414264Y-51210269D01*
X46459733Y-51169328D01*
X46520583Y-51162932D01*
X46573571Y-51193525D01*
X46585736Y-51210269D01*
X46659487Y-51338010D01*
X46659489Y-51338012D01*
X46659491Y-51338015D01*
X46761985Y-51440509D01*
X46761987Y-51440510D01*
X46761989Y-51440512D01*
X46887511Y-51512982D01*
X46887512Y-51512982D01*
X46887515Y-51512984D01*
X47027525Y-51550500D01*
X47027526Y-51550500D01*
X47172474Y-51550500D01*
X47172475Y-51550500D01*
X47312485Y-51512984D01*
X47312487Y-51512982D01*
X47312489Y-51512982D01*
X47438010Y-51440512D01*
X47438010Y-51440511D01*
X47438015Y-51440509D01*
X47540509Y-51338015D01*
X47612984Y-51212485D01*
X47650500Y-51072475D01*
X47650500Y-50927525D01*
X48049500Y-50927525D01*
X48049500Y-51072475D01*
X48053397Y-51087017D01*
X48087017Y-51212489D01*
X48159487Y-51338010D01*
X48159489Y-51338012D01*
X48159491Y-51338015D01*
X48261985Y-51440509D01*
X48261987Y-51440510D01*
X48261989Y-51440512D01*
X48387511Y-51512982D01*
X48387512Y-51512982D01*
X48387515Y-51512984D01*
X48527525Y-51550500D01*
X48527526Y-51550500D01*
X48672474Y-51550500D01*
X48672475Y-51550500D01*
X48812485Y-51512984D01*
X48812487Y-51512982D01*
X48812489Y-51512982D01*
X48938010Y-51440512D01*
X48938010Y-51440511D01*
X48938015Y-51440509D01*
X49040509Y-51338015D01*
X49112984Y-51212485D01*
X49150500Y-51072475D01*
X49150500Y-50927525D01*
X49112984Y-50787515D01*
X49112982Y-50787512D01*
X49112982Y-50787510D01*
X49040512Y-50661989D01*
X49040510Y-50661987D01*
X49040509Y-50661985D01*
X48938015Y-50559491D01*
X48938012Y-50559489D01*
X48938010Y-50559487D01*
X48812488Y-50487017D01*
X48812489Y-50487017D01*
X48782896Y-50479087D01*
X48672475Y-50449500D01*
X48527525Y-50449500D01*
X48465790Y-50466041D01*
X48387510Y-50487017D01*
X48261989Y-50559487D01*
X48159487Y-50661989D01*
X48087017Y-50787510D01*
X48087016Y-50787515D01*
X48049500Y-50927525D01*
X47650500Y-50927525D01*
X47612984Y-50787515D01*
X47612982Y-50787512D01*
X47612982Y-50787510D01*
X47540512Y-50661989D01*
X47540510Y-50661987D01*
X47540509Y-50661985D01*
X47438015Y-50559491D01*
X47438012Y-50559489D01*
X47438010Y-50559487D01*
X47312488Y-50487017D01*
X47312489Y-50487017D01*
X47282896Y-50479087D01*
X47172475Y-50449500D01*
X47172474Y-50449500D01*
X47149500Y-50449500D01*
X47091309Y-50430593D01*
X47055345Y-50381093D01*
X47050500Y-50350500D01*
X47050500Y-50327525D01*
X47039778Y-50287510D01*
X47012984Y-50187515D01*
X47012982Y-50187512D01*
X47012982Y-50187510D01*
X46940512Y-50061989D01*
X46940510Y-50061987D01*
X46940509Y-50061985D01*
X46838015Y-49959491D01*
X46838012Y-49959489D01*
X46838010Y-49959487D01*
X46712488Y-49887017D01*
X46712489Y-49887017D01*
X46682896Y-49879087D01*
X46572475Y-49849500D01*
X46427525Y-49849500D01*
X46365790Y-49866041D01*
X46287510Y-49887017D01*
X46161989Y-49959487D01*
X46059487Y-50061989D01*
X45987017Y-50187510D01*
X45949500Y-50327525D01*
X45949500Y-50350500D01*
X45930593Y-50408691D01*
X45881093Y-50444655D01*
X45850500Y-50449500D01*
X45827525Y-50449500D01*
X45765790Y-50466041D01*
X45687510Y-50487017D01*
X45561989Y-50559487D01*
X45459487Y-50661989D01*
X45387017Y-50787510D01*
X45387016Y-50787515D01*
X45349500Y-50927525D01*
X42150999Y-50927525D01*
X42240509Y-50838015D01*
X42312984Y-50712485D01*
X42350500Y-50572475D01*
X42350500Y-50427525D01*
X42312984Y-50287515D01*
X42312982Y-50287512D01*
X42312982Y-50287510D01*
X42240512Y-50161989D01*
X42240510Y-50161987D01*
X42240509Y-50161985D01*
X42138015Y-50059491D01*
X42138012Y-50059489D01*
X42138010Y-50059487D01*
X42012488Y-49987017D01*
X42012489Y-49987017D01*
X41909761Y-49959491D01*
X41872475Y-49949500D01*
X41727525Y-49949500D01*
X41690239Y-49959491D01*
X41587510Y-49987017D01*
X41461989Y-50059487D01*
X41359487Y-50161989D01*
X41287017Y-50287510D01*
X41254547Y-50408691D01*
X41249500Y-50427525D01*
X32150999Y-50427525D01*
X32240509Y-50338015D01*
X32240512Y-50338010D01*
X32312982Y-50212489D01*
X32312982Y-50212487D01*
X32312984Y-50212485D01*
X32350500Y-50072475D01*
X32350500Y-49927525D01*
X32312984Y-49787515D01*
X32312982Y-49787512D01*
X32312982Y-49787510D01*
X32240512Y-49661989D01*
X32240510Y-49661987D01*
X32240509Y-49661985D01*
X32138015Y-49559491D01*
X32138012Y-49559489D01*
X32138010Y-49559487D01*
X32012488Y-49487017D01*
X32012489Y-49487017D01*
X31982896Y-49479087D01*
X31872475Y-49449500D01*
X31727525Y-49449500D01*
X31665790Y-49466041D01*
X31587510Y-49487017D01*
X31461989Y-49559487D01*
X31359487Y-49661989D01*
X31287017Y-49787510D01*
X31287016Y-49787515D01*
X31249500Y-49927525D01*
X28350500Y-49927525D01*
X28312984Y-49787515D01*
X28312982Y-49787512D01*
X28312982Y-49787510D01*
X28240512Y-49661989D01*
X28240510Y-49661987D01*
X28240509Y-49661985D01*
X28138015Y-49559491D01*
X28138012Y-49559489D01*
X28138010Y-49559487D01*
X28012488Y-49487017D01*
X28012489Y-49487017D01*
X27982896Y-49479087D01*
X27872475Y-49449500D01*
X27727525Y-49449500D01*
X27665790Y-49466041D01*
X27587510Y-49487017D01*
X27461989Y-49559487D01*
X27359487Y-49661989D01*
X27287017Y-49787510D01*
X27287016Y-49787515D01*
X27249500Y-49927525D01*
X300500Y-49927525D01*
X300500Y-49127525D01*
X28749500Y-49127525D01*
X28749500Y-49272474D01*
X28787017Y-49412489D01*
X28859487Y-49538010D01*
X28859489Y-49538012D01*
X28859491Y-49538015D01*
X28961985Y-49640509D01*
X28961987Y-49640510D01*
X28961989Y-49640512D01*
X29087511Y-49712982D01*
X29087512Y-49712982D01*
X29087515Y-49712984D01*
X29227525Y-49750500D01*
X29227526Y-49750500D01*
X29372474Y-49750500D01*
X29372475Y-49750500D01*
X29512485Y-49712984D01*
X29512487Y-49712982D01*
X29512489Y-49712982D01*
X29638010Y-49640512D01*
X29638010Y-49640511D01*
X29638015Y-49640509D01*
X29740509Y-49538015D01*
X29769953Y-49487017D01*
X29812982Y-49412489D01*
X29812982Y-49412487D01*
X29812984Y-49412485D01*
X29850500Y-49272475D01*
X29850500Y-49127525D01*
X29812984Y-48987515D01*
X29812982Y-48987512D01*
X29812982Y-48987510D01*
X29740512Y-48861989D01*
X29740510Y-48861987D01*
X29740509Y-48861985D01*
X29638015Y-48759491D01*
X29638012Y-48759489D01*
X29638010Y-48759487D01*
X29512488Y-48687017D01*
X29512489Y-48687017D01*
X29482896Y-48679087D01*
X29372475Y-48649500D01*
X29227525Y-48649500D01*
X29165790Y-48666041D01*
X29087510Y-48687017D01*
X28961989Y-48759487D01*
X28859487Y-48861989D01*
X28787017Y-48987510D01*
X28749500Y-49127525D01*
X300500Y-49127525D01*
X300500Y-47627525D01*
X14249500Y-47627525D01*
X14249500Y-47772475D01*
X14276295Y-47872474D01*
X14287017Y-47912489D01*
X14359487Y-48038010D01*
X14359489Y-48038012D01*
X14359491Y-48038015D01*
X14461985Y-48140509D01*
X14461987Y-48140510D01*
X14461989Y-48140512D01*
X14587511Y-48212982D01*
X14587512Y-48212982D01*
X14587515Y-48212984D01*
X14727525Y-48250500D01*
X14727526Y-48250500D01*
X14872474Y-48250500D01*
X14872475Y-48250500D01*
X15012485Y-48212984D01*
X15012487Y-48212982D01*
X15012489Y-48212982D01*
X15138010Y-48140512D01*
X15138010Y-48140511D01*
X15138015Y-48140509D01*
X15240509Y-48038015D01*
X15240512Y-48038010D01*
X15312982Y-47912489D01*
X15312982Y-47912487D01*
X15312984Y-47912485D01*
X15350500Y-47772475D01*
X15350500Y-47727525D01*
X16349500Y-47727525D01*
X16349500Y-47872475D01*
X16350901Y-47877702D01*
X16387017Y-48012489D01*
X16459487Y-48138010D01*
X16459489Y-48138012D01*
X16459491Y-48138015D01*
X16561985Y-48240509D01*
X16561987Y-48240510D01*
X16561989Y-48240512D01*
X16687511Y-48312982D01*
X16687512Y-48312982D01*
X16687515Y-48312984D01*
X16827525Y-48350500D01*
X16827526Y-48350500D01*
X16972474Y-48350500D01*
X16972475Y-48350500D01*
X17112485Y-48312984D01*
X17112487Y-48312982D01*
X17112489Y-48312982D01*
X17238010Y-48240512D01*
X17238010Y-48240511D01*
X17238015Y-48240509D01*
X17340509Y-48138015D01*
X17340512Y-48138010D01*
X17412982Y-48012489D01*
X17412982Y-48012487D01*
X17412984Y-48012485D01*
X17450500Y-47872475D01*
X17450500Y-47727525D01*
X17412984Y-47587515D01*
X17412982Y-47587512D01*
X17412982Y-47587510D01*
X17340512Y-47461989D01*
X17340510Y-47461987D01*
X17340509Y-47461985D01*
X17238015Y-47359491D01*
X17238012Y-47359489D01*
X17238010Y-47359487D01*
X17112488Y-47287017D01*
X17112489Y-47287017D01*
X17009761Y-47259491D01*
X16972475Y-47249500D01*
X16827525Y-47249500D01*
X16790239Y-47259491D01*
X16687510Y-47287017D01*
X16561989Y-47359487D01*
X16459487Y-47461989D01*
X16387017Y-47587510D01*
X16363465Y-47675407D01*
X16349500Y-47727525D01*
X15350500Y-47727525D01*
X15350500Y-47627525D01*
X15312984Y-47487515D01*
X15312982Y-47487512D01*
X15312982Y-47487510D01*
X15240512Y-47361989D01*
X15240510Y-47361987D01*
X15240509Y-47361985D01*
X15138015Y-47259491D01*
X15138012Y-47259489D01*
X15138010Y-47259487D01*
X15012488Y-47187017D01*
X15012489Y-47187017D01*
X14982896Y-47179087D01*
X14872475Y-47149500D01*
X14727525Y-47149500D01*
X14665790Y-47166041D01*
X14587510Y-47187017D01*
X14461989Y-47259487D01*
X14359487Y-47361989D01*
X14287017Y-47487510D01*
X14277081Y-47524591D01*
X14249500Y-47627525D01*
X300500Y-47627525D01*
X300500Y-46827525D01*
X49049500Y-46827525D01*
X49049500Y-46972474D01*
X49087017Y-47112489D01*
X49159487Y-47238010D01*
X49159489Y-47238012D01*
X49159491Y-47238015D01*
X49261985Y-47340509D01*
X49261987Y-47340510D01*
X49261989Y-47340512D01*
X49387511Y-47412982D01*
X49387512Y-47412982D01*
X49387515Y-47412984D01*
X49527525Y-47450500D01*
X49527526Y-47450500D01*
X49672474Y-47450500D01*
X49672475Y-47450500D01*
X49812485Y-47412984D01*
X49887424Y-47369717D01*
X49947270Y-47356996D01*
X50003166Y-47381882D01*
X50006907Y-47385431D01*
X50061985Y-47440509D01*
X50154712Y-47494045D01*
X50195652Y-47539514D01*
X50202048Y-47600364D01*
X50171455Y-47653352D01*
X50130836Y-47675407D01*
X50087514Y-47687016D01*
X50087511Y-47687017D01*
X49961989Y-47759487D01*
X49859487Y-47861989D01*
X49787017Y-47987510D01*
X49787016Y-47987515D01*
X49749500Y-48127525D01*
X49749500Y-48272475D01*
X49766770Y-48336926D01*
X49787017Y-48412489D01*
X49859487Y-48538010D01*
X49859489Y-48538012D01*
X49859491Y-48538015D01*
X49961985Y-48640509D01*
X49961987Y-48640510D01*
X49961989Y-48640512D01*
X50087511Y-48712982D01*
X50087512Y-48712982D01*
X50087515Y-48712984D01*
X50227525Y-48750500D01*
X50227526Y-48750500D01*
X50372474Y-48750500D01*
X50372475Y-48750500D01*
X50512485Y-48712984D01*
X50512487Y-48712982D01*
X50512489Y-48712982D01*
X50638010Y-48640512D01*
X50638010Y-48640511D01*
X50638015Y-48640509D01*
X50740509Y-48538015D01*
X50740512Y-48538010D01*
X50812982Y-48412489D01*
X50812982Y-48412487D01*
X50812984Y-48412485D01*
X50850500Y-48272475D01*
X50850500Y-48127525D01*
X50812984Y-47987515D01*
X50812982Y-47987512D01*
X50812982Y-47987510D01*
X50740512Y-47861989D01*
X50740510Y-47861987D01*
X50740509Y-47861985D01*
X50638015Y-47759491D01*
X50638012Y-47759489D01*
X50638010Y-47759487D01*
X50545288Y-47705954D01*
X50504347Y-47660485D01*
X50497951Y-47599634D01*
X50528544Y-47546646D01*
X50552967Y-47533385D01*
X54899500Y-47533385D01*
X54899500Y-47706614D01*
X54926597Y-47877702D01*
X54926598Y-47877706D01*
X54980123Y-48042438D01*
X54980125Y-48042441D01*
X55030092Y-48140509D01*
X55058768Y-48196788D01*
X55160586Y-48336928D01*
X55283072Y-48459414D01*
X55423212Y-48561232D01*
X55577555Y-48639873D01*
X55577557Y-48639873D01*
X55577558Y-48639874D01*
X55577561Y-48639876D01*
X55742293Y-48693401D01*
X55742297Y-48693402D01*
X55913386Y-48720500D01*
X55913389Y-48720500D01*
X56086614Y-48720500D01*
X56257702Y-48693402D01*
X56257706Y-48693401D01*
X56422438Y-48639876D01*
X56422440Y-48639874D01*
X56422445Y-48639873D01*
X56576788Y-48561232D01*
X56716928Y-48459414D01*
X56839414Y-48336928D01*
X56941232Y-48196788D01*
X57019873Y-48042445D01*
X57019874Y-48042440D01*
X57019876Y-48042438D01*
X57073401Y-47877706D01*
X57073402Y-47877702D01*
X57100500Y-47706614D01*
X57100500Y-47533385D01*
X57073402Y-47362297D01*
X57073401Y-47362293D01*
X57019876Y-47197561D01*
X57019874Y-47197558D01*
X57019873Y-47197557D01*
X57019873Y-47197555D01*
X56941232Y-47043212D01*
X56839414Y-46903072D01*
X56716928Y-46780586D01*
X56576788Y-46678768D01*
X56576787Y-46678767D01*
X56576785Y-46678766D01*
X56422441Y-46600125D01*
X56422438Y-46600123D01*
X56257706Y-46546598D01*
X56257702Y-46546597D01*
X56086614Y-46519500D01*
X56086611Y-46519500D01*
X55913389Y-46519500D01*
X55913386Y-46519500D01*
X55742297Y-46546597D01*
X55742293Y-46546598D01*
X55577561Y-46600123D01*
X55577558Y-46600125D01*
X55423214Y-46678766D01*
X55283073Y-46780585D01*
X55160585Y-46903073D01*
X55058766Y-47043214D01*
X54980125Y-47197558D01*
X54980123Y-47197561D01*
X54926598Y-47362293D01*
X54926597Y-47362297D01*
X54899500Y-47533385D01*
X50552967Y-47533385D01*
X50569162Y-47524592D01*
X50612485Y-47512984D01*
X50612487Y-47512982D01*
X50612489Y-47512982D01*
X50738010Y-47440512D01*
X50738010Y-47440511D01*
X50738015Y-47440509D01*
X50840509Y-47338015D01*
X50840512Y-47338010D01*
X50912982Y-47212489D01*
X50912982Y-47212487D01*
X50912984Y-47212485D01*
X50950500Y-47072475D01*
X50950500Y-46927525D01*
X50912984Y-46787515D01*
X50912982Y-46787512D01*
X50912982Y-46787510D01*
X50840512Y-46661989D01*
X50840510Y-46661987D01*
X50840509Y-46661985D01*
X50738015Y-46559491D01*
X50738012Y-46559489D01*
X50738010Y-46559487D01*
X50612488Y-46487017D01*
X50612489Y-46487017D01*
X50582896Y-46479087D01*
X50472475Y-46449500D01*
X50327525Y-46449500D01*
X50290239Y-46459491D01*
X50187513Y-46487016D01*
X50112576Y-46530282D01*
X50052728Y-46543003D01*
X49996832Y-46518116D01*
X49993091Y-46514567D01*
X49938015Y-46459491D01*
X49938012Y-46459489D01*
X49938010Y-46459487D01*
X49812488Y-46387017D01*
X49812489Y-46387017D01*
X49782896Y-46379087D01*
X49672475Y-46349500D01*
X49527525Y-46349500D01*
X49465790Y-46366041D01*
X49387510Y-46387017D01*
X49261989Y-46459487D01*
X49159487Y-46561989D01*
X49087017Y-46687510D01*
X49049500Y-46827525D01*
X300500Y-46827525D01*
X300500Y-45927525D01*
X53649500Y-45927525D01*
X53649500Y-46072475D01*
X53656842Y-46099874D01*
X53687017Y-46212489D01*
X53759487Y-46338010D01*
X53759489Y-46338012D01*
X53759491Y-46338015D01*
X53801474Y-46379998D01*
X53829250Y-46434513D01*
X53819679Y-46494945D01*
X53801475Y-46520000D01*
X53778473Y-46543003D01*
X53759488Y-46561988D01*
X53759487Y-46561989D01*
X53687017Y-46687510D01*
X53649500Y-46827525D01*
X53649500Y-46972474D01*
X53687017Y-47112489D01*
X53759487Y-47238010D01*
X53759489Y-47238012D01*
X53759491Y-47238015D01*
X53861985Y-47340509D01*
X53861987Y-47340510D01*
X53861989Y-47340512D01*
X53987511Y-47412982D01*
X53987512Y-47412982D01*
X53987515Y-47412984D01*
X54127525Y-47450500D01*
X54127526Y-47450500D01*
X54272474Y-47450500D01*
X54272475Y-47450500D01*
X54412485Y-47412984D01*
X54538015Y-47340509D01*
X54640509Y-47238015D01*
X54640512Y-47238010D01*
X54712982Y-47112489D01*
X54712982Y-47112487D01*
X54712984Y-47112485D01*
X54750500Y-46972475D01*
X54750500Y-46827525D01*
X54712984Y-46687515D01*
X54712982Y-46687512D01*
X54712982Y-46687510D01*
X54640512Y-46561989D01*
X54640510Y-46561987D01*
X54640509Y-46561985D01*
X54598525Y-46520001D01*
X54570750Y-46465487D01*
X54580321Y-46405055D01*
X54598524Y-46379999D01*
X54640509Y-46338015D01*
X54712984Y-46212485D01*
X54750500Y-46072475D01*
X54750500Y-45927525D01*
X54712984Y-45787515D01*
X54712982Y-45787512D01*
X54712982Y-45787510D01*
X54640512Y-45661989D01*
X54640510Y-45661987D01*
X54640509Y-45661985D01*
X54538015Y-45559491D01*
X54538012Y-45559489D01*
X54538010Y-45559487D01*
X54412488Y-45487017D01*
X54412489Y-45487017D01*
X54382896Y-45479087D01*
X54272475Y-45449500D01*
X54127525Y-45449500D01*
X54065790Y-45466041D01*
X53987510Y-45487017D01*
X53861989Y-45559487D01*
X53759487Y-45661989D01*
X53687017Y-45787510D01*
X53651673Y-45919414D01*
X53649500Y-45927525D01*
X300500Y-45927525D01*
X300500Y-44427525D01*
X17449500Y-44427525D01*
X17449500Y-44572474D01*
X17487017Y-44712489D01*
X17559487Y-44838010D01*
X17559489Y-44838012D01*
X17559491Y-44838015D01*
X17661985Y-44940509D01*
X17661987Y-44940510D01*
X17661989Y-44940512D01*
X17787511Y-45012982D01*
X17787512Y-45012982D01*
X17787515Y-45012984D01*
X17927525Y-45050500D01*
X17927526Y-45050500D01*
X18072474Y-45050500D01*
X18072475Y-45050500D01*
X18212485Y-45012984D01*
X18212487Y-45012982D01*
X18212489Y-45012982D01*
X18246432Y-44993385D01*
X54899500Y-44993385D01*
X54899500Y-45166614D01*
X54926597Y-45337702D01*
X54926598Y-45337706D01*
X54980123Y-45502438D01*
X54980125Y-45502441D01*
X54980126Y-45502444D01*
X54980127Y-45502445D01*
X55058768Y-45656788D01*
X55160586Y-45796928D01*
X55283072Y-45919414D01*
X55423212Y-46021232D01*
X55577555Y-46099873D01*
X55577557Y-46099873D01*
X55577558Y-46099874D01*
X55577561Y-46099876D01*
X55742293Y-46153401D01*
X55742297Y-46153402D01*
X55913386Y-46180500D01*
X55913389Y-46180500D01*
X56086614Y-46180500D01*
X56257702Y-46153402D01*
X56257706Y-46153401D01*
X56422438Y-46099876D01*
X56422440Y-46099874D01*
X56422445Y-46099873D01*
X56576788Y-46021232D01*
X56716928Y-45919414D01*
X56839414Y-45796928D01*
X56941232Y-45656788D01*
X57019873Y-45502445D01*
X57019874Y-45502440D01*
X57019876Y-45502438D01*
X57073401Y-45337706D01*
X57073402Y-45337702D01*
X57100500Y-45166614D01*
X57100500Y-44993385D01*
X57073402Y-44822297D01*
X57073401Y-44822293D01*
X57019876Y-44657561D01*
X57019874Y-44657558D01*
X57019873Y-44657557D01*
X57019873Y-44657555D01*
X56941232Y-44503212D01*
X56839414Y-44363072D01*
X56716928Y-44240586D01*
X56576788Y-44138768D01*
X56576787Y-44138767D01*
X56576785Y-44138766D01*
X56422441Y-44060125D01*
X56422438Y-44060123D01*
X56257706Y-44006598D01*
X56257702Y-44006597D01*
X56086614Y-43979500D01*
X56086611Y-43979500D01*
X55913389Y-43979500D01*
X55913386Y-43979500D01*
X55742297Y-44006597D01*
X55742293Y-44006598D01*
X55577561Y-44060123D01*
X55577558Y-44060125D01*
X55423214Y-44138766D01*
X55283073Y-44240585D01*
X55160585Y-44363073D01*
X55058766Y-44503214D01*
X54980125Y-44657558D01*
X54980123Y-44657561D01*
X54926598Y-44822293D01*
X54926597Y-44822297D01*
X54899500Y-44993385D01*
X18246432Y-44993385D01*
X18338010Y-44940512D01*
X18338010Y-44940511D01*
X18338015Y-44940509D01*
X18440509Y-44838015D01*
X18496803Y-44740512D01*
X18512982Y-44712489D01*
X18512982Y-44712487D01*
X18512984Y-44712485D01*
X18550500Y-44572475D01*
X18550500Y-44427525D01*
X18512984Y-44287515D01*
X18512982Y-44287512D01*
X18512982Y-44287510D01*
X18503182Y-44270536D01*
X18478349Y-44227525D01*
X49349500Y-44227525D01*
X49349500Y-44372474D01*
X49387017Y-44512489D01*
X49459487Y-44638010D01*
X49459489Y-44638012D01*
X49459491Y-44638015D01*
X49561985Y-44740509D01*
X49561987Y-44740510D01*
X49561989Y-44740512D01*
X49687511Y-44812982D01*
X49687512Y-44812982D01*
X49687515Y-44812984D01*
X49827525Y-44850500D01*
X49827526Y-44850500D01*
X49972474Y-44850500D01*
X49972475Y-44850500D01*
X50112485Y-44812984D01*
X50112487Y-44812982D01*
X50112489Y-44812982D01*
X50238010Y-44740512D01*
X50238010Y-44740511D01*
X50238015Y-44740509D01*
X50340509Y-44638015D01*
X50412984Y-44512485D01*
X50450500Y-44372475D01*
X50450500Y-44227525D01*
X50412984Y-44087515D01*
X50412982Y-44087512D01*
X50412982Y-44087510D01*
X50340512Y-43961989D01*
X50340510Y-43961987D01*
X50340509Y-43961985D01*
X50238015Y-43859491D01*
X50238012Y-43859489D01*
X50238010Y-43859487D01*
X50112488Y-43787017D01*
X50112489Y-43787017D01*
X50082896Y-43779087D01*
X49972475Y-43749500D01*
X49827525Y-43749500D01*
X49765790Y-43766041D01*
X49687510Y-43787017D01*
X49561989Y-43859487D01*
X49459487Y-43961989D01*
X49387017Y-44087510D01*
X49349500Y-44227525D01*
X18478349Y-44227525D01*
X18440512Y-44161989D01*
X18440510Y-44161987D01*
X18440509Y-44161985D01*
X18338015Y-44059491D01*
X18338012Y-44059489D01*
X18338010Y-44059487D01*
X18212488Y-43987017D01*
X18212489Y-43987017D01*
X18122797Y-43962984D01*
X18072475Y-43949500D01*
X17927525Y-43949500D01*
X17880931Y-43961985D01*
X17787510Y-43987017D01*
X17661989Y-44059487D01*
X17559487Y-44161989D01*
X17487017Y-44287510D01*
X17449500Y-44427525D01*
X300500Y-44427525D01*
X300500Y-43527525D01*
X15649500Y-43527525D01*
X15649500Y-43672474D01*
X15687017Y-43812489D01*
X15759487Y-43938010D01*
X15759489Y-43938012D01*
X15759491Y-43938015D01*
X15861985Y-44040509D01*
X15861987Y-44040510D01*
X15861989Y-44040512D01*
X15987511Y-44112982D01*
X15987512Y-44112982D01*
X15987515Y-44112984D01*
X16127525Y-44150500D01*
X16127526Y-44150500D01*
X16272474Y-44150500D01*
X16272475Y-44150500D01*
X16412485Y-44112984D01*
X16412487Y-44112982D01*
X16412489Y-44112982D01*
X16538010Y-44040512D01*
X16538010Y-44040511D01*
X16538015Y-44040509D01*
X16640509Y-43938015D01*
X16685845Y-43859491D01*
X16712982Y-43812489D01*
X16712982Y-43812487D01*
X16712984Y-43812485D01*
X16750500Y-43672475D01*
X16750500Y-43527525D01*
X16723705Y-43427525D01*
X41249500Y-43427525D01*
X41249500Y-43572475D01*
X41276295Y-43672474D01*
X41287017Y-43712489D01*
X41359487Y-43838010D01*
X41359489Y-43838012D01*
X41359491Y-43838015D01*
X41461985Y-43940509D01*
X41461987Y-43940510D01*
X41461989Y-43940512D01*
X41587511Y-44012982D01*
X41587512Y-44012982D01*
X41587515Y-44012984D01*
X41727525Y-44050500D01*
X41727526Y-44050500D01*
X41872474Y-44050500D01*
X41872475Y-44050500D01*
X42012485Y-44012984D01*
X42012487Y-44012982D01*
X42012489Y-44012982D01*
X42138010Y-43940512D01*
X42138010Y-43940511D01*
X42138015Y-43940509D01*
X42240509Y-43838015D01*
X42240512Y-43838010D01*
X42312982Y-43712489D01*
X42312982Y-43712487D01*
X42312984Y-43712485D01*
X42350500Y-43572475D01*
X42350500Y-43427525D01*
X42337102Y-43377525D01*
X50349500Y-43377525D01*
X50349500Y-43522475D01*
X50379087Y-43632896D01*
X50387017Y-43662489D01*
X50459487Y-43788010D01*
X50459489Y-43788012D01*
X50459491Y-43788015D01*
X50561985Y-43890509D01*
X50561987Y-43890510D01*
X50561989Y-43890512D01*
X50687511Y-43962982D01*
X50687512Y-43962982D01*
X50687515Y-43962984D01*
X50827525Y-44000500D01*
X50827526Y-44000500D01*
X50972474Y-44000500D01*
X50972475Y-44000500D01*
X51112485Y-43962984D01*
X51112487Y-43962982D01*
X51112489Y-43962982D01*
X51238010Y-43890512D01*
X51238010Y-43890511D01*
X51238015Y-43890509D01*
X51340509Y-43788015D01*
X51369660Y-43737525D01*
X53949500Y-43737525D01*
X53949500Y-43882474D01*
X53987017Y-44022489D01*
X54059487Y-44148010D01*
X54059489Y-44148012D01*
X54059491Y-44148015D01*
X54161985Y-44250509D01*
X54161987Y-44250510D01*
X54161989Y-44250512D01*
X54287511Y-44322982D01*
X54287512Y-44322982D01*
X54287515Y-44322984D01*
X54427525Y-44360500D01*
X54427526Y-44360500D01*
X54572474Y-44360500D01*
X54572475Y-44360500D01*
X54712485Y-44322984D01*
X54712487Y-44322982D01*
X54712489Y-44322982D01*
X54838010Y-44250512D01*
X54838010Y-44250511D01*
X54838015Y-44250509D01*
X54940509Y-44148015D01*
X54960734Y-44112984D01*
X55012982Y-44022489D01*
X55012982Y-44022487D01*
X55012984Y-44022485D01*
X55050500Y-43882475D01*
X55050500Y-43737525D01*
X55012984Y-43597515D01*
X55012982Y-43597512D01*
X55012982Y-43597510D01*
X54953278Y-43494100D01*
X54940512Y-43471989D01*
X54940510Y-43471987D01*
X54940509Y-43471985D01*
X54838015Y-43369491D01*
X54838012Y-43369489D01*
X54838010Y-43369487D01*
X54712488Y-43297017D01*
X54712489Y-43297017D01*
X54677027Y-43287515D01*
X54572475Y-43259500D01*
X54427525Y-43259500D01*
X54365790Y-43276041D01*
X54287510Y-43297017D01*
X54161989Y-43369487D01*
X54059487Y-43471989D01*
X53987017Y-43597510D01*
X53949500Y-43737525D01*
X51369660Y-43737525D01*
X51401986Y-43681536D01*
X51410879Y-43666129D01*
X51412984Y-43662485D01*
X51450500Y-43522475D01*
X51450500Y-43377525D01*
X51412984Y-43237515D01*
X51412982Y-43237512D01*
X51412982Y-43237510D01*
X51340512Y-43111989D01*
X51340510Y-43111987D01*
X51340509Y-43111985D01*
X51238015Y-43009491D01*
X51238012Y-43009489D01*
X51238010Y-43009487D01*
X51112488Y-42937017D01*
X51112489Y-42937017D01*
X51082896Y-42929087D01*
X50972475Y-42899500D01*
X50827525Y-42899500D01*
X50765790Y-42916041D01*
X50687510Y-42937017D01*
X50561989Y-43009487D01*
X50459487Y-43111989D01*
X50387017Y-43237510D01*
X50371072Y-43297017D01*
X50349500Y-43377525D01*
X42337102Y-43377525D01*
X42312984Y-43287515D01*
X42312982Y-43287512D01*
X42312982Y-43287510D01*
X42240512Y-43161989D01*
X42240510Y-43161987D01*
X42240509Y-43161985D01*
X42138015Y-43059491D01*
X42138012Y-43059489D01*
X42138010Y-43059487D01*
X42012488Y-42987017D01*
X42012489Y-42987017D01*
X41982896Y-42979087D01*
X41872475Y-42949500D01*
X41727525Y-42949500D01*
X41665790Y-42966041D01*
X41587510Y-42987017D01*
X41461989Y-43059487D01*
X41359487Y-43161989D01*
X41287017Y-43287510D01*
X41260222Y-43387510D01*
X41249500Y-43427525D01*
X16723705Y-43427525D01*
X16712984Y-43387515D01*
X16712982Y-43387512D01*
X16712982Y-43387510D01*
X16640512Y-43261989D01*
X16640510Y-43261987D01*
X16640509Y-43261985D01*
X16538015Y-43159491D01*
X16538012Y-43159489D01*
X16538010Y-43159487D01*
X16412488Y-43087017D01*
X16412489Y-43087017D01*
X16309761Y-43059491D01*
X16272475Y-43049500D01*
X16127525Y-43049500D01*
X16090239Y-43059491D01*
X15987510Y-43087017D01*
X15861989Y-43159487D01*
X15759487Y-43261989D01*
X15687017Y-43387510D01*
X15649500Y-43527525D01*
X300500Y-43527525D01*
X300500Y-42227525D01*
X16349500Y-42227525D01*
X16349500Y-42372475D01*
X16379087Y-42482896D01*
X16387017Y-42512489D01*
X16459487Y-42638010D01*
X16459489Y-42638012D01*
X16459491Y-42638015D01*
X16561985Y-42740509D01*
X16561987Y-42740510D01*
X16561989Y-42740512D01*
X16687511Y-42812982D01*
X16687512Y-42812982D01*
X16687515Y-42812984D01*
X16827525Y-42850500D01*
X16827526Y-42850500D01*
X16972474Y-42850500D01*
X16972475Y-42850500D01*
X17112485Y-42812984D01*
X17112487Y-42812982D01*
X17112489Y-42812982D01*
X17238010Y-42740512D01*
X17238010Y-42740511D01*
X17238015Y-42740509D01*
X17340509Y-42638015D01*
X17344842Y-42630510D01*
X17412982Y-42512489D01*
X17412982Y-42512487D01*
X17412984Y-42512485D01*
X17450500Y-42372475D01*
X17450500Y-42227525D01*
X17423705Y-42127525D01*
X39949500Y-42127525D01*
X39949500Y-42272475D01*
X39969471Y-42347007D01*
X39987017Y-42412489D01*
X40059487Y-42538010D01*
X40059489Y-42538012D01*
X40059491Y-42538015D01*
X40161985Y-42640509D01*
X40161987Y-42640510D01*
X40161989Y-42640512D01*
X40287511Y-42712982D01*
X40287512Y-42712982D01*
X40287515Y-42712984D01*
X40427525Y-42750500D01*
X40427526Y-42750500D01*
X40572474Y-42750500D01*
X40572475Y-42750500D01*
X40712485Y-42712984D01*
X40712487Y-42712982D01*
X40712489Y-42712982D01*
X40838010Y-42640512D01*
X40838010Y-42640511D01*
X40838015Y-42640509D01*
X40940509Y-42538015D01*
X40940512Y-42538010D01*
X40991620Y-42449489D01*
X54850000Y-42449489D01*
X54850000Y-42630510D01*
X54878316Y-42809289D01*
X54934250Y-42981440D01*
X55016430Y-43142728D01*
X55057667Y-43199488D01*
X55531980Y-42725174D01*
X55534075Y-42732993D01*
X55599901Y-42847007D01*
X55692993Y-42940099D01*
X55807007Y-43005925D01*
X55814821Y-43008019D01*
X55340511Y-43482330D01*
X55397275Y-43523571D01*
X55558559Y-43605749D01*
X55730710Y-43661683D01*
X55909490Y-43690000D01*
X56090510Y-43690000D01*
X56269289Y-43661683D01*
X56441440Y-43605749D01*
X56602728Y-43523569D01*
X56659487Y-43482330D01*
X56185176Y-43008019D01*
X56192993Y-43005925D01*
X56307007Y-42940099D01*
X56400099Y-42847007D01*
X56465925Y-42732993D01*
X56468019Y-42725176D01*
X56942330Y-43199487D01*
X56983569Y-43142728D01*
X57065749Y-42981440D01*
X57121683Y-42809289D01*
X57150000Y-42630510D01*
X57150000Y-42449489D01*
X57121683Y-42270710D01*
X57065749Y-42098559D01*
X56983571Y-41937275D01*
X56942330Y-41880511D01*
X56468019Y-42354821D01*
X56465925Y-42347007D01*
X56400099Y-42232993D01*
X56307007Y-42139901D01*
X56192993Y-42074075D01*
X56185174Y-42071980D01*
X56659488Y-41597667D01*
X56602728Y-41556430D01*
X56441440Y-41474250D01*
X56269289Y-41418316D01*
X56090510Y-41390000D01*
X55909490Y-41390000D01*
X55730710Y-41418316D01*
X55558559Y-41474250D01*
X55397267Y-41556432D01*
X55340510Y-41597667D01*
X55814823Y-42071980D01*
X55807007Y-42074075D01*
X55692993Y-42139901D01*
X55599901Y-42232993D01*
X55534075Y-42347007D01*
X55531980Y-42354823D01*
X55057667Y-41880510D01*
X55016432Y-41937267D01*
X54934250Y-42098559D01*
X54878316Y-42270710D01*
X54850000Y-42449489D01*
X40991620Y-42449489D01*
X41012982Y-42412489D01*
X41012982Y-42412487D01*
X41012984Y-42412485D01*
X41050500Y-42272475D01*
X41050500Y-42127525D01*
X41012984Y-41987515D01*
X41012982Y-41987512D01*
X41012982Y-41987510D01*
X40940512Y-41861989D01*
X40940510Y-41861987D01*
X40940509Y-41861985D01*
X40838015Y-41759491D01*
X40838012Y-41759489D01*
X40838010Y-41759487D01*
X40782650Y-41727525D01*
X44849500Y-41727525D01*
X44849500Y-41872475D01*
X44879087Y-41982896D01*
X44887017Y-42012489D01*
X44959487Y-42138010D01*
X44959489Y-42138012D01*
X44959491Y-42138015D01*
X45061985Y-42240509D01*
X45061987Y-42240510D01*
X45061989Y-42240512D01*
X45187511Y-42312982D01*
X45187512Y-42312982D01*
X45187515Y-42312984D01*
X45327525Y-42350500D01*
X45327526Y-42350500D01*
X45472475Y-42350500D01*
X45612485Y-42312984D01*
X45682650Y-42272474D01*
X45738010Y-42240512D01*
X45738010Y-42240511D01*
X45738015Y-42240509D01*
X45840509Y-42138015D01*
X45840512Y-42138010D01*
X45912982Y-42012489D01*
X45912982Y-42012487D01*
X45912984Y-42012485D01*
X45950500Y-41872475D01*
X45950500Y-41727525D01*
X45912984Y-41587515D01*
X45912982Y-41587512D01*
X45912982Y-41587510D01*
X45840512Y-41461989D01*
X45840510Y-41461987D01*
X45840509Y-41461985D01*
X45738015Y-41359491D01*
X45738012Y-41359489D01*
X45738010Y-41359487D01*
X45612488Y-41287017D01*
X45612489Y-41287017D01*
X45582896Y-41279087D01*
X45472475Y-41249500D01*
X45327525Y-41249500D01*
X45265790Y-41266041D01*
X45187510Y-41287017D01*
X45061989Y-41359487D01*
X44959487Y-41461989D01*
X44887017Y-41587510D01*
X44860354Y-41687016D01*
X44849500Y-41727525D01*
X40782650Y-41727525D01*
X40712488Y-41687017D01*
X40712489Y-41687017D01*
X40615475Y-41661022D01*
X40572475Y-41649500D01*
X40427525Y-41649500D01*
X40384525Y-41661022D01*
X40287510Y-41687017D01*
X40161989Y-41759487D01*
X40059487Y-41861989D01*
X39987017Y-41987510D01*
X39949500Y-42127525D01*
X17423705Y-42127525D01*
X17412984Y-42087515D01*
X17412982Y-42087512D01*
X17412982Y-42087510D01*
X17340512Y-41961989D01*
X17340510Y-41961987D01*
X17340509Y-41961985D01*
X17238015Y-41859491D01*
X17238012Y-41859489D01*
X17238010Y-41859487D01*
X17112488Y-41787017D01*
X17112489Y-41787017D01*
X17009761Y-41759491D01*
X16972475Y-41749500D01*
X16827525Y-41749500D01*
X16790239Y-41759491D01*
X16687510Y-41787017D01*
X16561989Y-41859487D01*
X16459487Y-41961989D01*
X16387017Y-42087510D01*
X16349501Y-42227522D01*
X16349500Y-42227525D01*
X300500Y-42227525D01*
X300500Y-40627525D01*
X19549500Y-40627525D01*
X19549500Y-40772474D01*
X19587017Y-40912489D01*
X19659487Y-41038010D01*
X19659489Y-41038012D01*
X19659491Y-41038015D01*
X19761985Y-41140509D01*
X19761987Y-41140510D01*
X19761989Y-41140512D01*
X19887511Y-41212982D01*
X19887512Y-41212982D01*
X19887515Y-41212984D01*
X20027525Y-41250500D01*
X20027526Y-41250500D01*
X20172474Y-41250500D01*
X20172475Y-41250500D01*
X20312485Y-41212984D01*
X20312487Y-41212982D01*
X20312489Y-41212982D01*
X20438010Y-41140512D01*
X20438010Y-41140511D01*
X20438015Y-41140509D01*
X20540509Y-41038015D01*
X20544789Y-41030602D01*
X20612982Y-40912489D01*
X20612982Y-40912487D01*
X20612984Y-40912485D01*
X20650500Y-40772475D01*
X20650500Y-40627525D01*
X20612984Y-40487515D01*
X20540509Y-40361985D01*
X20506049Y-40327525D01*
X31049500Y-40327525D01*
X31049500Y-40472475D01*
X31053530Y-40487515D01*
X31087017Y-40612489D01*
X31159487Y-40738010D01*
X31159489Y-40738012D01*
X31159491Y-40738015D01*
X31261985Y-40840509D01*
X31261987Y-40840510D01*
X31261989Y-40840512D01*
X31387511Y-40912982D01*
X31387512Y-40912982D01*
X31387515Y-40912984D01*
X31527525Y-40950500D01*
X31527526Y-40950500D01*
X31672474Y-40950500D01*
X31672475Y-40950500D01*
X31812485Y-40912984D01*
X31812487Y-40912982D01*
X31812489Y-40912982D01*
X31938010Y-40840512D01*
X31938010Y-40840511D01*
X31938015Y-40840509D01*
X32040509Y-40738015D01*
X32112984Y-40612485D01*
X32150500Y-40472475D01*
X32150500Y-40327525D01*
X36149500Y-40327525D01*
X36149500Y-40472475D01*
X36153530Y-40487515D01*
X36187017Y-40612489D01*
X36259487Y-40738010D01*
X36259489Y-40738012D01*
X36259491Y-40738015D01*
X36361985Y-40840509D01*
X36361987Y-40840510D01*
X36361989Y-40840512D01*
X36487511Y-40912982D01*
X36487512Y-40912982D01*
X36487515Y-40912984D01*
X36627525Y-40950500D01*
X36627526Y-40950500D01*
X36772474Y-40950500D01*
X36772475Y-40950500D01*
X36912485Y-40912984D01*
X36912487Y-40912982D01*
X36912489Y-40912982D01*
X37038010Y-40840512D01*
X37038010Y-40840511D01*
X37038015Y-40840509D01*
X37140509Y-40738015D01*
X37212984Y-40612485D01*
X37250500Y-40472475D01*
X37250500Y-40327525D01*
X37212984Y-40187515D01*
X37212982Y-40187512D01*
X37212982Y-40187510D01*
X37140512Y-40061989D01*
X37140510Y-40061987D01*
X37140509Y-40061985D01*
X37038015Y-39959491D01*
X37038012Y-39959489D01*
X37038010Y-39959487D01*
X36912488Y-39887017D01*
X36912489Y-39887017D01*
X36882896Y-39879087D01*
X36772475Y-39849500D01*
X36627525Y-39849500D01*
X36565790Y-39866041D01*
X36487510Y-39887017D01*
X36361989Y-39959487D01*
X36259487Y-40061989D01*
X36187017Y-40187510D01*
X36170139Y-40250500D01*
X36149500Y-40327525D01*
X32150500Y-40327525D01*
X32112984Y-40187515D01*
X32112982Y-40187512D01*
X32112982Y-40187510D01*
X32040512Y-40061989D01*
X32040510Y-40061987D01*
X32040509Y-40061985D01*
X31938015Y-39959491D01*
X31938012Y-39959489D01*
X31938010Y-39959487D01*
X31812488Y-39887017D01*
X31812489Y-39887017D01*
X31782896Y-39879087D01*
X31672475Y-39849500D01*
X31527525Y-39849500D01*
X31465790Y-39866041D01*
X31387510Y-39887017D01*
X31261989Y-39959487D01*
X31159487Y-40061989D01*
X31087017Y-40187510D01*
X31070139Y-40250500D01*
X31049500Y-40327525D01*
X20506049Y-40327525D01*
X20438015Y-40259491D01*
X20438012Y-40259489D01*
X20438010Y-40259487D01*
X20312488Y-40187017D01*
X20312489Y-40187017D01*
X20282896Y-40179087D01*
X20172475Y-40149500D01*
X20027525Y-40149500D01*
X19965790Y-40166041D01*
X19887510Y-40187017D01*
X19761989Y-40259487D01*
X19659487Y-40361989D01*
X19587017Y-40487510D01*
X19549500Y-40627525D01*
X300500Y-40627525D01*
X300500Y-38327525D01*
X22849500Y-38327525D01*
X22849500Y-38472474D01*
X22887017Y-38612489D01*
X22959487Y-38738010D01*
X22959489Y-38738012D01*
X22959491Y-38738015D01*
X23061985Y-38840509D01*
X23061987Y-38840510D01*
X23061989Y-38840512D01*
X23187511Y-38912982D01*
X23187512Y-38912982D01*
X23187515Y-38912984D01*
X23327525Y-38950500D01*
X23327526Y-38950500D01*
X23472474Y-38950500D01*
X23472475Y-38950500D01*
X23612485Y-38912984D01*
X23612487Y-38912982D01*
X23612489Y-38912982D01*
X23738010Y-38840512D01*
X23738010Y-38840511D01*
X23738015Y-38840509D01*
X23840509Y-38738015D01*
X23869953Y-38687017D01*
X23904301Y-38627525D01*
X30949500Y-38627525D01*
X30949500Y-38772475D01*
X30979087Y-38882896D01*
X30987017Y-38912489D01*
X31059487Y-39038010D01*
X31059489Y-39038012D01*
X31059491Y-39038015D01*
X31161985Y-39140509D01*
X31161987Y-39140510D01*
X31161989Y-39140512D01*
X31287511Y-39212982D01*
X31287512Y-39212982D01*
X31287515Y-39212984D01*
X31427525Y-39250500D01*
X31427526Y-39250500D01*
X31572474Y-39250500D01*
X31572475Y-39250500D01*
X31712485Y-39212984D01*
X31712487Y-39212982D01*
X31712489Y-39212982D01*
X31838010Y-39140512D01*
X31838010Y-39140511D01*
X31838015Y-39140509D01*
X31850999Y-39127525D01*
X40849500Y-39127525D01*
X40849500Y-39272475D01*
X40879087Y-39382896D01*
X40887017Y-39412489D01*
X40959487Y-39538010D01*
X40959489Y-39538012D01*
X40959491Y-39538015D01*
X41061985Y-39640509D01*
X41061987Y-39640510D01*
X41061989Y-39640512D01*
X41187511Y-39712982D01*
X41187512Y-39712982D01*
X41187515Y-39712984D01*
X41327525Y-39750500D01*
X41327526Y-39750500D01*
X41472474Y-39750500D01*
X41472475Y-39750500D01*
X41612485Y-39712984D01*
X41612487Y-39712982D01*
X41612489Y-39712982D01*
X41738010Y-39640512D01*
X41738010Y-39640511D01*
X41738015Y-39640509D01*
X41840509Y-39538015D01*
X41904301Y-39427525D01*
X42549500Y-39427525D01*
X42549500Y-39572475D01*
X42564251Y-39627525D01*
X42587017Y-39712489D01*
X42659487Y-39838010D01*
X42659489Y-39838012D01*
X42659491Y-39838015D01*
X42761985Y-39940509D01*
X42761987Y-39940510D01*
X42761989Y-39940512D01*
X42887511Y-40012982D01*
X42887512Y-40012982D01*
X42887515Y-40012984D01*
X43027525Y-40050500D01*
X43027526Y-40050500D01*
X43172474Y-40050500D01*
X43172475Y-40050500D01*
X43312485Y-40012984D01*
X43312487Y-40012982D01*
X43312489Y-40012982D01*
X43438010Y-39940512D01*
X43438010Y-39940511D01*
X43438015Y-39940509D01*
X43540509Y-39838015D01*
X43612984Y-39712485D01*
X43635749Y-39627525D01*
X46949500Y-39627525D01*
X46949500Y-39772474D01*
X46987017Y-39912489D01*
X47059487Y-40038010D01*
X47059489Y-40038012D01*
X47059491Y-40038015D01*
X47161985Y-40140509D01*
X47161987Y-40140510D01*
X47161989Y-40140512D01*
X47287511Y-40212982D01*
X47287512Y-40212982D01*
X47287515Y-40212984D01*
X47427525Y-40250500D01*
X47427526Y-40250500D01*
X47572474Y-40250500D01*
X47572475Y-40250500D01*
X47712485Y-40212984D01*
X47712487Y-40212982D01*
X47712489Y-40212982D01*
X47838010Y-40140512D01*
X47838010Y-40140511D01*
X47838015Y-40140509D01*
X47940509Y-40038015D01*
X47985845Y-39959491D01*
X48012982Y-39912489D01*
X48012982Y-39912487D01*
X48012984Y-39912485D01*
X48050500Y-39772475D01*
X48050500Y-39627525D01*
X48012984Y-39487515D01*
X48012982Y-39487512D01*
X48012982Y-39487510D01*
X47940512Y-39361989D01*
X47940510Y-39361987D01*
X47940509Y-39361985D01*
X47838015Y-39259491D01*
X47838012Y-39259489D01*
X47838010Y-39259487D01*
X47745714Y-39206199D01*
X47745711Y-39206199D01*
X47712486Y-39187016D01*
X47619069Y-39161985D01*
X47572475Y-39149500D01*
X47427525Y-39149500D01*
X47380931Y-39161985D01*
X47287510Y-39187017D01*
X47161989Y-39259487D01*
X47059487Y-39361989D01*
X46987017Y-39487510D01*
X46949500Y-39627525D01*
X43635749Y-39627525D01*
X43650500Y-39572475D01*
X43650500Y-39427525D01*
X43612984Y-39287515D01*
X43612982Y-39287512D01*
X43612982Y-39287510D01*
X43540512Y-39161989D01*
X43540510Y-39161987D01*
X43540509Y-39161985D01*
X43503851Y-39125327D01*
X54899500Y-39125327D01*
X54899500Y-40874672D01*
X54899501Y-40874684D01*
X54914033Y-40947736D01*
X54914035Y-40947742D01*
X54969397Y-41030599D01*
X54969400Y-41030602D01*
X54980495Y-41038015D01*
X55052260Y-41085966D01*
X55107808Y-41097015D01*
X55125315Y-41100498D01*
X55125320Y-41100498D01*
X55125326Y-41100500D01*
X55125327Y-41100500D01*
X56874673Y-41100500D01*
X56874674Y-41100500D01*
X56947740Y-41085966D01*
X57030601Y-41030601D01*
X57085966Y-40947740D01*
X57100500Y-40874674D01*
X57100500Y-39125326D01*
X57085966Y-39052260D01*
X57085964Y-39052257D01*
X57030602Y-38969400D01*
X57030599Y-38969397D01*
X56947742Y-38914035D01*
X56947740Y-38914034D01*
X56947737Y-38914033D01*
X56947736Y-38914033D01*
X56874684Y-38899501D01*
X56874674Y-38899500D01*
X55125326Y-38899500D01*
X55125325Y-38899500D01*
X55125315Y-38899501D01*
X55052263Y-38914033D01*
X55052257Y-38914035D01*
X54969400Y-38969397D01*
X54969397Y-38969400D01*
X54914035Y-39052257D01*
X54914033Y-39052263D01*
X54899501Y-39125315D01*
X54899500Y-39125327D01*
X43503851Y-39125327D01*
X43438015Y-39059491D01*
X43438012Y-39059489D01*
X43438010Y-39059487D01*
X43312488Y-38987017D01*
X43312489Y-38987017D01*
X43246738Y-38969399D01*
X43172475Y-38949500D01*
X43027525Y-38949500D01*
X42965790Y-38966041D01*
X42887510Y-38987017D01*
X42761989Y-39059487D01*
X42659487Y-39161989D01*
X42587017Y-39287510D01*
X42558105Y-39395412D01*
X42549500Y-39427525D01*
X41904301Y-39427525D01*
X41912984Y-39412485D01*
X41950500Y-39272475D01*
X41950500Y-39127525D01*
X41912984Y-38987515D01*
X41912982Y-38987512D01*
X41912982Y-38987510D01*
X41840512Y-38861989D01*
X41840510Y-38861987D01*
X41840509Y-38861985D01*
X41738015Y-38759491D01*
X41738012Y-38759489D01*
X41738010Y-38759487D01*
X41612488Y-38687017D01*
X41612489Y-38687017D01*
X41582896Y-38679087D01*
X41472475Y-38649500D01*
X41327525Y-38649500D01*
X41265790Y-38666041D01*
X41187510Y-38687017D01*
X41061989Y-38759487D01*
X40959487Y-38861989D01*
X40887017Y-38987510D01*
X40867731Y-39059487D01*
X40849500Y-39127525D01*
X31850999Y-39127525D01*
X31940509Y-39038015D01*
X31969953Y-38987017D01*
X32012982Y-38912489D01*
X32012982Y-38912487D01*
X32012984Y-38912485D01*
X32050500Y-38772475D01*
X32050500Y-38627525D01*
X32012984Y-38487515D01*
X32012982Y-38487512D01*
X32012982Y-38487510D01*
X31940512Y-38361989D01*
X31940510Y-38361987D01*
X31940509Y-38361985D01*
X31838015Y-38259491D01*
X31838012Y-38259489D01*
X31838010Y-38259487D01*
X31712488Y-38187017D01*
X31712489Y-38187017D01*
X31682896Y-38179087D01*
X31572475Y-38149500D01*
X31427525Y-38149500D01*
X31365790Y-38166041D01*
X31287510Y-38187017D01*
X31161989Y-38259487D01*
X31059487Y-38361989D01*
X30987017Y-38487510D01*
X30987016Y-38487515D01*
X30949500Y-38627525D01*
X23904301Y-38627525D01*
X23912982Y-38612489D01*
X23912982Y-38612487D01*
X23912984Y-38612485D01*
X23950500Y-38472475D01*
X23950500Y-38327525D01*
X23912984Y-38187515D01*
X23912982Y-38187512D01*
X23912982Y-38187510D01*
X23840512Y-38061989D01*
X23840510Y-38061987D01*
X23840509Y-38061985D01*
X23738015Y-37959491D01*
X23738012Y-37959489D01*
X23738010Y-37959487D01*
X23612488Y-37887017D01*
X23612489Y-37887017D01*
X23582896Y-37879087D01*
X23472475Y-37849500D01*
X23327525Y-37849500D01*
X23265790Y-37866041D01*
X23187510Y-37887017D01*
X23061989Y-37959487D01*
X22959487Y-38061989D01*
X22887017Y-38187510D01*
X22849500Y-38327525D01*
X300500Y-38327525D01*
X300500Y-36727525D01*
X32349500Y-36727525D01*
X32349500Y-36872474D01*
X32387017Y-37012489D01*
X32459487Y-37138010D01*
X32459489Y-37138012D01*
X32459491Y-37138015D01*
X32561985Y-37240509D01*
X32561987Y-37240510D01*
X32561989Y-37240512D01*
X32687511Y-37312982D01*
X32687512Y-37312982D01*
X32687515Y-37312984D01*
X32827525Y-37350500D01*
X32827526Y-37350500D01*
X32972474Y-37350500D01*
X32972475Y-37350500D01*
X33112485Y-37312984D01*
X33112487Y-37312982D01*
X33112489Y-37312982D01*
X33238010Y-37240512D01*
X33238010Y-37240511D01*
X33238015Y-37240509D01*
X33340509Y-37138015D01*
X33412984Y-37012485D01*
X33450500Y-36872475D01*
X33450500Y-36727525D01*
X33412984Y-36587515D01*
X33412982Y-36587512D01*
X33412982Y-36587510D01*
X33340512Y-36461989D01*
X33340510Y-36461987D01*
X33340509Y-36461985D01*
X33238015Y-36359491D01*
X33238012Y-36359489D01*
X33238010Y-36359487D01*
X33112488Y-36287017D01*
X33112489Y-36287017D01*
X33082896Y-36279087D01*
X32972475Y-36249500D01*
X32827525Y-36249500D01*
X32765790Y-36266041D01*
X32687510Y-36287017D01*
X32561989Y-36359487D01*
X32459487Y-36461989D01*
X32387017Y-36587510D01*
X32349500Y-36727525D01*
X300500Y-36727525D01*
X300500Y-35627525D01*
X51149500Y-35627525D01*
X51149500Y-35772474D01*
X51187017Y-35912489D01*
X51259487Y-36038010D01*
X51259489Y-36038012D01*
X51259491Y-36038015D01*
X51361985Y-36140509D01*
X51361987Y-36140510D01*
X51361989Y-36140512D01*
X51487511Y-36212982D01*
X51487512Y-36212982D01*
X51487515Y-36212984D01*
X51627525Y-36250500D01*
X51627526Y-36250500D01*
X51772474Y-36250500D01*
X51772475Y-36250500D01*
X51912485Y-36212984D01*
X51912487Y-36212982D01*
X51912489Y-36212982D01*
X52038010Y-36140512D01*
X52038010Y-36140511D01*
X52038015Y-36140509D01*
X52140509Y-36038015D01*
X52212984Y-35912485D01*
X52250500Y-35772475D01*
X52250500Y-35627525D01*
X52212984Y-35487515D01*
X52212982Y-35487512D01*
X52212982Y-35487510D01*
X52140512Y-35361989D01*
X52140510Y-35361987D01*
X52140509Y-35361985D01*
X52038015Y-35259491D01*
X52038012Y-35259489D01*
X52038010Y-35259487D01*
X51912488Y-35187017D01*
X51912489Y-35187017D01*
X51882896Y-35179087D01*
X51772475Y-35149500D01*
X51627525Y-35149500D01*
X51565790Y-35166041D01*
X51487510Y-35187017D01*
X51361989Y-35259487D01*
X51259487Y-35361989D01*
X51187017Y-35487510D01*
X51149500Y-35627525D01*
X300500Y-35627525D01*
X300500Y-34727525D01*
X42049500Y-34727525D01*
X42049500Y-34872474D01*
X42087017Y-35012489D01*
X42159487Y-35138010D01*
X42159489Y-35138012D01*
X42159491Y-35138015D01*
X42261985Y-35240509D01*
X42261987Y-35240510D01*
X42261989Y-35240512D01*
X42387511Y-35312982D01*
X42387512Y-35312982D01*
X42387515Y-35312984D01*
X42527525Y-35350500D01*
X42527526Y-35350500D01*
X42672474Y-35350500D01*
X42672475Y-35350500D01*
X42812485Y-35312984D01*
X42812487Y-35312982D01*
X42812489Y-35312982D01*
X42938010Y-35240512D01*
X42938010Y-35240511D01*
X42938015Y-35240509D01*
X43040509Y-35138015D01*
X43112984Y-35012485D01*
X43150500Y-34872475D01*
X43150500Y-34727525D01*
X43112984Y-34587515D01*
X43112982Y-34587512D01*
X43112982Y-34587510D01*
X43040512Y-34461989D01*
X43040510Y-34461987D01*
X43040509Y-34461985D01*
X42938015Y-34359491D01*
X42938012Y-34359489D01*
X42938010Y-34359487D01*
X42812488Y-34287017D01*
X42812489Y-34287017D01*
X42782896Y-34279087D01*
X42672475Y-34249500D01*
X42527525Y-34249500D01*
X42465790Y-34266041D01*
X42387510Y-34287017D01*
X42261989Y-34359487D01*
X42159487Y-34461989D01*
X42087017Y-34587510D01*
X42049500Y-34727525D01*
X300500Y-34727525D01*
X300500Y-33927525D01*
X51449500Y-33927525D01*
X51449500Y-34072474D01*
X51487017Y-34212489D01*
X51559487Y-34338010D01*
X51559489Y-34338012D01*
X51559491Y-34338015D01*
X51661985Y-34440509D01*
X51661987Y-34440510D01*
X51661989Y-34440512D01*
X51787511Y-34512982D01*
X51787512Y-34512982D01*
X51787515Y-34512984D01*
X51927525Y-34550500D01*
X51927526Y-34550500D01*
X52072474Y-34550500D01*
X52072475Y-34550500D01*
X52212485Y-34512984D01*
X52212487Y-34512982D01*
X52212489Y-34512982D01*
X52338010Y-34440512D01*
X52338010Y-34440511D01*
X52338015Y-34440509D01*
X52440509Y-34338015D01*
X52469953Y-34287017D01*
X52512982Y-34212489D01*
X52512982Y-34212487D01*
X52512984Y-34212485D01*
X52550500Y-34072475D01*
X52550500Y-33927525D01*
X52512984Y-33787515D01*
X52512982Y-33787512D01*
X52512982Y-33787510D01*
X52440512Y-33661989D01*
X52440510Y-33661987D01*
X52440509Y-33661985D01*
X52338015Y-33559491D01*
X52338012Y-33559489D01*
X52338010Y-33559487D01*
X52212488Y-33487017D01*
X52212489Y-33487017D01*
X52182896Y-33479087D01*
X52072475Y-33449500D01*
X51927525Y-33449500D01*
X51865790Y-33466041D01*
X51787510Y-33487017D01*
X51661989Y-33559487D01*
X51559487Y-33661989D01*
X51487017Y-33787510D01*
X51449500Y-33927525D01*
X300500Y-33927525D01*
X300500Y-32627525D01*
X20849500Y-32627525D01*
X20849500Y-32772474D01*
X20887017Y-32912489D01*
X20959487Y-33038010D01*
X20959489Y-33038012D01*
X20959491Y-33038015D01*
X21061985Y-33140509D01*
X21061987Y-33140510D01*
X21061989Y-33140512D01*
X21187511Y-33212982D01*
X21187512Y-33212982D01*
X21187515Y-33212984D01*
X21327525Y-33250500D01*
X21327526Y-33250500D01*
X21472474Y-33250500D01*
X21472475Y-33250500D01*
X21612485Y-33212984D01*
X21612487Y-33212982D01*
X21612489Y-33212982D01*
X21738010Y-33140512D01*
X21738010Y-33140511D01*
X21738015Y-33140509D01*
X21840509Y-33038015D01*
X21840512Y-33038010D01*
X21912982Y-32912489D01*
X21912982Y-32912487D01*
X21912984Y-32912485D01*
X21950500Y-32772475D01*
X21950500Y-32727525D01*
X32349500Y-32727525D01*
X32349500Y-32872475D01*
X32360221Y-32912485D01*
X32387017Y-33012489D01*
X32459487Y-33138010D01*
X32459489Y-33138012D01*
X32459491Y-33138015D01*
X32561985Y-33240509D01*
X32561987Y-33240510D01*
X32561989Y-33240512D01*
X32687511Y-33312982D01*
X32687512Y-33312982D01*
X32687515Y-33312984D01*
X32827525Y-33350500D01*
X32827526Y-33350500D01*
X32972474Y-33350500D01*
X32972475Y-33350500D01*
X33112485Y-33312984D01*
X33112487Y-33312982D01*
X33112489Y-33312982D01*
X33238010Y-33240512D01*
X33238010Y-33240511D01*
X33238015Y-33240509D01*
X33340509Y-33138015D01*
X33412984Y-33012485D01*
X33435749Y-32927525D01*
X36649500Y-32927525D01*
X36649500Y-33072474D01*
X36687017Y-33212489D01*
X36759487Y-33338010D01*
X36759489Y-33338012D01*
X36759491Y-33338015D01*
X36861985Y-33440509D01*
X36861987Y-33440510D01*
X36861989Y-33440512D01*
X36987511Y-33512982D01*
X36987512Y-33512982D01*
X36987515Y-33512984D01*
X37127525Y-33550500D01*
X37127526Y-33550500D01*
X37272474Y-33550500D01*
X37272475Y-33550500D01*
X37412485Y-33512984D01*
X37412487Y-33512982D01*
X37412489Y-33512982D01*
X37538010Y-33440512D01*
X37538010Y-33440511D01*
X37538015Y-33440509D01*
X37640509Y-33338015D01*
X37696803Y-33240512D01*
X37712982Y-33212489D01*
X37712982Y-33212487D01*
X37712984Y-33212485D01*
X37750500Y-33072475D01*
X37750500Y-32927525D01*
X37712984Y-32787515D01*
X37712982Y-32787512D01*
X37712982Y-32787510D01*
X37640512Y-32661989D01*
X37640510Y-32661987D01*
X37640509Y-32661985D01*
X37538015Y-32559491D01*
X37538012Y-32559489D01*
X37538010Y-32559487D01*
X37412488Y-32487017D01*
X37412489Y-32487017D01*
X37382896Y-32479087D01*
X37272475Y-32449500D01*
X37127525Y-32449500D01*
X37080931Y-32461985D01*
X36987510Y-32487017D01*
X36861989Y-32559487D01*
X36759487Y-32661989D01*
X36687017Y-32787510D01*
X36649500Y-32927525D01*
X33435749Y-32927525D01*
X33450500Y-32872475D01*
X33450500Y-32727525D01*
X33412984Y-32587515D01*
X33412982Y-32587512D01*
X33412982Y-32587510D01*
X33340512Y-32461989D01*
X33340510Y-32461987D01*
X33340509Y-32461985D01*
X33238015Y-32359491D01*
X33238012Y-32359489D01*
X33238010Y-32359487D01*
X33112488Y-32287017D01*
X33112489Y-32287017D01*
X33009761Y-32259491D01*
X32972475Y-32249500D01*
X32827525Y-32249500D01*
X32790239Y-32259491D01*
X32687510Y-32287017D01*
X32561989Y-32359487D01*
X32459487Y-32461989D01*
X32387017Y-32587510D01*
X32349500Y-32727525D01*
X21950500Y-32727525D01*
X21950500Y-32627525D01*
X21912984Y-32487515D01*
X21912982Y-32487512D01*
X21912982Y-32487510D01*
X21840512Y-32361989D01*
X21840510Y-32361987D01*
X21840509Y-32361985D01*
X21738015Y-32259491D01*
X21738012Y-32259489D01*
X21738010Y-32259487D01*
X21612488Y-32187017D01*
X21612489Y-32187017D01*
X21582896Y-32179087D01*
X21472475Y-32149500D01*
X21327525Y-32149500D01*
X21265790Y-32166041D01*
X21187510Y-32187017D01*
X21061989Y-32259487D01*
X20959487Y-32361989D01*
X20887017Y-32487510D01*
X20849500Y-32627525D01*
X300500Y-32627525D01*
X300500Y-29127525D01*
X12449500Y-29127525D01*
X12449500Y-29272475D01*
X12470407Y-29350500D01*
X12487017Y-29412489D01*
X12559487Y-29538010D01*
X12559489Y-29538012D01*
X12559491Y-29538015D01*
X12661985Y-29640509D01*
X12661987Y-29640510D01*
X12661989Y-29640512D01*
X12787511Y-29712982D01*
X12787512Y-29712982D01*
X12787515Y-29712984D01*
X12927525Y-29750500D01*
X12927526Y-29750500D01*
X13072474Y-29750500D01*
X13072475Y-29750500D01*
X13212485Y-29712984D01*
X13212487Y-29712982D01*
X13212489Y-29712982D01*
X13338010Y-29640512D01*
X13338010Y-29640511D01*
X13338015Y-29640509D01*
X13440509Y-29538015D01*
X13512984Y-29412485D01*
X13550500Y-29272475D01*
X13550500Y-29127525D01*
X13512984Y-28987515D01*
X13512982Y-28987512D01*
X13512982Y-28987510D01*
X13440512Y-28861989D01*
X13440510Y-28861987D01*
X13440509Y-28861985D01*
X13338015Y-28759491D01*
X13338012Y-28759489D01*
X13338010Y-28759487D01*
X13282650Y-28727525D01*
X32349500Y-28727525D01*
X32349500Y-28872474D01*
X32387017Y-29012489D01*
X32459487Y-29138010D01*
X32459489Y-29138012D01*
X32459491Y-29138015D01*
X32561985Y-29240509D01*
X32561987Y-29240510D01*
X32561989Y-29240512D01*
X32687511Y-29312982D01*
X32687512Y-29312982D01*
X32687515Y-29312984D01*
X32827525Y-29350500D01*
X32827526Y-29350500D01*
X32972474Y-29350500D01*
X32972475Y-29350500D01*
X33112485Y-29312984D01*
X33112487Y-29312982D01*
X33112489Y-29312982D01*
X33238010Y-29240512D01*
X33238010Y-29240511D01*
X33238015Y-29240509D01*
X33340509Y-29138015D01*
X33340512Y-29138010D01*
X33412982Y-29012489D01*
X33412982Y-29012487D01*
X33412984Y-29012485D01*
X33450500Y-28872475D01*
X33450500Y-28727525D01*
X36349500Y-28727525D01*
X36349500Y-28872474D01*
X36387017Y-29012489D01*
X36459487Y-29138010D01*
X36459489Y-29138012D01*
X36459491Y-29138015D01*
X36561985Y-29240509D01*
X36561987Y-29240510D01*
X36561989Y-29240512D01*
X36687511Y-29312982D01*
X36687512Y-29312982D01*
X36687515Y-29312984D01*
X36827525Y-29350500D01*
X36827526Y-29350500D01*
X36972474Y-29350500D01*
X36972475Y-29350500D01*
X37112485Y-29312984D01*
X37112487Y-29312982D01*
X37112489Y-29312982D01*
X37238010Y-29240512D01*
X37238010Y-29240511D01*
X37238015Y-29240509D01*
X37340509Y-29138015D01*
X37340512Y-29138010D01*
X37412982Y-29012489D01*
X37412982Y-29012487D01*
X37412984Y-29012485D01*
X37450500Y-28872475D01*
X37450500Y-28727525D01*
X37412984Y-28587515D01*
X37340509Y-28461985D01*
X37238015Y-28359491D01*
X37238012Y-28359489D01*
X37238010Y-28359487D01*
X37112488Y-28287017D01*
X37112489Y-28287017D01*
X37082896Y-28279087D01*
X36972475Y-28249500D01*
X36827525Y-28249500D01*
X36765790Y-28266041D01*
X36687510Y-28287017D01*
X36561989Y-28359487D01*
X36459487Y-28461989D01*
X36387017Y-28587510D01*
X36349500Y-28727525D01*
X33450500Y-28727525D01*
X33412984Y-28587515D01*
X33412982Y-28587512D01*
X33412982Y-28587510D01*
X33340512Y-28461989D01*
X33340510Y-28461987D01*
X33340509Y-28461985D01*
X33238015Y-28359491D01*
X33238012Y-28359489D01*
X33238010Y-28359487D01*
X33112488Y-28287017D01*
X33112489Y-28287017D01*
X33082896Y-28279087D01*
X32972475Y-28249500D01*
X32827525Y-28249500D01*
X32765790Y-28266041D01*
X32687510Y-28287017D01*
X32561989Y-28359487D01*
X32459487Y-28461989D01*
X32387017Y-28587510D01*
X32349500Y-28727525D01*
X13282650Y-28727525D01*
X13212488Y-28687017D01*
X13212489Y-28687017D01*
X13182896Y-28679087D01*
X13072475Y-28649500D01*
X12927525Y-28649500D01*
X12865790Y-28666041D01*
X12787510Y-28687017D01*
X12661989Y-28759487D01*
X12559487Y-28861989D01*
X12487017Y-28987510D01*
X12487016Y-28987515D01*
X12449500Y-29127525D01*
X300500Y-29127525D01*
X300500Y-28120000D01*
X51839108Y-28120000D01*
X52390735Y-28120000D01*
X52374940Y-28135795D01*
X52335444Y-28204204D01*
X52315000Y-28280504D01*
X52315000Y-28359496D01*
X52335444Y-28435796D01*
X52374940Y-28504205D01*
X52390735Y-28520000D01*
X51839109Y-28520000D01*
X51845742Y-28553349D01*
X51906048Y-28698940D01*
X51906052Y-28698949D01*
X51993599Y-28829969D01*
X51993602Y-28829973D01*
X52105026Y-28941397D01*
X52105030Y-28941400D01*
X52236050Y-29028947D01*
X52236059Y-29028951D01*
X52381650Y-29089257D01*
X52536204Y-29119999D01*
X52536208Y-29120000D01*
X52964999Y-29120000D01*
X52965000Y-29119999D01*
X52965000Y-28620000D01*
X53365000Y-28620000D01*
X53365000Y-29119999D01*
X53365001Y-29120000D01*
X53793792Y-29120000D01*
X53793795Y-29119999D01*
X53948349Y-29089257D01*
X54093940Y-29028951D01*
X54093949Y-29028947D01*
X54224969Y-28941400D01*
X54224973Y-28941397D01*
X54336397Y-28829973D01*
X54336400Y-28829969D01*
X54423947Y-28698949D01*
X54423951Y-28698940D01*
X54484257Y-28553349D01*
X54490891Y-28520000D01*
X53939265Y-28520000D01*
X53955060Y-28504205D01*
X53994556Y-28435796D01*
X54015000Y-28359496D01*
X54015000Y-28280504D01*
X53994556Y-28204204D01*
X53955060Y-28135795D01*
X53939265Y-28120000D01*
X54490891Y-28120000D01*
X56269108Y-28120000D01*
X56820735Y-28120000D01*
X56804940Y-28135795D01*
X56765444Y-28204204D01*
X56745000Y-28280504D01*
X56745000Y-28359496D01*
X56765444Y-28435796D01*
X56804940Y-28504205D01*
X56820735Y-28520000D01*
X56269109Y-28520000D01*
X56275742Y-28553349D01*
X56336048Y-28698940D01*
X56336052Y-28698949D01*
X56423599Y-28829969D01*
X56423602Y-28829973D01*
X56535026Y-28941397D01*
X56535030Y-28941400D01*
X56666050Y-29028947D01*
X56666059Y-29028951D01*
X56811650Y-29089257D01*
X56966204Y-29119999D01*
X56966208Y-29120000D01*
X57144999Y-29120000D01*
X57145000Y-29119999D01*
X57145000Y-28620000D01*
X57545000Y-28620000D01*
X57545000Y-29119999D01*
X57545001Y-29120000D01*
X57723792Y-29120000D01*
X57723795Y-29119999D01*
X57878349Y-29089257D01*
X58023940Y-29028951D01*
X58023949Y-29028947D01*
X58154969Y-28941400D01*
X58154973Y-28941397D01*
X58266397Y-28829973D01*
X58266400Y-28829969D01*
X58353947Y-28698949D01*
X58353951Y-28698940D01*
X58414257Y-28553349D01*
X58420891Y-28520000D01*
X57869265Y-28520000D01*
X57885060Y-28504205D01*
X57924556Y-28435796D01*
X57945000Y-28359496D01*
X57945000Y-28280504D01*
X57924556Y-28204204D01*
X57885060Y-28135795D01*
X57869265Y-28120000D01*
X58420891Y-28120000D01*
X58414257Y-28086650D01*
X58353951Y-27941059D01*
X58353947Y-27941050D01*
X58266400Y-27810030D01*
X58266397Y-27810026D01*
X58154973Y-27698602D01*
X58154969Y-27698599D01*
X58023949Y-27611052D01*
X58023940Y-27611048D01*
X57878349Y-27550742D01*
X57723795Y-27520000D01*
X57545001Y-27520000D01*
X57545000Y-27520001D01*
X57545000Y-28020000D01*
X57145000Y-28020000D01*
X57145000Y-27520001D01*
X57144999Y-27520000D01*
X56966204Y-27520000D01*
X56811650Y-27550742D01*
X56666059Y-27611048D01*
X56666050Y-27611052D01*
X56535030Y-27698599D01*
X56535026Y-27698602D01*
X56423602Y-27810026D01*
X56423599Y-27810030D01*
X56336052Y-27941050D01*
X56336048Y-27941059D01*
X56275742Y-28086650D01*
X56269108Y-28120000D01*
X54490891Y-28120000D01*
X54484257Y-28086650D01*
X54423951Y-27941059D01*
X54423947Y-27941050D01*
X54336400Y-27810030D01*
X54336397Y-27810026D01*
X54224973Y-27698602D01*
X54224969Y-27698599D01*
X54093949Y-27611052D01*
X54093940Y-27611048D01*
X53948349Y-27550742D01*
X53841298Y-27529449D01*
X53787914Y-27499552D01*
X53762298Y-27443987D01*
X53774235Y-27383977D01*
X53819165Y-27342445D01*
X53834986Y-27336725D01*
X53848536Y-27333095D01*
X53956964Y-27270495D01*
X54045495Y-27181964D01*
X54108095Y-27073536D01*
X54140500Y-26952601D01*
X54140500Y-26827399D01*
X54108095Y-26706464D01*
X54045495Y-26598036D01*
X53956964Y-26509505D01*
X53848536Y-26446905D01*
X53727601Y-26414500D01*
X53602399Y-26414500D01*
X53521775Y-26436103D01*
X53481463Y-26446905D01*
X53373036Y-26509505D01*
X53284505Y-26598036D01*
X53221905Y-26706463D01*
X53221905Y-26706464D01*
X53189500Y-26827399D01*
X53189500Y-26952601D01*
X53221905Y-27073536D01*
X53284505Y-27181964D01*
X53373036Y-27270495D01*
X53481464Y-27333095D01*
X53481465Y-27333095D01*
X53485220Y-27335263D01*
X53526161Y-27380733D01*
X53532557Y-27441583D01*
X53501964Y-27494571D01*
X53446069Y-27519458D01*
X53435720Y-27520000D01*
X53365001Y-27520000D01*
X53365000Y-27520001D01*
X53365000Y-28020000D01*
X52965000Y-28020000D01*
X52965000Y-27520001D01*
X52964999Y-27520000D01*
X52536204Y-27520000D01*
X52381650Y-27550742D01*
X52236059Y-27611048D01*
X52236050Y-27611052D01*
X52105030Y-27698599D01*
X52105026Y-27698602D01*
X51993602Y-27810026D01*
X51993599Y-27810030D01*
X51906052Y-27941050D01*
X51906048Y-27941059D01*
X51845742Y-28086650D01*
X51839108Y-28120000D01*
X300500Y-28120000D01*
X300500Y-26327525D01*
X49849500Y-26327525D01*
X49849500Y-26472474D01*
X49887017Y-26612489D01*
X49959487Y-26738010D01*
X49959489Y-26738012D01*
X49959491Y-26738015D01*
X50061985Y-26840509D01*
X50061987Y-26840510D01*
X50061989Y-26840512D01*
X50187511Y-26912982D01*
X50187512Y-26912982D01*
X50187515Y-26912984D01*
X50327525Y-26950500D01*
X50327526Y-26950500D01*
X50472474Y-26950500D01*
X50472475Y-26950500D01*
X50612485Y-26912984D01*
X50612487Y-26912982D01*
X50612489Y-26912982D01*
X50738010Y-26840512D01*
X50738010Y-26840511D01*
X50738015Y-26840509D01*
X50840509Y-26738015D01*
X50912984Y-26612485D01*
X50950500Y-26472475D01*
X50950500Y-26327525D01*
X50932674Y-26260998D01*
X50935876Y-26199899D01*
X50974381Y-26152349D01*
X51033482Y-26136513D01*
X51077801Y-26149641D01*
X51187511Y-26212982D01*
X51187512Y-26212982D01*
X51187515Y-26212984D01*
X51327525Y-26250500D01*
X51327526Y-26250500D01*
X51472474Y-26250500D01*
X51472475Y-26250500D01*
X51612485Y-26212984D01*
X51612487Y-26212982D01*
X51612489Y-26212982D01*
X51738010Y-26140512D01*
X51738010Y-26140511D01*
X51738015Y-26140509D01*
X51840509Y-26038015D01*
X51840512Y-26038010D01*
X51912982Y-25912489D01*
X51912982Y-25912487D01*
X51912984Y-25912485D01*
X51950500Y-25772475D01*
X51950500Y-25627525D01*
X51912984Y-25487515D01*
X51912982Y-25487512D01*
X51912982Y-25487510D01*
X51840512Y-25361989D01*
X51840510Y-25361987D01*
X51840509Y-25361985D01*
X51738015Y-25259491D01*
X51738012Y-25259489D01*
X51738010Y-25259487D01*
X51612488Y-25187017D01*
X51612489Y-25187017D01*
X51582896Y-25179087D01*
X51472475Y-25149500D01*
X51327525Y-25149500D01*
X51265790Y-25166041D01*
X51187510Y-25187017D01*
X51061989Y-25259487D01*
X50959487Y-25361989D01*
X50887017Y-25487510D01*
X50849500Y-25627525D01*
X50849500Y-25772474D01*
X50867325Y-25838999D01*
X50864122Y-25900101D01*
X50825617Y-25947651D01*
X50766516Y-25963486D01*
X50722198Y-25950359D01*
X50612486Y-25887016D01*
X50542480Y-25868258D01*
X50472475Y-25849500D01*
X50327525Y-25849500D01*
X50265790Y-25866041D01*
X50187510Y-25887017D01*
X50061989Y-25959487D01*
X49959487Y-26061989D01*
X49887017Y-26187510D01*
X49849500Y-26327525D01*
X300500Y-26327525D01*
X300500Y-24727525D01*
X32349500Y-24727525D01*
X32349500Y-24872474D01*
X32387017Y-25012489D01*
X32459487Y-25138010D01*
X32459489Y-25138012D01*
X32459491Y-25138015D01*
X32561985Y-25240509D01*
X32561987Y-25240510D01*
X32561989Y-25240512D01*
X32687511Y-25312982D01*
X32687512Y-25312982D01*
X32687515Y-25312984D01*
X32827525Y-25350500D01*
X32827526Y-25350500D01*
X32972474Y-25350500D01*
X32972475Y-25350500D01*
X33112485Y-25312984D01*
X33112487Y-25312982D01*
X33112489Y-25312982D01*
X33238010Y-25240512D01*
X33238010Y-25240511D01*
X33238015Y-25240509D01*
X33340509Y-25138015D01*
X33412984Y-25012485D01*
X33450500Y-24872475D01*
X33450500Y-24727525D01*
X33412984Y-24587515D01*
X33412982Y-24587512D01*
X33412982Y-24587510D01*
X33340512Y-24461989D01*
X33340510Y-24461987D01*
X33340509Y-24461985D01*
X33238015Y-24359491D01*
X33238012Y-24359489D01*
X33238010Y-24359487D01*
X33112488Y-24287017D01*
X33112489Y-24287017D01*
X33082896Y-24279087D01*
X32972475Y-24249500D01*
X32827525Y-24249500D01*
X32765790Y-24266041D01*
X32687510Y-24287017D01*
X32561989Y-24359487D01*
X32459487Y-24461989D01*
X32387017Y-24587510D01*
X32349500Y-24727525D01*
X300500Y-24727525D01*
X300500Y-23827525D01*
X36349500Y-23827525D01*
X36349500Y-23972474D01*
X36387017Y-24112489D01*
X36459487Y-24238010D01*
X36459489Y-24238012D01*
X36459491Y-24238015D01*
X36501474Y-24279998D01*
X36529250Y-24334513D01*
X36519679Y-24394945D01*
X36501475Y-24420000D01*
X36459491Y-24461985D01*
X36459488Y-24461988D01*
X36459487Y-24461989D01*
X36387017Y-24587510D01*
X36349500Y-24727525D01*
X36349500Y-24872474D01*
X36387017Y-25012489D01*
X36459487Y-25138010D01*
X36459489Y-25138012D01*
X36459491Y-25138015D01*
X36561985Y-25240509D01*
X36561987Y-25240510D01*
X36561989Y-25240512D01*
X36687511Y-25312982D01*
X36687512Y-25312982D01*
X36687515Y-25312984D01*
X36827525Y-25350500D01*
X36827526Y-25350500D01*
X36972474Y-25350500D01*
X36972475Y-25350500D01*
X37112485Y-25312984D01*
X37112487Y-25312982D01*
X37112489Y-25312982D01*
X37238010Y-25240512D01*
X37238010Y-25240511D01*
X37238015Y-25240509D01*
X37340509Y-25138015D01*
X37412984Y-25012485D01*
X37450500Y-24872475D01*
X37450500Y-24727525D01*
X37412984Y-24587515D01*
X37412982Y-24587512D01*
X37412982Y-24587510D01*
X37340512Y-24461989D01*
X37340510Y-24461987D01*
X37340509Y-24461985D01*
X37298525Y-24420001D01*
X37270750Y-24365487D01*
X37280321Y-24305055D01*
X37298524Y-24279999D01*
X37340509Y-24238015D01*
X37412984Y-24112485D01*
X37450500Y-23972475D01*
X37450500Y-23827525D01*
X37412984Y-23687515D01*
X37412982Y-23687512D01*
X37412982Y-23687510D01*
X37340512Y-23561989D01*
X37340510Y-23561987D01*
X37340509Y-23561985D01*
X37238015Y-23459491D01*
X37238012Y-23459489D01*
X37238010Y-23459487D01*
X37112488Y-23387017D01*
X37112489Y-23387017D01*
X37082896Y-23379087D01*
X36972475Y-23349500D01*
X36827525Y-23349500D01*
X36765790Y-23366041D01*
X36687510Y-23387017D01*
X36561989Y-23459487D01*
X36459487Y-23561989D01*
X36387017Y-23687510D01*
X36349500Y-23827525D01*
X300500Y-23827525D01*
X300500Y-21127525D01*
X12449500Y-21127525D01*
X12449500Y-21272475D01*
X12479087Y-21382896D01*
X12487017Y-21412489D01*
X12559487Y-21538010D01*
X12559489Y-21538012D01*
X12559491Y-21538015D01*
X12661985Y-21640509D01*
X12661987Y-21640510D01*
X12661989Y-21640512D01*
X12787511Y-21712982D01*
X12787512Y-21712982D01*
X12787515Y-21712984D01*
X12927525Y-21750500D01*
X12927526Y-21750500D01*
X13072474Y-21750500D01*
X13072475Y-21750500D01*
X13212485Y-21712984D01*
X13212487Y-21712982D01*
X13212489Y-21712982D01*
X13338010Y-21640512D01*
X13338010Y-21640511D01*
X13338015Y-21640509D01*
X13440509Y-21538015D01*
X13467945Y-21490495D01*
X13504301Y-21427525D01*
X50949500Y-21427525D01*
X50949500Y-21572474D01*
X50987017Y-21712489D01*
X51059487Y-21838010D01*
X51059489Y-21838012D01*
X51059491Y-21838015D01*
X51161985Y-21940509D01*
X51161987Y-21940510D01*
X51161989Y-21940512D01*
X51287511Y-22012982D01*
X51287512Y-22012982D01*
X51287515Y-22012984D01*
X51427525Y-22050500D01*
X51427526Y-22050500D01*
X51572474Y-22050500D01*
X51572475Y-22050500D01*
X51712485Y-22012984D01*
X51712487Y-22012982D01*
X51712489Y-22012982D01*
X51838010Y-21940512D01*
X51838010Y-21940511D01*
X51838015Y-21940509D01*
X51940509Y-21838015D01*
X52012984Y-21712485D01*
X52050500Y-21572475D01*
X52050500Y-21427525D01*
X52012984Y-21287515D01*
X52012982Y-21287512D01*
X52012982Y-21287510D01*
X51940512Y-21161989D01*
X51940510Y-21161987D01*
X51940509Y-21161985D01*
X51838015Y-21059491D01*
X51838012Y-21059489D01*
X51838010Y-21059487D01*
X51712488Y-20987017D01*
X51712489Y-20987017D01*
X51682896Y-20979087D01*
X51572475Y-20949500D01*
X51427525Y-20949500D01*
X51365790Y-20966041D01*
X51287510Y-20987017D01*
X51161989Y-21059487D01*
X51059487Y-21161989D01*
X50987017Y-21287510D01*
X50949500Y-21427525D01*
X13504301Y-21427525D01*
X13512982Y-21412489D01*
X13512982Y-21412487D01*
X13512984Y-21412485D01*
X13550500Y-21272475D01*
X13550500Y-21127525D01*
X13512984Y-20987515D01*
X13512982Y-20987512D01*
X13512982Y-20987510D01*
X13440512Y-20861989D01*
X13440510Y-20861987D01*
X13440509Y-20861985D01*
X13338015Y-20759491D01*
X13338012Y-20759489D01*
X13338010Y-20759487D01*
X13212488Y-20687017D01*
X13212489Y-20687017D01*
X13182896Y-20679087D01*
X13072475Y-20649500D01*
X12927525Y-20649500D01*
X12891724Y-20659093D01*
X12787510Y-20687017D01*
X12661989Y-20759487D01*
X12559487Y-20861989D01*
X12487017Y-20987510D01*
X12487016Y-20987515D01*
X12449500Y-21127525D01*
X300500Y-21127525D01*
X300500Y-19480000D01*
X51839108Y-19480000D01*
X52390735Y-19480000D01*
X52374940Y-19495795D01*
X52335444Y-19564204D01*
X52315000Y-19640504D01*
X52315000Y-19719496D01*
X52335444Y-19795796D01*
X52374940Y-19864205D01*
X52390735Y-19880000D01*
X51839109Y-19880000D01*
X51845742Y-19913349D01*
X51906048Y-20058940D01*
X51906052Y-20058949D01*
X51993599Y-20189969D01*
X51993602Y-20189973D01*
X52105026Y-20301397D01*
X52105030Y-20301400D01*
X52236050Y-20388947D01*
X52236059Y-20388951D01*
X52381650Y-20449257D01*
X52536204Y-20479999D01*
X52536208Y-20480000D01*
X52964999Y-20480000D01*
X52965000Y-20479999D01*
X52965000Y-19980000D01*
X53365000Y-19980000D01*
X53365000Y-20479999D01*
X53365001Y-20480000D01*
X53435720Y-20480000D01*
X53493911Y-20498907D01*
X53529875Y-20548407D01*
X53529875Y-20609593D01*
X53493911Y-20659093D01*
X53485220Y-20664737D01*
X53481465Y-20666904D01*
X53481464Y-20666905D01*
X53373036Y-20729505D01*
X53284505Y-20818036D01*
X53221905Y-20926463D01*
X53221905Y-20926464D01*
X53189500Y-21047399D01*
X53189500Y-21172601D01*
X53221905Y-21293536D01*
X53284505Y-21401964D01*
X53373036Y-21490495D01*
X53481464Y-21553095D01*
X53602399Y-21585500D01*
X53602401Y-21585500D01*
X53727599Y-21585500D01*
X53727601Y-21585500D01*
X53848536Y-21553095D01*
X53956964Y-21490495D01*
X54045495Y-21401964D01*
X54108095Y-21293536D01*
X54140500Y-21172601D01*
X54140500Y-21047399D01*
X54108095Y-20926464D01*
X54045495Y-20818036D01*
X53956964Y-20729505D01*
X53848536Y-20666905D01*
X53848533Y-20666904D01*
X53848535Y-20666904D01*
X53834986Y-20663274D01*
X53783673Y-20629949D01*
X53761748Y-20572827D01*
X53777585Y-20513726D01*
X53825136Y-20475223D01*
X53841299Y-20470550D01*
X53948348Y-20449257D01*
X54093940Y-20388951D01*
X54093949Y-20388947D01*
X54224969Y-20301400D01*
X54224973Y-20301397D01*
X54336397Y-20189973D01*
X54336400Y-20189969D01*
X54423947Y-20058949D01*
X54423951Y-20058940D01*
X54484257Y-19913349D01*
X54490891Y-19880000D01*
X53939265Y-19880000D01*
X53955060Y-19864205D01*
X53994556Y-19795796D01*
X54015000Y-19719496D01*
X54015000Y-19640504D01*
X53994556Y-19564204D01*
X53955060Y-19495795D01*
X53939265Y-19480000D01*
X54490891Y-19480000D01*
X56269108Y-19480000D01*
X56820735Y-19480000D01*
X56804940Y-19495795D01*
X56765444Y-19564204D01*
X56745000Y-19640504D01*
X56745000Y-19719496D01*
X56765444Y-19795796D01*
X56804940Y-19864205D01*
X56820735Y-19880000D01*
X56269109Y-19880000D01*
X56275742Y-19913349D01*
X56336048Y-20058940D01*
X56336052Y-20058949D01*
X56423599Y-20189969D01*
X56423602Y-20189973D01*
X56535026Y-20301397D01*
X56535030Y-20301400D01*
X56666050Y-20388947D01*
X56666059Y-20388951D01*
X56811650Y-20449257D01*
X56966204Y-20479999D01*
X56966208Y-20480000D01*
X57144999Y-20480000D01*
X57145000Y-20479999D01*
X57145000Y-19980000D01*
X57545000Y-19980000D01*
X57545000Y-20479999D01*
X57545001Y-20480000D01*
X57723792Y-20480000D01*
X57723795Y-20479999D01*
X57878349Y-20449257D01*
X58023940Y-20388951D01*
X58023949Y-20388947D01*
X58154969Y-20301400D01*
X58154973Y-20301397D01*
X58266397Y-20189973D01*
X58266400Y-20189969D01*
X58353947Y-20058949D01*
X58353951Y-20058940D01*
X58414257Y-19913349D01*
X58420891Y-19880000D01*
X57869265Y-19880000D01*
X57885060Y-19864205D01*
X57924556Y-19795796D01*
X57945000Y-19719496D01*
X57945000Y-19640504D01*
X57924556Y-19564204D01*
X57885060Y-19495795D01*
X57869265Y-19480000D01*
X58420891Y-19480000D01*
X58414257Y-19446650D01*
X58353951Y-19301059D01*
X58353947Y-19301050D01*
X58266400Y-19170030D01*
X58266397Y-19170026D01*
X58154973Y-19058602D01*
X58154969Y-19058599D01*
X58023949Y-18971052D01*
X58023940Y-18971048D01*
X57878349Y-18910742D01*
X57723795Y-18880000D01*
X57545001Y-18880000D01*
X57545000Y-18880001D01*
X57545000Y-19380000D01*
X57145000Y-19380000D01*
X57145000Y-18880001D01*
X57144999Y-18880000D01*
X56966204Y-18880000D01*
X56811650Y-18910742D01*
X56666059Y-18971048D01*
X56666050Y-18971052D01*
X56535030Y-19058599D01*
X56535026Y-19058602D01*
X56423602Y-19170026D01*
X56423599Y-19170030D01*
X56336052Y-19301050D01*
X56336048Y-19301059D01*
X56275742Y-19446650D01*
X56269108Y-19480000D01*
X54490891Y-19480000D01*
X54484257Y-19446650D01*
X54423951Y-19301059D01*
X54423947Y-19301050D01*
X54336400Y-19170030D01*
X54336397Y-19170026D01*
X54224973Y-19058602D01*
X54224969Y-19058599D01*
X54093949Y-18971052D01*
X54093940Y-18971048D01*
X53948349Y-18910742D01*
X53793795Y-18880000D01*
X53365001Y-18880000D01*
X53365000Y-18880001D01*
X53365000Y-19380000D01*
X52965000Y-19380000D01*
X52965000Y-18880001D01*
X52964999Y-18880000D01*
X52536204Y-18880000D01*
X52381650Y-18910742D01*
X52236059Y-18971048D01*
X52236050Y-18971052D01*
X52105030Y-19058599D01*
X52105026Y-19058602D01*
X51993602Y-19170026D01*
X51993599Y-19170030D01*
X51906052Y-19301050D01*
X51906048Y-19301059D01*
X51845742Y-19446650D01*
X51839108Y-19480000D01*
X300500Y-19480000D01*
X300500Y-17227525D01*
X38249500Y-17227525D01*
X38249500Y-17372474D01*
X38287017Y-17512489D01*
X38359487Y-17638010D01*
X38359489Y-17638012D01*
X38359491Y-17638015D01*
X38461985Y-17740509D01*
X38461987Y-17740510D01*
X38461989Y-17740512D01*
X38587511Y-17812982D01*
X38587512Y-17812982D01*
X38587515Y-17812984D01*
X38727525Y-17850500D01*
X38727526Y-17850500D01*
X38872474Y-17850500D01*
X38872475Y-17850500D01*
X39012485Y-17812984D01*
X39012487Y-17812982D01*
X39012489Y-17812982D01*
X39138010Y-17740512D01*
X39138010Y-17740511D01*
X39138015Y-17740509D01*
X39240509Y-17638015D01*
X39312984Y-17512485D01*
X39350500Y-17372475D01*
X39350500Y-17227525D01*
X39312984Y-17087515D01*
X39312982Y-17087512D01*
X39312982Y-17087510D01*
X39240512Y-16961989D01*
X39240510Y-16961987D01*
X39240509Y-16961985D01*
X39138015Y-16859491D01*
X39138012Y-16859489D01*
X39138010Y-16859487D01*
X39012488Y-16787017D01*
X39012489Y-16787017D01*
X38982896Y-16779087D01*
X38872475Y-16749500D01*
X38727525Y-16749500D01*
X38665790Y-16766041D01*
X38587510Y-16787017D01*
X38461989Y-16859487D01*
X38359487Y-16961989D01*
X38287017Y-17087510D01*
X38249500Y-17227525D01*
X300500Y-17227525D01*
X300500Y-15027525D01*
X38849500Y-15027525D01*
X38849500Y-15172474D01*
X38887017Y-15312489D01*
X38959487Y-15438010D01*
X38959489Y-15438012D01*
X38959491Y-15438015D01*
X39061985Y-15540509D01*
X39061987Y-15540510D01*
X39061989Y-15540512D01*
X39187511Y-15612982D01*
X39187512Y-15612982D01*
X39187515Y-15612984D01*
X39327525Y-15650500D01*
X39327526Y-15650500D01*
X39472474Y-15650500D01*
X39472475Y-15650500D01*
X39612485Y-15612984D01*
X39612487Y-15612982D01*
X39612489Y-15612982D01*
X39738010Y-15540512D01*
X39738010Y-15540511D01*
X39738015Y-15540509D01*
X39840509Y-15438015D01*
X39912984Y-15312485D01*
X39950500Y-15172475D01*
X39950500Y-15027525D01*
X39912984Y-14887515D01*
X39912982Y-14887512D01*
X39912982Y-14887510D01*
X39840512Y-14761989D01*
X39840510Y-14761987D01*
X39840509Y-14761985D01*
X39738015Y-14659491D01*
X39738012Y-14659489D01*
X39738010Y-14659487D01*
X39646708Y-14606773D01*
X39646705Y-14606773D01*
X39612486Y-14587016D01*
X39542480Y-14568258D01*
X39472475Y-14549500D01*
X39327525Y-14549500D01*
X39265790Y-14566041D01*
X39187510Y-14587017D01*
X39061989Y-14659487D01*
X38959487Y-14761989D01*
X38887017Y-14887510D01*
X38849500Y-15027525D01*
X300500Y-15027525D01*
X300500Y-13927525D01*
X19049500Y-13927525D01*
X19049500Y-14072475D01*
X19053397Y-14087017D01*
X19087017Y-14212489D01*
X19159487Y-14338010D01*
X19159489Y-14338012D01*
X19159491Y-14338015D01*
X19261985Y-14440509D01*
X19261987Y-14440510D01*
X19261989Y-14440512D01*
X19387511Y-14512982D01*
X19387512Y-14512982D01*
X19387515Y-14512984D01*
X19527525Y-14550500D01*
X19527526Y-14550500D01*
X19672474Y-14550500D01*
X19672475Y-14550500D01*
X19758218Y-14527525D01*
X44549500Y-14527525D01*
X44549500Y-14672475D01*
X44579087Y-14782896D01*
X44587017Y-14812489D01*
X44659487Y-14938010D01*
X44659489Y-14938012D01*
X44659491Y-14938015D01*
X44761985Y-15040509D01*
X44761987Y-15040510D01*
X44761989Y-15040512D01*
X44887511Y-15112982D01*
X44887512Y-15112982D01*
X44887515Y-15112984D01*
X45027525Y-15150500D01*
X45027526Y-15150500D01*
X45172474Y-15150500D01*
X45172475Y-15150500D01*
X45312485Y-15112984D01*
X45312487Y-15112982D01*
X45312489Y-15112982D01*
X45438010Y-15040512D01*
X45438010Y-15040511D01*
X45438015Y-15040509D01*
X45540509Y-14938015D01*
X45612984Y-14812485D01*
X45635749Y-14727525D01*
X46149500Y-14727525D01*
X46149500Y-14872474D01*
X46187017Y-15012489D01*
X46259487Y-15138010D01*
X46259489Y-15138012D01*
X46259491Y-15138015D01*
X46361985Y-15240509D01*
X46361987Y-15240510D01*
X46361989Y-15240512D01*
X46487511Y-15312982D01*
X46487512Y-15312982D01*
X46487515Y-15312984D01*
X46627525Y-15350500D01*
X46627526Y-15350500D01*
X46772474Y-15350500D01*
X46772475Y-15350500D01*
X46912485Y-15312984D01*
X46912487Y-15312982D01*
X46912489Y-15312982D01*
X47038010Y-15240512D01*
X47038010Y-15240511D01*
X47038015Y-15240509D01*
X47140509Y-15138015D01*
X47196803Y-15040512D01*
X47212982Y-15012489D01*
X47212982Y-15012487D01*
X47212984Y-15012485D01*
X47250500Y-14872475D01*
X47250500Y-14727525D01*
X47212984Y-14587515D01*
X47212982Y-14587512D01*
X47212982Y-14587510D01*
X47140512Y-14461989D01*
X47140510Y-14461987D01*
X47140509Y-14461985D01*
X47038015Y-14359491D01*
X47038012Y-14359489D01*
X47038010Y-14359487D01*
X46912488Y-14287017D01*
X46912489Y-14287017D01*
X46882896Y-14279087D01*
X46772475Y-14249500D01*
X46627525Y-14249500D01*
X46580931Y-14261985D01*
X46487510Y-14287017D01*
X46361989Y-14359487D01*
X46259487Y-14461989D01*
X46187017Y-14587510D01*
X46149500Y-14727525D01*
X45635749Y-14727525D01*
X45650500Y-14672475D01*
X45650500Y-14527525D01*
X45612984Y-14387515D01*
X45612982Y-14387512D01*
X45612982Y-14387510D01*
X45540512Y-14261989D01*
X45540510Y-14261987D01*
X45540509Y-14261985D01*
X45438015Y-14159491D01*
X45438012Y-14159489D01*
X45438010Y-14159487D01*
X45346708Y-14106773D01*
X45346705Y-14106773D01*
X45312486Y-14087016D01*
X45242480Y-14068258D01*
X45172475Y-14049500D01*
X45027525Y-14049500D01*
X44965790Y-14066041D01*
X44887510Y-14087017D01*
X44761989Y-14159487D01*
X44659487Y-14261989D01*
X44587017Y-14387510D01*
X44553397Y-14512982D01*
X44549500Y-14527525D01*
X19758218Y-14527525D01*
X19812485Y-14512984D01*
X19812487Y-14512982D01*
X19812489Y-14512982D01*
X19938010Y-14440512D01*
X19938010Y-14440511D01*
X19938015Y-14440509D01*
X20040509Y-14338015D01*
X20040512Y-14338010D01*
X20112982Y-14212489D01*
X20112982Y-14212487D01*
X20112984Y-14212485D01*
X20150500Y-14072475D01*
X20150500Y-14027525D01*
X50449500Y-14027525D01*
X50449500Y-14172475D01*
X50479087Y-14282896D01*
X50487017Y-14312489D01*
X50559487Y-14438010D01*
X50559489Y-14438012D01*
X50559491Y-14438015D01*
X50661985Y-14540509D01*
X50661987Y-14540510D01*
X50661989Y-14540512D01*
X50787511Y-14612982D01*
X50787512Y-14612982D01*
X50787515Y-14612984D01*
X50927525Y-14650500D01*
X50927526Y-14650500D01*
X51072474Y-14650500D01*
X51072475Y-14650500D01*
X51212485Y-14612984D01*
X51212487Y-14612982D01*
X51212489Y-14612982D01*
X51338010Y-14540512D01*
X51338010Y-14540511D01*
X51338015Y-14540509D01*
X51440509Y-14438015D01*
X51485845Y-14359491D01*
X51512982Y-14312489D01*
X51512982Y-14312487D01*
X51512984Y-14312485D01*
X51550500Y-14172475D01*
X51550500Y-14027525D01*
X51512984Y-13887515D01*
X51512982Y-13887512D01*
X51512982Y-13887510D01*
X51440512Y-13761989D01*
X51440510Y-13761987D01*
X51440509Y-13761985D01*
X51338015Y-13659491D01*
X51338012Y-13659489D01*
X51338010Y-13659487D01*
X51212488Y-13587017D01*
X51212489Y-13587017D01*
X51109761Y-13559491D01*
X51072475Y-13549500D01*
X50927525Y-13549500D01*
X50890239Y-13559491D01*
X50787510Y-13587017D01*
X50661989Y-13659487D01*
X50559487Y-13761989D01*
X50487017Y-13887510D01*
X50487016Y-13887515D01*
X50449500Y-14027525D01*
X20150500Y-14027525D01*
X20150500Y-13927525D01*
X20112984Y-13787515D01*
X20112982Y-13787512D01*
X20112982Y-13787510D01*
X20040512Y-13661989D01*
X20040510Y-13661987D01*
X20040509Y-13661985D01*
X19938015Y-13559491D01*
X19938012Y-13559489D01*
X19938010Y-13559487D01*
X19812488Y-13487017D01*
X19812489Y-13487017D01*
X19782896Y-13479087D01*
X19672475Y-13449500D01*
X19527525Y-13449500D01*
X19465790Y-13466041D01*
X19387510Y-13487017D01*
X19261989Y-13559487D01*
X19159487Y-13661989D01*
X19087017Y-13787510D01*
X19087016Y-13787515D01*
X19049500Y-13927525D01*
X300500Y-13927525D01*
X300500Y-12927525D01*
X17649500Y-12927525D01*
X17649500Y-13072475D01*
X17664251Y-13127525D01*
X17687017Y-13212489D01*
X17759487Y-13338010D01*
X17759489Y-13338012D01*
X17759491Y-13338015D01*
X17861985Y-13440509D01*
X17861987Y-13440510D01*
X17861989Y-13440512D01*
X17987511Y-13512982D01*
X17987512Y-13512982D01*
X17987515Y-13512984D01*
X18127525Y-13550500D01*
X18127526Y-13550500D01*
X18272474Y-13550500D01*
X18272475Y-13550500D01*
X18412485Y-13512984D01*
X18412487Y-13512982D01*
X18412489Y-13512982D01*
X18538010Y-13440512D01*
X18538010Y-13440511D01*
X18538015Y-13440509D01*
X18640509Y-13338015D01*
X18712984Y-13212485D01*
X18735749Y-13127525D01*
X38649500Y-13127525D01*
X38649500Y-13272474D01*
X38687017Y-13412489D01*
X38759487Y-13538010D01*
X38759489Y-13538012D01*
X38759491Y-13538015D01*
X38861985Y-13640509D01*
X38861987Y-13640510D01*
X38861989Y-13640512D01*
X38987511Y-13712982D01*
X38987512Y-13712982D01*
X38987515Y-13712984D01*
X39127525Y-13750500D01*
X39127526Y-13750500D01*
X39272474Y-13750500D01*
X39272475Y-13750500D01*
X39412485Y-13712984D01*
X39412487Y-13712982D01*
X39412489Y-13712982D01*
X39538010Y-13640512D01*
X39538010Y-13640511D01*
X39538015Y-13640509D01*
X39640509Y-13538015D01*
X39669953Y-13487017D01*
X39712982Y-13412489D01*
X39712982Y-13412487D01*
X39712984Y-13412485D01*
X39750500Y-13272475D01*
X39750500Y-13127525D01*
X39712984Y-12987515D01*
X39712982Y-12987512D01*
X39712982Y-12987510D01*
X39640512Y-12861988D01*
X39639539Y-12860721D01*
X39639156Y-12859641D01*
X39637265Y-12856365D01*
X39637872Y-12856014D01*
X39619113Y-12803046D01*
X39636489Y-12744380D01*
X39648071Y-12730452D01*
X39740509Y-12638015D01*
X39785845Y-12559491D01*
X39812982Y-12512489D01*
X39812982Y-12512487D01*
X39812984Y-12512485D01*
X39836631Y-12424234D01*
X57024500Y-12424234D01*
X57024500Y-12575766D01*
X57042685Y-12643635D01*
X57063720Y-12722139D01*
X57139481Y-12853360D01*
X57139483Y-12853362D01*
X57139485Y-12853365D01*
X57246635Y-12960515D01*
X57246637Y-12960516D01*
X57246639Y-12960518D01*
X57377861Y-13036279D01*
X57377859Y-13036279D01*
X57377863Y-13036280D01*
X57377865Y-13036281D01*
X57524234Y-13075500D01*
X57524236Y-13075500D01*
X57675764Y-13075500D01*
X57675766Y-13075500D01*
X57822135Y-13036281D01*
X57822137Y-13036279D01*
X57822139Y-13036279D01*
X57953360Y-12960518D01*
X57953360Y-12960517D01*
X57953365Y-12960515D01*
X58060515Y-12853365D01*
X58108905Y-12769551D01*
X58136279Y-12722139D01*
X58136279Y-12722137D01*
X58136281Y-12722135D01*
X58175500Y-12575766D01*
X58175500Y-12424234D01*
X58136281Y-12277865D01*
X58136279Y-12277862D01*
X58136279Y-12277860D01*
X58060518Y-12146639D01*
X58060516Y-12146637D01*
X58060515Y-12146635D01*
X57953365Y-12039485D01*
X57953362Y-12039483D01*
X57953360Y-12039481D01*
X57822138Y-11963720D01*
X57822140Y-11963720D01*
X57765347Y-11948503D01*
X57675766Y-11924500D01*
X57524234Y-11924500D01*
X57434652Y-11948503D01*
X57377860Y-11963720D01*
X57246639Y-12039481D01*
X57139481Y-12146639D01*
X57063720Y-12277860D01*
X57044257Y-12350500D01*
X57024500Y-12424234D01*
X39836631Y-12424234D01*
X39850500Y-12372475D01*
X39850500Y-12227525D01*
X39812984Y-12087515D01*
X39812982Y-12087512D01*
X39812982Y-12087510D01*
X39740512Y-11961989D01*
X39740510Y-11961987D01*
X39740509Y-11961985D01*
X39638015Y-11859491D01*
X39638012Y-11859489D01*
X39638010Y-11859487D01*
X39546708Y-11806773D01*
X39546705Y-11806773D01*
X39512486Y-11787016D01*
X39409761Y-11759491D01*
X39372475Y-11749500D01*
X39227525Y-11749500D01*
X39190239Y-11759491D01*
X39087510Y-11787017D01*
X38961989Y-11859487D01*
X38859487Y-11961989D01*
X38787017Y-12087510D01*
X38749500Y-12227525D01*
X38749500Y-12372474D01*
X38787017Y-12512489D01*
X38859490Y-12638014D01*
X38860461Y-12639280D01*
X38860842Y-12640356D01*
X38862735Y-12643635D01*
X38862127Y-12643985D01*
X38880886Y-12696955D01*
X38863509Y-12755621D01*
X38851924Y-12769551D01*
X38759491Y-12861984D01*
X38759487Y-12861989D01*
X38687017Y-12987510D01*
X38649500Y-13127525D01*
X18735749Y-13127525D01*
X18750500Y-13072475D01*
X18750500Y-12927525D01*
X18712984Y-12787515D01*
X18712982Y-12787512D01*
X18712982Y-12787510D01*
X18640512Y-12661989D01*
X18640510Y-12661987D01*
X18640509Y-12661985D01*
X18538015Y-12559491D01*
X18538012Y-12559489D01*
X18538010Y-12559487D01*
X18412488Y-12487017D01*
X18412489Y-12487017D01*
X18382896Y-12479087D01*
X18272475Y-12449500D01*
X18127525Y-12449500D01*
X18065790Y-12466041D01*
X17987510Y-12487017D01*
X17861989Y-12559487D01*
X17759487Y-12661989D01*
X17687017Y-12787510D01*
X17649500Y-12927525D01*
X300500Y-12927525D01*
X300500Y-12127525D01*
X22649500Y-12127525D01*
X22649500Y-12272475D01*
X22662802Y-12322117D01*
X22687017Y-12412489D01*
X22759487Y-12538010D01*
X22759489Y-12538012D01*
X22759491Y-12538015D01*
X22861985Y-12640509D01*
X22861987Y-12640510D01*
X22861989Y-12640512D01*
X22987511Y-12712982D01*
X22987512Y-12712982D01*
X22987515Y-12712984D01*
X23127525Y-12750500D01*
X23127526Y-12750500D01*
X23272474Y-12750500D01*
X23272475Y-12750500D01*
X23412485Y-12712984D01*
X23412487Y-12712982D01*
X23412489Y-12712982D01*
X23538010Y-12640512D01*
X23538010Y-12640511D01*
X23538015Y-12640509D01*
X23640509Y-12538015D01*
X23640512Y-12538010D01*
X23712982Y-12412489D01*
X23712982Y-12412487D01*
X23712984Y-12412485D01*
X23750500Y-12272475D01*
X23750500Y-12127525D01*
X23712984Y-11987515D01*
X23712982Y-11987512D01*
X23712982Y-11987510D01*
X23640512Y-11861989D01*
X23640510Y-11861987D01*
X23640509Y-11861985D01*
X23538015Y-11759491D01*
X23538012Y-11759489D01*
X23538010Y-11759487D01*
X23482650Y-11727525D01*
X40749500Y-11727525D01*
X40749500Y-11872475D01*
X40773949Y-11963719D01*
X40787017Y-12012489D01*
X40859487Y-12138010D01*
X40859489Y-12138012D01*
X40859491Y-12138015D01*
X40961985Y-12240509D01*
X40961987Y-12240510D01*
X40961989Y-12240512D01*
X41087511Y-12312982D01*
X41087512Y-12312982D01*
X41087515Y-12312984D01*
X41227525Y-12350500D01*
X41227526Y-12350500D01*
X41372473Y-12350500D01*
X41372475Y-12350500D01*
X41512485Y-12312984D01*
X41512488Y-12312982D01*
X41512489Y-12312982D01*
X41638010Y-12240512D01*
X41638010Y-12240511D01*
X41638015Y-12240509D01*
X41740509Y-12138015D01*
X41740512Y-12138010D01*
X41812982Y-12012489D01*
X41812982Y-12012487D01*
X41812984Y-12012485D01*
X41850500Y-11872475D01*
X41850500Y-11727525D01*
X41812984Y-11587515D01*
X41812982Y-11587512D01*
X41812982Y-11587510D01*
X41740512Y-11461989D01*
X41740510Y-11461987D01*
X41740509Y-11461985D01*
X41638015Y-11359491D01*
X41638012Y-11359489D01*
X41638010Y-11359487D01*
X41512488Y-11287017D01*
X41512489Y-11287017D01*
X41482896Y-11279087D01*
X41372475Y-11249500D01*
X41227525Y-11249500D01*
X41165790Y-11266041D01*
X41087510Y-11287017D01*
X40961989Y-11359487D01*
X40859487Y-11461989D01*
X40787017Y-11587510D01*
X40787016Y-11587515D01*
X40749500Y-11727525D01*
X23482650Y-11727525D01*
X23412488Y-11687017D01*
X23412489Y-11687017D01*
X23382896Y-11679087D01*
X23272475Y-11649500D01*
X23127525Y-11649500D01*
X23065790Y-11666041D01*
X22987510Y-11687017D01*
X22861989Y-11759487D01*
X22759487Y-11861989D01*
X22687017Y-11987510D01*
X22660222Y-12087510D01*
X22649500Y-12127525D01*
X300500Y-12127525D01*
X300500Y-10427525D01*
X47249500Y-10427525D01*
X47249500Y-10572474D01*
X47287017Y-10712489D01*
X47359487Y-10838010D01*
X47359489Y-10838012D01*
X47359491Y-10838015D01*
X47461985Y-10940509D01*
X47461987Y-10940510D01*
X47461989Y-10940512D01*
X47587511Y-11012982D01*
X47587512Y-11012982D01*
X47587515Y-11012984D01*
X47727525Y-11050500D01*
X47727526Y-11050500D01*
X47872474Y-11050500D01*
X47872475Y-11050500D01*
X48012485Y-11012984D01*
X48012487Y-11012982D01*
X48012489Y-11012982D01*
X48138010Y-10940512D01*
X48138010Y-10940511D01*
X48138015Y-10940509D01*
X48240509Y-10838015D01*
X48312984Y-10712485D01*
X48350500Y-10572475D01*
X48350500Y-10427525D01*
X48312984Y-10287515D01*
X48312982Y-10287512D01*
X48312982Y-10287510D01*
X48240512Y-10161989D01*
X48240510Y-10161987D01*
X48240509Y-10161985D01*
X48138015Y-10059491D01*
X48138012Y-10059489D01*
X48138010Y-10059487D01*
X48012488Y-9987017D01*
X48012489Y-9987017D01*
X47913594Y-9960518D01*
X47872475Y-9949500D01*
X47727525Y-9949500D01*
X47686417Y-9960515D01*
X47587510Y-9987017D01*
X47461989Y-10059487D01*
X47359487Y-10161989D01*
X47287017Y-10287510D01*
X47249500Y-10427525D01*
X300500Y-10427525D01*
X300500Y-9127525D01*
X8249500Y-9127525D01*
X8249500Y-9272475D01*
X8260221Y-9312485D01*
X8287017Y-9412489D01*
X8359487Y-9538010D01*
X8359489Y-9538012D01*
X8359491Y-9538015D01*
X8461985Y-9640509D01*
X8461987Y-9640510D01*
X8461989Y-9640512D01*
X8587511Y-9712982D01*
X8587512Y-9712982D01*
X8587515Y-9712984D01*
X8727525Y-9750500D01*
X8727526Y-9750500D01*
X8872474Y-9750500D01*
X8872475Y-9750500D01*
X9012485Y-9712984D01*
X9012487Y-9712982D01*
X9012489Y-9712982D01*
X9138010Y-9640512D01*
X9138010Y-9640511D01*
X9138015Y-9640509D01*
X9240509Y-9538015D01*
X9312984Y-9412485D01*
X9350500Y-9272475D01*
X9350500Y-9127525D01*
X9323705Y-9027525D01*
X49949500Y-9027525D01*
X49949500Y-9172475D01*
X49979087Y-9282896D01*
X49987017Y-9312489D01*
X50059487Y-9438010D01*
X50059489Y-9438012D01*
X50059491Y-9438015D01*
X50161985Y-9540509D01*
X50161987Y-9540510D01*
X50161989Y-9540512D01*
X50287511Y-9612982D01*
X50287512Y-9612982D01*
X50287515Y-9612984D01*
X50427525Y-9650500D01*
X50427526Y-9650500D01*
X50572474Y-9650500D01*
X50572475Y-9650500D01*
X50712485Y-9612984D01*
X50712487Y-9612982D01*
X50712489Y-9612982D01*
X50838010Y-9540512D01*
X50838010Y-9540511D01*
X50838015Y-9540509D01*
X50940509Y-9438015D01*
X50948465Y-9424235D01*
X50948466Y-9424234D01*
X57024500Y-9424234D01*
X57024500Y-9575766D01*
X57044525Y-9650500D01*
X57063720Y-9722139D01*
X57139481Y-9853360D01*
X57139483Y-9853362D01*
X57139485Y-9853365D01*
X57246635Y-9960515D01*
X57246637Y-9960516D01*
X57246639Y-9960518D01*
X57377861Y-10036279D01*
X57377859Y-10036279D01*
X57377863Y-10036280D01*
X57377865Y-10036281D01*
X57524234Y-10075500D01*
X57524236Y-10075500D01*
X57675764Y-10075500D01*
X57675766Y-10075500D01*
X57822135Y-10036281D01*
X57822137Y-10036279D01*
X57822139Y-10036279D01*
X57953360Y-9960518D01*
X57953360Y-9960517D01*
X57953365Y-9960515D01*
X58060515Y-9853365D01*
X58060518Y-9853360D01*
X58136279Y-9722139D01*
X58136279Y-9722137D01*
X58136281Y-9722135D01*
X58175500Y-9575766D01*
X58175500Y-9424234D01*
X58136281Y-9277865D01*
X58136279Y-9277862D01*
X58136279Y-9277860D01*
X58060518Y-9146639D01*
X58060516Y-9146637D01*
X58060515Y-9146635D01*
X57953365Y-9039485D01*
X57953362Y-9039483D01*
X57953360Y-9039481D01*
X57822138Y-8963720D01*
X57822140Y-8963720D01*
X57765347Y-8948503D01*
X57675766Y-8924500D01*
X57524234Y-8924500D01*
X57434652Y-8948503D01*
X57377860Y-8963720D01*
X57246639Y-9039481D01*
X57139481Y-9146639D01*
X57063720Y-9277860D01*
X57041793Y-9359693D01*
X57024500Y-9424234D01*
X50948466Y-9424234D01*
X50980787Y-9368252D01*
X50980791Y-9368245D01*
X50989183Y-9353707D01*
X51012984Y-9312485D01*
X51050500Y-9172475D01*
X51050500Y-9027525D01*
X51012984Y-8887515D01*
X51012982Y-8887512D01*
X51012982Y-8887510D01*
X50940512Y-8761989D01*
X50940510Y-8761987D01*
X50940509Y-8761985D01*
X50838015Y-8659491D01*
X50838012Y-8659489D01*
X50838010Y-8659487D01*
X50712488Y-8587017D01*
X50712489Y-8587017D01*
X50682896Y-8579087D01*
X50572475Y-8549500D01*
X50427525Y-8549500D01*
X50365790Y-8566041D01*
X50287510Y-8587017D01*
X50161989Y-8659487D01*
X50059487Y-8761989D01*
X49987017Y-8887510D01*
X49977106Y-8924500D01*
X49949500Y-9027525D01*
X9323705Y-9027525D01*
X9312984Y-8987515D01*
X9312982Y-8987512D01*
X9312982Y-8987510D01*
X9240512Y-8861989D01*
X9240510Y-8861987D01*
X9240509Y-8861985D01*
X9138015Y-8759491D01*
X9138012Y-8759489D01*
X9138010Y-8759487D01*
X9012488Y-8687017D01*
X9012489Y-8687017D01*
X8909761Y-8659491D01*
X8872475Y-8649500D01*
X8727525Y-8649500D01*
X8690239Y-8659491D01*
X8587510Y-8687017D01*
X8461989Y-8759487D01*
X8359487Y-8861989D01*
X8287017Y-8987510D01*
X8249500Y-9127525D01*
X300500Y-9127525D01*
X300500Y-7927525D01*
X38549500Y-7927525D01*
X38549500Y-8072474D01*
X38587017Y-8212489D01*
X38659487Y-8338010D01*
X38659489Y-8338012D01*
X38659491Y-8338015D01*
X38761985Y-8440509D01*
X38761987Y-8440510D01*
X38761989Y-8440512D01*
X38887511Y-8512982D01*
X38887512Y-8512982D01*
X38887515Y-8512984D01*
X39027525Y-8550500D01*
X39027526Y-8550500D01*
X39172474Y-8550500D01*
X39172475Y-8550500D01*
X39312485Y-8512984D01*
X39312487Y-8512982D01*
X39312489Y-8512982D01*
X39438010Y-8440512D01*
X39438010Y-8440511D01*
X39438015Y-8440509D01*
X39540509Y-8338015D01*
X39546565Y-8327525D01*
X47249500Y-8327525D01*
X47249500Y-8472475D01*
X47270139Y-8549500D01*
X47287017Y-8612489D01*
X47359487Y-8738010D01*
X47359489Y-8738012D01*
X47359491Y-8738015D01*
X47461985Y-8840509D01*
X47461987Y-8840510D01*
X47461989Y-8840512D01*
X47587511Y-8912982D01*
X47587512Y-8912982D01*
X47587515Y-8912984D01*
X47727525Y-8950500D01*
X47727526Y-8950500D01*
X47872473Y-8950500D01*
X47872475Y-8950500D01*
X48012485Y-8912984D01*
X48012488Y-8912982D01*
X48012489Y-8912982D01*
X48138010Y-8840512D01*
X48138010Y-8840511D01*
X48138015Y-8840509D01*
X48240509Y-8738015D01*
X48269953Y-8687017D01*
X48312982Y-8612489D01*
X48312982Y-8612487D01*
X48312984Y-8612485D01*
X48350500Y-8472475D01*
X48350500Y-8327525D01*
X48312984Y-8187515D01*
X48312982Y-8187512D01*
X48312982Y-8187510D01*
X48240512Y-8061989D01*
X48240510Y-8061987D01*
X48240509Y-8061985D01*
X48138015Y-7959491D01*
X48138012Y-7959489D01*
X48138010Y-7959487D01*
X48012488Y-7887017D01*
X48012489Y-7887017D01*
X47982896Y-7879087D01*
X47872475Y-7849500D01*
X47727525Y-7849500D01*
X47665790Y-7866041D01*
X47587510Y-7887017D01*
X47461989Y-7959487D01*
X47359487Y-8061989D01*
X47287017Y-8187510D01*
X47287016Y-8187515D01*
X47249500Y-8327525D01*
X39546565Y-8327525D01*
X39561030Y-8302471D01*
X39578892Y-8271535D01*
X39599388Y-8236033D01*
X39612984Y-8212485D01*
X39650500Y-8072475D01*
X39650500Y-7927525D01*
X39612984Y-7787515D01*
X39612982Y-7787512D01*
X39612982Y-7787510D01*
X39540512Y-7661989D01*
X39540510Y-7661987D01*
X39540509Y-7661985D01*
X39438015Y-7559491D01*
X39438012Y-7559489D01*
X39438010Y-7559487D01*
X39312488Y-7487017D01*
X39312489Y-7487017D01*
X39282896Y-7479087D01*
X39172475Y-7449500D01*
X39027525Y-7449500D01*
X38965790Y-7466041D01*
X38887510Y-7487017D01*
X38761989Y-7559487D01*
X38659487Y-7661989D01*
X38587017Y-7787510D01*
X38549500Y-7927525D01*
X300500Y-7927525D01*
X300500Y-5827525D01*
X33349500Y-5827525D01*
X33349500Y-5972474D01*
X33387017Y-6112489D01*
X33459487Y-6238010D01*
X33459489Y-6238012D01*
X33459491Y-6238015D01*
X33561985Y-6340509D01*
X33561987Y-6340510D01*
X33561989Y-6340512D01*
X33687511Y-6412982D01*
X33687512Y-6412982D01*
X33687515Y-6412984D01*
X33827525Y-6450500D01*
X33827526Y-6450500D01*
X33972474Y-6450500D01*
X33972475Y-6450500D01*
X34112485Y-6412984D01*
X34112487Y-6412982D01*
X34112489Y-6412982D01*
X34238010Y-6340512D01*
X34238010Y-6340511D01*
X34238015Y-6340509D01*
X34340509Y-6238015D01*
X34340512Y-6238010D01*
X34404301Y-6127525D01*
X40149500Y-6127525D01*
X40149500Y-6272474D01*
X40187017Y-6412489D01*
X40259487Y-6538010D01*
X40259489Y-6538012D01*
X40259491Y-6538015D01*
X40361985Y-6640509D01*
X40361987Y-6640510D01*
X40361989Y-6640512D01*
X40487511Y-6712982D01*
X40487512Y-6712982D01*
X40487515Y-6712984D01*
X40627525Y-6750500D01*
X40627526Y-6750500D01*
X40772474Y-6750500D01*
X40772475Y-6750500D01*
X40912485Y-6712984D01*
X40912487Y-6712982D01*
X40912489Y-6712982D01*
X41038010Y-6640512D01*
X41038010Y-6640511D01*
X41038015Y-6640509D01*
X41140509Y-6538015D01*
X41140512Y-6538010D01*
X41212982Y-6412489D01*
X41212982Y-6412487D01*
X41212984Y-6412485D01*
X41250500Y-6272475D01*
X41250500Y-6227525D01*
X47749500Y-6227525D01*
X47749500Y-6372475D01*
X47770407Y-6450500D01*
X47787017Y-6512489D01*
X47859487Y-6638010D01*
X47859489Y-6638012D01*
X47859491Y-6638015D01*
X47961985Y-6740509D01*
X47961987Y-6740510D01*
X47961989Y-6740512D01*
X48087511Y-6812982D01*
X48087512Y-6812982D01*
X48087515Y-6812984D01*
X48227525Y-6850500D01*
X48227526Y-6850500D01*
X48372474Y-6850500D01*
X48372475Y-6850500D01*
X48458218Y-6827525D01*
X51624500Y-6827525D01*
X51624500Y-6972474D01*
X51662017Y-7112489D01*
X51734487Y-7238010D01*
X51734489Y-7238012D01*
X51734491Y-7238015D01*
X51836985Y-7340509D01*
X51836987Y-7340510D01*
X51836989Y-7340512D01*
X51962511Y-7412982D01*
X51962512Y-7412982D01*
X51962515Y-7412984D01*
X52102525Y-7450500D01*
X52102526Y-7450500D01*
X52247474Y-7450500D01*
X52247475Y-7450500D01*
X52387485Y-7412984D01*
X52387487Y-7412982D01*
X52387489Y-7412982D01*
X52513010Y-7340512D01*
X52513010Y-7340511D01*
X52513015Y-7340509D01*
X52615509Y-7238015D01*
X52687984Y-7112485D01*
X52725500Y-6972475D01*
X52725500Y-6827525D01*
X52687984Y-6687515D01*
X52687982Y-6687512D01*
X52687982Y-6687510D01*
X52615512Y-6561989D01*
X52615510Y-6561987D01*
X52615509Y-6561985D01*
X52513015Y-6459491D01*
X52513012Y-6459489D01*
X52513010Y-6459487D01*
X52387488Y-6387017D01*
X52387489Y-6387017D01*
X52333214Y-6372474D01*
X52247475Y-6349500D01*
X52102525Y-6349500D01*
X52040790Y-6366041D01*
X51962510Y-6387017D01*
X51836989Y-6459487D01*
X51734487Y-6561989D01*
X51662017Y-6687510D01*
X51624500Y-6827525D01*
X48458218Y-6827525D01*
X48512485Y-6812984D01*
X48512487Y-6812982D01*
X48512489Y-6812982D01*
X48638008Y-6740513D01*
X48638007Y-6740513D01*
X48638015Y-6740509D01*
X48740509Y-6638015D01*
X48812984Y-6512485D01*
X48850500Y-6372475D01*
X48850500Y-6227525D01*
X48812984Y-6087515D01*
X48812982Y-6087512D01*
X48812982Y-6087510D01*
X48740512Y-5961989D01*
X48740510Y-5961987D01*
X48740509Y-5961985D01*
X48638015Y-5859491D01*
X48638012Y-5859489D01*
X48638010Y-5859487D01*
X48512488Y-5787017D01*
X48512489Y-5787017D01*
X48409761Y-5759491D01*
X48372475Y-5749500D01*
X48227525Y-5749500D01*
X48190239Y-5759491D01*
X48087510Y-5787017D01*
X47961989Y-5859487D01*
X47859487Y-5961989D01*
X47787017Y-6087510D01*
X47780325Y-6112485D01*
X47749500Y-6227525D01*
X41250500Y-6227525D01*
X41250500Y-6127525D01*
X41212984Y-5987515D01*
X41212982Y-5987512D01*
X41212982Y-5987510D01*
X41140512Y-5861989D01*
X41140510Y-5861987D01*
X41140509Y-5861985D01*
X41038015Y-5759491D01*
X41038012Y-5759489D01*
X41038010Y-5759487D01*
X40912488Y-5687017D01*
X40912489Y-5687017D01*
X40882896Y-5679087D01*
X40772475Y-5649500D01*
X40627525Y-5649500D01*
X40565790Y-5666041D01*
X40487510Y-5687017D01*
X40361989Y-5759487D01*
X40259487Y-5861989D01*
X40187017Y-5987510D01*
X40149500Y-6127525D01*
X34404301Y-6127525D01*
X34412982Y-6112489D01*
X34412982Y-6112487D01*
X34412984Y-6112485D01*
X34450500Y-5972475D01*
X34450500Y-5827525D01*
X34412984Y-5687515D01*
X34412982Y-5687512D01*
X34412982Y-5687510D01*
X34340512Y-5561989D01*
X34340510Y-5561987D01*
X34340509Y-5561985D01*
X34238015Y-5459491D01*
X34238012Y-5459489D01*
X34238010Y-5459487D01*
X34112488Y-5387017D01*
X34112489Y-5387017D01*
X34082896Y-5379087D01*
X33972475Y-5349500D01*
X33827525Y-5349500D01*
X33765790Y-5366041D01*
X33687510Y-5387017D01*
X33561989Y-5459487D01*
X33459487Y-5561989D01*
X33387017Y-5687510D01*
X33349500Y-5827525D01*
X300500Y-5827525D01*
X300500Y-3901579D01*
X2749500Y-3901579D01*
X2749500Y-4098420D01*
X2780289Y-4292821D01*
X2841116Y-4480025D01*
X2895884Y-4587515D01*
X2930476Y-4655405D01*
X3046172Y-4814646D01*
X3185354Y-4953828D01*
X3344595Y-5069524D01*
X3519975Y-5158884D01*
X3707174Y-5219709D01*
X3707175Y-5219709D01*
X3707178Y-5219710D01*
X3901580Y-5250500D01*
X3901583Y-5250500D01*
X4098420Y-5250500D01*
X4292821Y-5219710D01*
X4292822Y-5219709D01*
X4292826Y-5219709D01*
X4480025Y-5158884D01*
X4655405Y-5069524D01*
X4814646Y-4953828D01*
X4953828Y-4814646D01*
X5017125Y-4727525D01*
X40049500Y-4727525D01*
X40049500Y-4872474D01*
X40087017Y-5012489D01*
X40159487Y-5138010D01*
X40159489Y-5138012D01*
X40159491Y-5138015D01*
X40261985Y-5240509D01*
X40261987Y-5240510D01*
X40261989Y-5240512D01*
X40387511Y-5312982D01*
X40387512Y-5312982D01*
X40387515Y-5312984D01*
X40527525Y-5350500D01*
X40527526Y-5350500D01*
X40672474Y-5350500D01*
X40672475Y-5350500D01*
X40812485Y-5312984D01*
X40812487Y-5312982D01*
X40812489Y-5312982D01*
X40938010Y-5240512D01*
X40938010Y-5240511D01*
X40938015Y-5240509D01*
X41040509Y-5138015D01*
X41080052Y-5069525D01*
X41112982Y-5012489D01*
X41112982Y-5012487D01*
X41112984Y-5012485D01*
X41150500Y-4872475D01*
X41150500Y-4727525D01*
X44549500Y-4727525D01*
X44549500Y-4872474D01*
X44587017Y-5012489D01*
X44659487Y-5138010D01*
X44659489Y-5138012D01*
X44659491Y-5138015D01*
X44761985Y-5240509D01*
X44761987Y-5240510D01*
X44761989Y-5240512D01*
X44887511Y-5312982D01*
X44887512Y-5312982D01*
X44887515Y-5312984D01*
X45027525Y-5350500D01*
X45027526Y-5350500D01*
X45172474Y-5350500D01*
X45172475Y-5350500D01*
X45312485Y-5312984D01*
X45312487Y-5312982D01*
X45312489Y-5312982D01*
X45438010Y-5240512D01*
X45438010Y-5240511D01*
X45438015Y-5240509D01*
X45540509Y-5138015D01*
X45580052Y-5069525D01*
X45612982Y-5012489D01*
X45612982Y-5012487D01*
X45612984Y-5012485D01*
X45650500Y-4872475D01*
X45650500Y-4727525D01*
X45612984Y-4587515D01*
X45612982Y-4587512D01*
X45612982Y-4587510D01*
X45540512Y-4461989D01*
X45540510Y-4461987D01*
X45540509Y-4461985D01*
X45438015Y-4359491D01*
X45438012Y-4359489D01*
X45438010Y-4359487D01*
X45312488Y-4287017D01*
X45312489Y-4287017D01*
X45282896Y-4279087D01*
X45172475Y-4249500D01*
X45027525Y-4249500D01*
X44965790Y-4266041D01*
X44887510Y-4287017D01*
X44761989Y-4359487D01*
X44659487Y-4461989D01*
X44587017Y-4587510D01*
X44549500Y-4727525D01*
X41150500Y-4727525D01*
X41112984Y-4587515D01*
X41112982Y-4587512D01*
X41112982Y-4587510D01*
X41040512Y-4461989D01*
X41040510Y-4461987D01*
X41040509Y-4461985D01*
X40938015Y-4359491D01*
X40938012Y-4359489D01*
X40938010Y-4359487D01*
X40812488Y-4287017D01*
X40812489Y-4287017D01*
X40782896Y-4279087D01*
X40672475Y-4249500D01*
X40527525Y-4249500D01*
X40465790Y-4266041D01*
X40387510Y-4287017D01*
X40261989Y-4359487D01*
X40159487Y-4461989D01*
X40087017Y-4587510D01*
X40049500Y-4727525D01*
X5017125Y-4727525D01*
X5069524Y-4655405D01*
X5158884Y-4480025D01*
X5219709Y-4292826D01*
X5248193Y-4112984D01*
X5250500Y-4098420D01*
X5250500Y-3901579D01*
X5219710Y-3707178D01*
X5208434Y-3672475D01*
X5161337Y-3527525D01*
X30249500Y-3527525D01*
X30249500Y-3672474D01*
X30287017Y-3812489D01*
X30359487Y-3938010D01*
X30359489Y-3938012D01*
X30359491Y-3938015D01*
X30461985Y-4040509D01*
X30461987Y-4040510D01*
X30461989Y-4040512D01*
X30587511Y-4112982D01*
X30587512Y-4112982D01*
X30587515Y-4112984D01*
X30727525Y-4150500D01*
X30727526Y-4150500D01*
X30872474Y-4150500D01*
X30872475Y-4150500D01*
X31012485Y-4112984D01*
X31012487Y-4112982D01*
X31012489Y-4112982D01*
X31138010Y-4040512D01*
X31138010Y-4040511D01*
X31138015Y-4040509D01*
X31240509Y-3938015D01*
X31293396Y-3846412D01*
X31338864Y-3805473D01*
X31399714Y-3799077D01*
X31452702Y-3829670D01*
X31457669Y-3835642D01*
X31459483Y-3838006D01*
X31459489Y-3838012D01*
X31459491Y-3838015D01*
X31561985Y-3940509D01*
X31561987Y-3940510D01*
X31561989Y-3940512D01*
X31687511Y-4012982D01*
X31687512Y-4012982D01*
X31687515Y-4012984D01*
X31827525Y-4050500D01*
X31827526Y-4050500D01*
X31972474Y-4050500D01*
X31972475Y-4050500D01*
X32112485Y-4012984D01*
X32112487Y-4012982D01*
X32112489Y-4012982D01*
X32238010Y-3940512D01*
X32238010Y-3940511D01*
X32238015Y-3940509D01*
X32340509Y-3838015D01*
X32345327Y-3829670D01*
X32412982Y-3712489D01*
X32412982Y-3712487D01*
X32412984Y-3712485D01*
X32450500Y-3572475D01*
X32450500Y-3527525D01*
X33249500Y-3527525D01*
X33249500Y-3672474D01*
X33287017Y-3812489D01*
X33359487Y-3938010D01*
X33359489Y-3938012D01*
X33359491Y-3938015D01*
X33461985Y-4040509D01*
X33461987Y-4040510D01*
X33461989Y-4040512D01*
X33587511Y-4112982D01*
X33587512Y-4112982D01*
X33587515Y-4112984D01*
X33727525Y-4150500D01*
X33727526Y-4150500D01*
X33872474Y-4150500D01*
X33872475Y-4150500D01*
X34012485Y-4112984D01*
X34012487Y-4112982D01*
X34012489Y-4112982D01*
X34138010Y-4040512D01*
X34138010Y-4040511D01*
X34138015Y-4040509D01*
X34229998Y-3948525D01*
X34284513Y-3920750D01*
X34344945Y-3930321D01*
X34370000Y-3948524D01*
X34461985Y-4040509D01*
X34461987Y-4040510D01*
X34461989Y-4040512D01*
X34587511Y-4112982D01*
X34587512Y-4112982D01*
X34587515Y-4112984D01*
X34727525Y-4150500D01*
X34727526Y-4150500D01*
X34872474Y-4150500D01*
X34872475Y-4150500D01*
X35012485Y-4112984D01*
X35012487Y-4112982D01*
X35012489Y-4112982D01*
X35138010Y-4040512D01*
X35138010Y-4040511D01*
X35138015Y-4040509D01*
X35240509Y-3938015D01*
X35261543Y-3901583D01*
X35261545Y-3901579D01*
X54749500Y-3901579D01*
X54749500Y-4098420D01*
X54780289Y-4292821D01*
X54841116Y-4480025D01*
X54895884Y-4587515D01*
X54930476Y-4655405D01*
X55046172Y-4814646D01*
X55185354Y-4953828D01*
X55344595Y-5069524D01*
X55519975Y-5158884D01*
X55707174Y-5219709D01*
X55707175Y-5219709D01*
X55707178Y-5219710D01*
X55901580Y-5250500D01*
X55901583Y-5250500D01*
X56098420Y-5250500D01*
X56292821Y-5219710D01*
X56292822Y-5219709D01*
X56292826Y-5219709D01*
X56480025Y-5158884D01*
X56655405Y-5069524D01*
X56814646Y-4953828D01*
X56953828Y-4814646D01*
X57069524Y-4655405D01*
X57158884Y-4480025D01*
X57219709Y-4292826D01*
X57248193Y-4112984D01*
X57250500Y-4098420D01*
X57250500Y-3901579D01*
X57219710Y-3707178D01*
X57219709Y-3707174D01*
X57158884Y-3519975D01*
X57069524Y-3344595D01*
X56953828Y-3185354D01*
X56814646Y-3046172D01*
X56655405Y-2930476D01*
X56655404Y-2930475D01*
X56655402Y-2930474D01*
X56480025Y-2841116D01*
X56292821Y-2780289D01*
X56098420Y-2749500D01*
X56098417Y-2749500D01*
X55901583Y-2749500D01*
X55901580Y-2749500D01*
X55707178Y-2780289D01*
X55519974Y-2841116D01*
X55344597Y-2930474D01*
X55185355Y-3046171D01*
X55046171Y-3185355D01*
X54930474Y-3344597D01*
X54841116Y-3519974D01*
X54780289Y-3707178D01*
X54749500Y-3901579D01*
X35261545Y-3901579D01*
X35292364Y-3848200D01*
X35292368Y-3848193D01*
X35299614Y-3835642D01*
X35312984Y-3812485D01*
X35350500Y-3672475D01*
X35350500Y-3527525D01*
X35312984Y-3387515D01*
X35312982Y-3387512D01*
X35312982Y-3387510D01*
X35240512Y-3261989D01*
X35240510Y-3261987D01*
X35240509Y-3261985D01*
X35138015Y-3159491D01*
X35138012Y-3159489D01*
X35138010Y-3159487D01*
X35012488Y-3087017D01*
X35012489Y-3087017D01*
X34909761Y-3059491D01*
X34872475Y-3049500D01*
X34727525Y-3049500D01*
X34690239Y-3059491D01*
X34587510Y-3087017D01*
X34461989Y-3159487D01*
X34461988Y-3159488D01*
X34461985Y-3159490D01*
X34461985Y-3159491D01*
X34370001Y-3251474D01*
X34315487Y-3279250D01*
X34255055Y-3269679D01*
X34229999Y-3251475D01*
X34138015Y-3159491D01*
X34138012Y-3159489D01*
X34138010Y-3159487D01*
X34012488Y-3087017D01*
X34012489Y-3087017D01*
X33909761Y-3059491D01*
X33872475Y-3049500D01*
X33727525Y-3049500D01*
X33690239Y-3059491D01*
X33587510Y-3087017D01*
X33461989Y-3159487D01*
X33359487Y-3261989D01*
X33287017Y-3387510D01*
X33249500Y-3527525D01*
X32450500Y-3527525D01*
X32450500Y-3427525D01*
X32412984Y-3287515D01*
X32412982Y-3287512D01*
X32412982Y-3287510D01*
X32340512Y-3161989D01*
X32340510Y-3161987D01*
X32340509Y-3161985D01*
X32238015Y-3059491D01*
X32238012Y-3059489D01*
X32238010Y-3059487D01*
X32112488Y-2987017D01*
X32112489Y-2987017D01*
X32082896Y-2979087D01*
X31972475Y-2949500D01*
X31827525Y-2949500D01*
X31765790Y-2966041D01*
X31687510Y-2987017D01*
X31561989Y-3059487D01*
X31459489Y-3161987D01*
X31406604Y-3253586D01*
X31361134Y-3294526D01*
X31300284Y-3300921D01*
X31247296Y-3270328D01*
X31242329Y-3264356D01*
X31240514Y-3261991D01*
X31240510Y-3261987D01*
X31240509Y-3261985D01*
X31138015Y-3159491D01*
X31138012Y-3159489D01*
X31138010Y-3159487D01*
X31012488Y-3087017D01*
X31012489Y-3087017D01*
X30909761Y-3059491D01*
X30872475Y-3049500D01*
X30727525Y-3049500D01*
X30690239Y-3059491D01*
X30587510Y-3087017D01*
X30461989Y-3159487D01*
X30359487Y-3261989D01*
X30287017Y-3387510D01*
X30249500Y-3527525D01*
X5161337Y-3527525D01*
X5158884Y-3519975D01*
X5069524Y-3344595D01*
X4953828Y-3185354D01*
X4814646Y-3046172D01*
X4655405Y-2930476D01*
X4655404Y-2930475D01*
X4655402Y-2930474D01*
X4480025Y-2841116D01*
X4292821Y-2780289D01*
X4098420Y-2749500D01*
X4098417Y-2749500D01*
X3901583Y-2749500D01*
X3901580Y-2749500D01*
X3707178Y-2780289D01*
X3519974Y-2841116D01*
X3344597Y-2930474D01*
X3185355Y-3046171D01*
X3046171Y-3185355D01*
X2930474Y-3344597D01*
X2841116Y-3519974D01*
X2780289Y-3707178D01*
X2749500Y-3901579D01*
X300500Y-3901579D01*
X300500Y-2003538D01*
X300752Y-1996476D01*
X310452Y-1860846D01*
X317293Y-1765189D01*
X319300Y-1751230D01*
X367838Y-1528100D01*
X371812Y-1514567D01*
X451608Y-1300628D01*
X457469Y-1287794D01*
X566900Y-1087385D01*
X574524Y-1075522D01*
X711363Y-892727D01*
X720599Y-882067D01*
X882067Y-720599D01*
X892727Y-711363D01*
X1075522Y-574524D01*
X1087385Y-566900D01*
X1287794Y-457469D01*
X1300628Y-451608D01*
X1514567Y-371812D01*
X1528100Y-367838D01*
X1751230Y-319300D01*
X1765189Y-317293D01*
X1996476Y-300751D01*
X2003538Y-300500D01*
X2047594Y-300500D01*
X57952406Y-300500D01*
X57996462Y-300500D01*
X58003523Y-300751D01*
G37*
%TD.AperFunction*%
%TD*%
M02*
