%TF.GenerationSoftware,KiCad,Pcbnew,10.0.5*%
%TF.CreationDate,2026-09-21T14:35:13+08:00*%
%TF.ProjectId,esp32s3-camera,65737033-3273-4332-9d63-616d6572612e,1.2*%
%TF.SameCoordinates,Original*%
%TF.FileFunction,Soldermask,Top*%
%TF.FilePolarity,Negative*%
%FSLAX46Y46*%
G04 Gerber Fmt 4.6, Leading zero omitted, Abs format (unit mm)*
G04 Created by KiCad (PCBNEW 10.0.5) date 2026-09-21 14:35:13*
%MOMM*%
%LPD*%
G01*
G04 APERTURE LIST*
G04 Aperture macros list*
%AMRoundRect*
0 Rectangle with rounded corners*
0 $1 Rounding radius*
0 $2 $3 $4 $5 $6 $7 $8 $9 X,Y pos of 4 corners*
0 Add a 4 corners polygon primitive as box body*
4,1,4,$2,$3,$4,$5,$6,$7,$8,$9,$2,$3,0*
0 Add four circle primitives for the rounded corners*
1,1,$1+$1,$2,$3*
1,1,$1+$1,$4,$5*
1,1,$1+$1,$6,$7*
1,1,$1+$1,$8,$9*
0 Add four rect primitives between the rounded corners*
20,1,$1+$1,$2,$3,$4,$5,0*
20,1,$1+$1,$4,$5,$6,$7,0*
20,1,$1+$1,$6,$7,$8,$9,0*
20,1,$1+$1,$8,$9,$2,$3,0*%
G04 Aperture macros list end*
%ADD10RoundRect,0.200000X-0.200000X-0.275000X0.200000X-0.275000X0.200000X0.275000X-0.200000X0.275000X0*%
%ADD11R,1.800000X1.100000*%
%ADD12C,2.200000*%
%ADD13RoundRect,0.225000X0.250000X-0.225000X0.250000X0.225000X-0.250000X0.225000X-0.250000X-0.225000X0*%
%ADD14R,1.500000X0.900000*%
%ADD15R,0.900000X1.500000*%
%ADD16C,0.550000*%
%ADD17R,3.900000X3.900000*%
%ADD18RoundRect,0.218750X-0.218750X-0.256250X0.218750X-0.256250X0.218750X0.256250X-0.218750X0.256250X0*%
%ADD19RoundRect,0.250000X0.475000X-0.250000X0.475000X0.250000X-0.475000X0.250000X-0.475000X-0.250000X0*%
%ADD20RoundRect,0.150000X-0.587500X-0.150000X0.587500X-0.150000X0.587500X0.150000X-0.587500X0.150000X0*%
%ADD21RoundRect,0.150000X-0.512500X-0.150000X0.512500X-0.150000X0.512500X0.150000X-0.512500X0.150000X0*%
%ADD22RoundRect,0.250000X-0.250000X-0.475000X0.250000X-0.475000X0.250000X0.475000X-0.250000X0.475000X0*%
%ADD23R,0.300000X1.300000*%
%ADD24R,1.800000X2.200000*%
%ADD25C,0.650000*%
%ADD26RoundRect,0.150000X0.500000X-0.150000X0.500000X0.150000X-0.500000X0.150000X-0.500000X-0.150000X0*%
%ADD27RoundRect,0.075000X0.575000X-0.075000X0.575000X0.075000X-0.575000X0.075000X-0.575000X-0.075000X0*%
%ADD28O,2.100000X1.000000*%
%ADD29O,1.600000X1.000000*%
%ADD30RoundRect,0.225000X-0.225000X-0.250000X0.225000X-0.250000X0.225000X0.250000X-0.225000X0.250000X0*%
%ADD31C,0.850000*%
%ADD32RoundRect,0.175000X0.175000X-0.350000X0.175000X0.350000X-0.175000X0.350000X-0.175000X-0.350000X0*%
%ADD33R,1.700000X1.700000*%
%ADD34C,1.700000*%
%ADD35RoundRect,0.250000X0.350000X0.625000X-0.350000X0.625000X-0.350000X-0.625000X0.350000X-0.625000X0*%
%ADD36O,1.200000X1.750000*%
G04 APERTURE END LIST*
D10*
%TO.C,R9*%
X13175000Y-8500000D03*
X14825000Y-8500000D03*
%TD*%
D11*
%TO.C,SW2*%
X5900000Y-22150000D03*
X12100000Y-22150000D03*
X5900000Y-25850000D03*
X12100000Y-25850000D03*
%TD*%
D10*
%TO.C,R10*%
X8175000Y-8500000D03*
X9825000Y-8500000D03*
%TD*%
D12*
%TO.C,H3*%
X4000000Y-71000000D03*
%TD*%
D13*
%TO.C,C14*%
X40300000Y-13275000D03*
X40300000Y-11725000D03*
%TD*%
%TO.C,C15*%
X47500000Y-14775000D03*
X47500000Y-13225000D03*
%TD*%
D14*
%TO.C,U1*%
X38750000Y-73760000D03*
X38750000Y-72490000D03*
X38750000Y-71220000D03*
X38750000Y-69950000D03*
X38750000Y-68680000D03*
X38750000Y-67410000D03*
X38750000Y-66140000D03*
X38750000Y-64870000D03*
X38750000Y-63600000D03*
X38750000Y-62330000D03*
X38750000Y-61060000D03*
X38750000Y-59790000D03*
X38750000Y-58520000D03*
X38750000Y-57250000D03*
D15*
X36985000Y-56000000D03*
X35715000Y-56000000D03*
X34445000Y-56000000D03*
X33175000Y-56000000D03*
X31905000Y-56000000D03*
X30635000Y-56000000D03*
X29365000Y-56000000D03*
X28095000Y-56000000D03*
X26825000Y-56000000D03*
X25555000Y-56000000D03*
X24285000Y-56000000D03*
X23015000Y-56000000D03*
D14*
X21250000Y-57250000D03*
X21250000Y-58520000D03*
X21250000Y-59790000D03*
X21250000Y-61060000D03*
X21250000Y-62330000D03*
X21250000Y-63600000D03*
X21250000Y-64870000D03*
X21250000Y-66140000D03*
X21250000Y-67410000D03*
X21250000Y-68680000D03*
X21250000Y-69950000D03*
X21250000Y-71220000D03*
X21250000Y-72490000D03*
X21250000Y-73760000D03*
D16*
X32200000Y-67440000D03*
X32200000Y-66040000D03*
X32200000Y-64640000D03*
D17*
X31500000Y-66040000D03*
D16*
X30800000Y-67440000D03*
X30800000Y-66040000D03*
X30800000Y-64640000D03*
%TD*%
D18*
%TO.C,D4*%
X8212500Y-4500000D03*
X9787500Y-4500000D03*
%TD*%
D19*
%TO.C,C16*%
X40300000Y-17950000D03*
X40300000Y-16050000D03*
%TD*%
D10*
%TO.C,R20*%
X52175000Y-8199999D03*
X53825000Y-8199999D03*
%TD*%
%TO.C,R12*%
X11175000Y-15500000D03*
X12825000Y-15500000D03*
%TD*%
D20*
%TO.C,Q1*%
X6062500Y-12050000D03*
X6062500Y-13950000D03*
X7937500Y-13000000D03*
%TD*%
D12*
%TO.C,H4*%
X56000000Y-71000000D03*
%TD*%
D21*
%TO.C,U5*%
X42862500Y-4550000D03*
X42862500Y-6450000D03*
X45137500Y-5500000D03*
%TD*%
D19*
%TO.C,C13*%
X40300000Y-9950000D03*
X40300000Y-8050000D03*
%TD*%
D22*
%TO.C,C8*%
X19050000Y-13000000D03*
X20950000Y-13000000D03*
%TD*%
D12*
%TO.C,H1*%
X4000000Y-4000000D03*
%TD*%
D11*
%TO.C,SW3*%
X5900000Y-38150000D03*
X12100000Y-38150000D03*
X5900000Y-41850000D03*
X12100000Y-41850000D03*
%TD*%
D21*
%TO.C,U6*%
X42862500Y-13050000D03*
X42862500Y-14950000D03*
X45137500Y-14000000D03*
%TD*%
%TO.C,U4*%
X50862500Y-33050000D03*
X50862500Y-34000000D03*
X50862500Y-34950000D03*
X53137500Y-34950000D03*
X53137500Y-34000000D03*
X53137500Y-33050000D03*
%TD*%
D13*
%TO.C,C17*%
X40300000Y-21275000D03*
X40300000Y-19725000D03*
%TD*%
D23*
%TO.C,J2*%
X24250000Y-4650000D03*
X24750000Y-4650000D03*
X25250000Y-4650000D03*
X25750000Y-4650000D03*
X26250000Y-4650000D03*
X26750000Y-4650000D03*
X27250000Y-4650000D03*
X27750000Y-4650000D03*
X28250000Y-4650000D03*
X28750000Y-4650000D03*
X29250000Y-4650000D03*
X29750000Y-4650000D03*
X30250000Y-4650000D03*
X30750000Y-4650000D03*
X31250000Y-4650000D03*
X31750000Y-4650000D03*
X32250000Y-4650000D03*
X32750000Y-4650000D03*
X33250000Y-4650000D03*
X33750000Y-4650000D03*
X34250000Y-4650000D03*
X34750000Y-4650000D03*
X35250000Y-4650000D03*
X35750000Y-4650000D03*
D24*
X22350000Y-7900000D03*
X37650000Y-7900000D03*
%TD*%
D12*
%TO.C,H2*%
X56000000Y-4000000D03*
%TD*%
D18*
%TO.C,D5*%
X52212500Y-11200000D03*
X53787500Y-11200000D03*
%TD*%
D11*
%TO.C,SW1*%
X5900000Y-30150000D03*
X12100000Y-30150000D03*
X5900000Y-33850000D03*
X12100000Y-33850000D03*
%TD*%
D13*
%TO.C,C12*%
X47500000Y-6275000D03*
X47500000Y-4725000D03*
%TD*%
D10*
%TO.C,R11*%
X11175000Y-12500000D03*
X12825000Y-12500000D03*
%TD*%
D25*
%TO.C,J1*%
X53665000Y-26890000D03*
X53665000Y-21110000D03*
D26*
X52525000Y-27200000D03*
X52525000Y-26400000D03*
D27*
X52525000Y-25250000D03*
X52525000Y-24250000D03*
X52525000Y-23750000D03*
X52525000Y-22750000D03*
D26*
X52525000Y-21600000D03*
X52525000Y-20800000D03*
X52525000Y-20800000D03*
X52525000Y-21600000D03*
D27*
X52525000Y-22250000D03*
X52525000Y-23250000D03*
X52525000Y-24750000D03*
X52525000Y-25750000D03*
D26*
X52525000Y-26400000D03*
X52525000Y-27200000D03*
D28*
X53165000Y-28320000D03*
D29*
X57345000Y-28320000D03*
D28*
X53165000Y-19680000D03*
D29*
X57345000Y-19680000D03*
%TD*%
D30*
%TO.C,C9*%
X23225000Y-13000000D03*
X24775000Y-13000000D03*
%TD*%
D18*
%TO.C,D1*%
X13212500Y-4500000D03*
X14787500Y-4500000D03*
%TD*%
D10*
%TO.C,R1*%
X51175000Y-38000000D03*
X52825000Y-38000000D03*
%TD*%
D31*
%TO.C,SW4*%
X57600000Y-12500000D03*
X57600000Y-9500000D03*
D26*
X55650000Y-13250000D03*
X55650000Y-10250000D03*
X55650000Y-8750000D03*
D32*
X56500000Y-14675000D03*
X58700000Y-14675000D03*
X56500000Y-7325000D03*
X58700000Y-7325000D03*
%TD*%
D10*
%TO.C,R2*%
X51175000Y-42000000D03*
X52825000Y-42000000D03*
%TD*%
D33*
%TO.C,J6*%
X56000000Y-54000000D03*
D34*
X56000000Y-56540000D03*
X56000000Y-59080000D03*
X56000000Y-61620000D03*
%TD*%
D33*
%TO.C,J5*%
X56000000Y-40000000D03*
D34*
X56000000Y-42540000D03*
X56000000Y-45080000D03*
X56000000Y-47620000D03*
%TD*%
D35*
%TO.C,J4*%
X12000000Y-62000000D03*
D36*
X10000000Y-62000000D03*
%TD*%
M02*
