#VRML V2.0 utf8
# OV2640 module, ribbon folded back onto the board. Generated by gen_camera_wrl.py
Transform { translation 0.0000 0.2953 0.3937 children Shape { appearance Appearance { material Material { diffuseColor 0.85 0.52 0.16 specularColor 0.35 0.3 0.25 shininess 0.5 } } geometry Box { size 5.5118 1.3780 0.0787 } } }
Transform { translation 0.0000 0.4724 0.4370 children Shape { appearance Appearance { material Material { diffuseColor 0.85 0.7 0.35 specularColor 0.8 0.7 0.4 shininess 0.8 } } geometry Box { size 4.7244 0.4724 0.0118 } } }
Transform { translation 0.0000 -0.1969 0.4331 children Shape { appearance Appearance { material Material { diffuseColor 0.93 0.93 0.9 specularColor 0.2 0.2 0.2 shininess 0.3 } } geometry Box { size 5.5118 1.1811 0.1181 } } }
Shape { appearance Appearance { material Material { diffuseColor 0.85 0.52 0.16 specularColor 0.35 0.3 0.25 shininess 0.5 } } geometry IndexedFaceSet { solid FALSE creaseAngle 1.0 coord Coordinate { point [ -2.7559 0.9843 0.3937 -2.7559 1.0380 0.3990 -2.7559 1.0897 0.4147 -2.7559 1.1374 0.4401 -2.7559 1.1791 0.4744 -2.7559 1.2134 0.5162 -2.7559 1.2389 0.5638 -2.7559 1.2545 0.6155 -2.7559 1.2598 0.6693 -2.7559 1.2545 0.7231 -2.7559 1.2389 0.7748 -2.7559 1.2134 0.8224 -2.7559 1.1791 0.8642 -2.7559 1.1374 0.8984 -2.7559 1.0897 0.9239 -2.7559 1.0380 0.9396 -2.7559 0.9843 0.9449 2.7559 0.9843 0.3937 2.7559 1.0380 0.3990 2.7559 1.0897 0.4147 2.7559 1.1374 0.4401 2.7559 1.1791 0.4744 2.7559 1.2134 0.5162 2.7559 1.2389 0.5638 2.7559 1.2545 0.6155 2.7559 1.2598 0.6693 2.7559 1.2545 0.7231 2.7559 1.2389 0.7748 2.7559 1.2134 0.8224 2.7559 1.1791 0.8642 2.7559 1.1374 0.8984 2.7559 1.0897 0.9239 2.7559 1.0380 0.9396 2.7559 0.9843 0.9449 ] } coordIndex [ 0 1 18 17 -1 1 2 19 18 -1 2 3 20 19 -1 3 4 21 20 -1 4 5 22 21 -1 5 6 23 22 -1 6 7 24 23 -1 7 8 25 24 -1 8 9 26 25 -1 9 10 27 26 -1 10 11 28 27 -1 11 12 29 28 -1 12 13 30 29 -1 13 14 31 30 -1 14 15 32 31 -1 15 16 33 32 -1 ] } }
Transform { translation 0.0000 -2.2638 0.9449 children Shape { appearance Appearance { material Material { diffuseColor 0.85 0.52 0.16 specularColor 0.35 0.3 0.25 shininess 0.5 } } geometry Box { size 5.5118 6.4961 0.0787 } } }
Transform { translation 0.0000 -7.2835 0.4528 children Shape { appearance Appearance { material Material { diffuseColor 0.25 0.25 0.27 specularColor 0.2 0.2 0.2 shininess 0.3 } } geometry Box { size 3.1496 3.1496 0.9055 } } }
Transform { translation 0.0000 -7.2835 1.1417 children Shape { appearance Appearance { material Material { diffuseColor 0.05 0.09 0.07 specularColor 0.2 0.2 0.2 shininess 0.3 } } geometry Box { size 3.5433 3.5433 0.3937 } } }
Transform { translation 0.0000 -7.2835 2.0276 children Shape { appearance Appearance { material Material { diffuseColor 0.13 0.13 0.14 specularColor 0.15 0.15 0.15 shininess 0.3 } } geometry Box { size 3.3465 3.3465 1.3780 } } }
Shape { appearance Appearance { material Material { diffuseColor 0.05 0.05 0.06 specularColor 0.6 0.6 0.6 shininess 0.85 } } geometry IndexedFaceSet { solid FALSE creaseAngle 0.8 coord Coordinate { point [ 1.2795 -7.2835 2.7165 1.2638 -7.0833 2.7165 1.2169 -6.8881 2.7165 1.1401 -6.7026 2.7165 1.0352 -6.5314 2.7165 0.9048 -6.3787 2.7165 0.7521 -6.2483 2.7165 0.5809 -6.1434 2.7165 0.3954 -6.0666 2.7165 0.2002 -6.0197 2.7165 0.0000 -6.0039 2.7165 -0.2002 -6.0197 2.7165 -0.3954 -6.0666 2.7165 -0.5809 -6.1434 2.7165 -0.7521 -6.2483 2.7165 -0.9048 -6.3787 2.7165 -1.0352 -6.5314 2.7165 -1.1401 -6.7026 2.7165 -1.2169 -6.8881 2.7165 -1.2638 -7.0833 2.7165 -1.2795 -7.2835 2.7165 -1.2638 -7.4836 2.7165 -1.2169 -7.6789 2.7165 -1.1401 -7.8644 2.7165 -1.0352 -8.0356 2.7165 -0.9048 -8.1882 2.7165 -0.7521 -8.3186 2.7165 -0.5809 -8.4235 2.7165 -0.3954 -8.5004 2.7165 -0.2002 -8.5472 2.7165 -0.0000 -8.5630 2.7165 0.2002 -8.5472 2.7165 0.3954 -8.5004 2.7165 0.5809 -8.4235 2.7165 0.7521 -8.3186 2.7165 0.9048 -8.1882 2.7165 1.0352 -8.0356 2.7165 1.1401 -7.8644 2.7165 1.2169 -7.6789 2.7165 1.2638 -7.4836 2.7165 1.2795 -7.2835 3.4252 1.2638 -7.0833 3.4252 1.2169 -6.8881 3.4252 1.1401 -6.7026 3.4252 1.0352 -6.5314 3.4252 0.9048 -6.3787 3.4252 0.7521 -6.2483 3.4252 0.5809 -6.1434 3.4252 0.3954 -6.0666 3.4252 0.2002 -6.0197 3.4252 0.0000 -6.0039 3.4252 -0.2002 -6.0197 3.4252 -0.3954 -6.0666 3.4252 -0.5809 -6.1434 3.4252 -0.7521 -6.2483 3.4252 -0.9048 -6.3787 3.4252 -1.0352 -6.5314 3.4252 -1.1401 -6.7026 3.4252 -1.2169 -6.8881 3.4252 -1.2638 -7.0833 3.4252 -1.2795 -7.2835 3.4252 -1.2638 -7.4836 3.4252 -1.2169 -7.6789 3.4252 -1.1401 -7.8644 3.4252 -1.0352 -8.0356 3.4252 -0.9048 -8.1882 3.4252 -0.7521 -8.3186 3.4252 -0.5809 -8.4235 3.4252 -0.3954 -8.5004 3.4252 -0.2002 -8.5472 3.4252 -0.0000 -8.5630 3.4252 0.2002 -8.5472 3.4252 0.3954 -8.5004 3.4252 0.5809 -8.4235 3.4252 0.7521 -8.3186 3.4252 0.9048 -8.1882 3.4252 1.0352 -8.0356 3.4252 1.1401 -7.8644 3.4252 1.2169 -7.6789 3.4252 1.2638 -7.4836 3.4252 0.0000 -7.2835 2.7165 0.0000 -7.2835 3.4252 ] } coordIndex [ 0 1 41 40 -1 80 1 0 -1 81 40 41 -1 1 2 42 41 -1 80 2 1 -1 81 41 42 -1 2 3 43 42 -1 80 3 2 -1 81 42 43 -1 3 4 44 43 -1 80 4 3 -1 81 43 44 -1 4 5 45 44 -1 80 5 4 -1 81 44 45 -1 5 6 46 45 -1 80 6 5 -1 81 45 46 -1 6 7 47 46 -1 80 7 6 -1 81 46 47 -1 7 8 48 47 -1 80 8 7 -1 81 47 48 -1 8 9 49 48 -1 80 9 8 -1 81 48 49 -1 9 10 50 49 -1 80 10 9 -1 81 49 50 -1 10 11 51 50 -1 80 11 10 -1 81 50 51 -1 11 12 52 51 -1 80 12 11 -1 81 51 52 -1 12 13 53 52 -1 80 13 12 -1 81 52 53 -1 13 14 54 53 -1 80 14 13 -1 81 53 54 -1 14 15 55 54 -1 80 15 14 -1 81 54 55 -1 15 16 56 55 -1 80 16 15 -1 81 55 56 -1 16 17 57 56 -1 80 17 16 -1 81 56 57 -1 17 18 58 57 -1 80 18 17 -1 81 57 58 -1 18 19 59 58 -1 80 19 18 -1 81 58 59 -1 19 20 60 59 -1 80 20 19 -1 81 59 60 -1 20 21 61 60 -1 80 21 20 -1 81 60 61 -1 21 22 62 61 -1 80 22 21 -1 81 61 62 -1 22 23 63 62 -1 80 23 22 -1 81 62 63 -1 23 24 64 63 -1 80 24 23 -1 81 63 64 -1 24 25 65 64 -1 80 25 24 -1 81 64 65 -1 25 26 66 65 -1 80 26 25 -1 81 65 66 -1 26 27 67 66 -1 80 27 26 -1 81 66 67 -1 27 28 68 67 -1 80 28 27 -1 81 67 68 -1 28 29 69 68 -1 80 29 28 -1 81 68 69 -1 29 30 70 69 -1 80 30 29 -1 81 69 70 -1 30 31 71 70 -1 80 31 30 -1 81 70 71 -1 31 32 72 71 -1 80 32 31 -1 81 71 72 -1 32 33 73 72 -1 80 33 32 -1 81 72 73 -1 33 34 74 73 -1 80 34 33 -1 81 73 74 -1 34 35 75 74 -1 80 35 34 -1 81 74 75 -1 35 36 76 75 -1 80 36 35 -1 81 75 76 -1 36 37 77 76 -1 80 37 36 -1 81 76 77 -1 37 38 78 77 -1 80 38 37 -1 81 77 78 -1 38 39 79 78 -1 80 39 38 -1 81 78 79 -1 39 0 40 79 -1 80 0 39 -1 81 79 40 -1 ] } }
Shape { appearance Appearance { material Material { diffuseColor 0.72 0.72 0.74 specularColor 0.9 0.9 0.9 shininess 0.9 } } geometry IndexedFaceSet { solid FALSE creaseAngle 0.8 coord Coordinate { point [ 1.3583 -7.2835 3.4252 1.3415 -7.0710 3.4252 1.2918 -6.8637 3.4252 1.2102 -6.6668 3.4252 1.0989 -6.4851 3.4252 0.9604 -6.3230 3.4252 0.7984 -6.1846 3.4252 0.6166 -6.0732 3.4252 0.4197 -5.9917 3.4252 0.2125 -5.9419 3.4252 0.0000 -5.9252 3.4252 -0.2125 -5.9419 3.4252 -0.4197 -5.9917 3.4252 -0.6166 -6.0732 3.4252 -0.7984 -6.1846 3.4252 -0.9604 -6.3230 3.4252 -1.0989 -6.4851 3.4252 -1.2102 -6.6668 3.4252 -1.2918 -6.8637 3.4252 -1.3415 -7.0710 3.4252 -1.3583 -7.2835 3.4252 -1.3415 -7.4959 3.4252 -1.2918 -7.7032 3.4252 -1.2102 -7.9001 3.4252 -1.0989 -8.0818 3.4252 -0.9604 -8.2439 3.4252 -0.7984 -8.3823 3.4252 -0.6166 -8.4937 3.4252 -0.4197 -8.5753 3.4252 -0.2125 -8.6250 3.4252 -0.0000 -8.6417 3.4252 0.2125 -8.6250 3.4252 0.4197 -8.5753 3.4252 0.6166 -8.4937 3.4252 0.7984 -8.3823 3.4252 0.9604 -8.2439 3.4252 1.0989 -8.0818 3.4252 1.2102 -7.9001 3.4252 1.2918 -7.7032 3.4252 1.3415 -7.4959 3.4252 1.3583 -7.2835 3.5433 1.3415 -7.0710 3.5433 1.2918 -6.8637 3.5433 1.2102 -6.6668 3.5433 1.0989 -6.4851 3.5433 0.9604 -6.3230 3.5433 0.7984 -6.1846 3.5433 0.6166 -6.0732 3.5433 0.4197 -5.9917 3.5433 0.2125 -5.9419 3.5433 0.0000 -5.9252 3.5433 -0.2125 -5.9419 3.5433 -0.4197 -5.9917 3.5433 -0.6166 -6.0732 3.5433 -0.7984 -6.1846 3.5433 -0.9604 -6.3230 3.5433 -1.0989 -6.4851 3.5433 -1.2102 -6.6668 3.5433 -1.2918 -6.8637 3.5433 -1.3415 -7.0710 3.5433 -1.3583 -7.2835 3.5433 -1.3415 -7.4959 3.5433 -1.2918 -7.7032 3.5433 -1.2102 -7.9001 3.5433 -1.0989 -8.0818 3.5433 -0.9604 -8.2439 3.5433 -0.7984 -8.3823 3.5433 -0.6166 -8.4937 3.5433 -0.4197 -8.5753 3.5433 -0.2125 -8.6250 3.5433 -0.0000 -8.6417 3.5433 0.2125 -8.6250 3.5433 0.4197 -8.5753 3.5433 0.6166 -8.4937 3.5433 0.7984 -8.3823 3.5433 0.9604 -8.2439 3.5433 1.0989 -8.0818 3.5433 1.2102 -7.9001 3.5433 1.2918 -7.7032 3.5433 1.3415 -7.4959 3.5433 0.0000 -7.2835 3.4252 0.0000 -7.2835 3.5433 ] } coordIndex [ 0 1 41 40 -1 80 1 0 -1 81 40 41 -1 1 2 42 41 -1 80 2 1 -1 81 41 42 -1 2 3 43 42 -1 80 3 2 -1 81 42 43 -1 3 4 44 43 -1 80 4 3 -1 81 43 44 -1 4 5 45 44 -1 80 5 4 -1 81 44 45 -1 5 6 46 45 -1 80 6 5 -1 81 45 46 -1 6 7 47 46 -1 80 7 6 -1 81 46 47 -1 7 8 48 47 -1 80 8 7 -1 81 47 48 -1 8 9 49 48 -1 80 9 8 -1 81 48 49 -1 9 10 50 49 -1 80 10 9 -1 81 49 50 -1 10 11 51 50 -1 80 11 10 -1 81 50 51 -1 11 12 52 51 -1 80 12 11 -1 81 51 52 -1 12 13 53 52 -1 80 13 12 -1 81 52 53 -1 13 14 54 53 -1 80 14 13 -1 81 53 54 -1 14 15 55 54 -1 80 15 14 -1 81 54 55 -1 15 16 56 55 -1 80 16 15 -1 81 55 56 -1 16 17 57 56 -1 80 17 16 -1 81 56 57 -1 17 18 58 57 -1 80 18 17 -1 81 57 58 -1 18 19 59 58 -1 80 19 18 -1 81 58 59 -1 19 20 60 59 -1 80 20 19 -1 81 59 60 -1 20 21 61 60 -1 80 21 20 -1 81 60 61 -1 21 22 62 61 -1 80 22 21 -1 81 61 62 -1 22 23 63 62 -1 80 23 22 -1 81 62 63 -1 23 24 64 63 -1 80 24 23 -1 81 63 64 -1 24 25 65 64 -1 80 25 24 -1 81 64 65 -1 25 26 66 65 -1 80 26 25 -1 81 65 66 -1 26 27 67 66 -1 80 27 26 -1 81 66 67 -1 27 28 68 67 -1 80 28 27 -1 81 67 68 -1 28 29 69 68 -1 80 29 28 -1 81 68 69 -1 29 30 70 69 -1 80 30 29 -1 81 69 70 -1 30 31 71 70 -1 80 31 30 -1 81 70 71 -1 31 32 72 71 -1 80 32 31 -1 81 71 72 -1 32 33 73 72 -1 80 33 32 -1 81 72 73 -1 33 34 74 73 -1 80 34 33 -1 81 73 74 -1 34 35 75 74 -1 80 35 34 -1 81 74 75 -1 35 36 76 75 -1 80 36 35 -1 81 75 76 -1 36 37 77 76 -1 80 37 36 -1 81 76 77 -1 37 38 78 77 -1 80 38 37 -1 81 77 78 -1 38 39 79 78 -1 80 39 38 -1 81 78 79 -1 39 0 40 79 -1 80 0 39 -1 81 79 40 -1 ] } }
Shape { appearance Appearance { material Material { diffuseColor 0.05 0.05 0.06 specularColor 0.6 0.6 0.6 shininess 0.85 } } geometry IndexedFaceSet { solid FALSE creaseAngle 0.8 coord Coordinate { point [ 0.9843 -7.2835 3.5394 0.9721 -7.1295 3.5394 0.9361 -6.9793 3.5394 0.8770 -6.8366 3.5394 0.7963 -6.7049 3.5394 0.6960 -6.5875 3.5394 0.5785 -6.4872 3.5394 0.4468 -6.4065 3.5394 0.3042 -6.3474 3.5394 0.1540 -6.3113 3.5394 0.0000 -6.2992 3.5394 -0.1540 -6.3113 3.5394 -0.3042 -6.3474 3.5394 -0.4468 -6.4065 3.5394 -0.5785 -6.4872 3.5394 -0.6960 -6.5875 3.5394 -0.7963 -6.7049 3.5394 -0.8770 -6.8366 3.5394 -0.9361 -6.9793 3.5394 -0.9721 -7.1295 3.5394 -0.9843 -7.2835 3.5394 -0.9721 -7.4374 3.5394 -0.9361 -7.5876 3.5394 -0.8770 -7.7303 3.5394 -0.7963 -7.8620 3.5394 -0.6960 -7.9794 3.5394 -0.5785 -8.0797 3.5394 -0.4468 -8.1604 3.5394 -0.3042 -8.2195 3.5394 -0.1540 -8.2556 3.5394 -0.0000 -8.2677 3.5394 0.1540 -8.2556 3.5394 0.3042 -8.2195 3.5394 0.4468 -8.1604 3.5394 0.5785 -8.0797 3.5394 0.6960 -7.9794 3.5394 0.7963 -7.8620 3.5394 0.8770 -7.7303 3.5394 0.9361 -7.5876 3.5394 0.9721 -7.4374 3.5394 0.9843 -7.2835 3.5630 0.9721 -7.1295 3.5630 0.9361 -6.9793 3.5630 0.8770 -6.8366 3.5630 0.7963 -6.7049 3.5630 0.6960 -6.5875 3.5630 0.5785 -6.4872 3.5630 0.4468 -6.4065 3.5630 0.3042 -6.3474 3.5630 0.1540 -6.3113 3.5630 0.0000 -6.2992 3.5630 -0.1540 -6.3113 3.5630 -0.3042 -6.3474 3.5630 -0.4468 -6.4065 3.5630 -0.5785 -6.4872 3.5630 -0.6960 -6.5875 3.5630 -0.7963 -6.7049 3.5630 -0.8770 -6.8366 3.5630 -0.9361 -6.9793 3.5630 -0.9721 -7.1295 3.5630 -0.9843 -7.2835 3.5630 -0.9721 -7.4374 3.5630 -0.9361 -7.5876 3.5630 -0.8770 -7.7303 3.5630 -0.7963 -7.8620 3.5630 -0.6960 -7.9794 3.5630 -0.5785 -8.0797 3.5630 -0.4468 -8.1604 3.5630 -0.3042 -8.2195 3.5630 -0.1540 -8.2556 3.5630 -0.0000 -8.2677 3.5630 0.1540 -8.2556 3.5630 0.3042 -8.2195 3.5630 0.4468 -8.1604 3.5630 0.5785 -8.0797 3.5630 0.6960 -7.9794 3.5630 0.7963 -7.8620 3.5630 0.8770 -7.7303 3.5630 0.9361 -7.5876 3.5630 0.9721 -7.4374 3.5630 0.0000 -7.2835 3.5394 0.0000 -7.2835 3.5630 ] } coordIndex [ 0 1 41 40 -1 80 1 0 -1 81 40 41 -1 1 2 42 41 -1 80 2 1 -1 81 41 42 -1 2 3 43 42 -1 80 3 2 -1 81 42 43 -1 3 4 44 43 -1 80 4 3 -1 81 43 44 -1 4 5 45 44 -1 80 5 4 -1 81 44 45 -1 5 6 46 45 -1 80 6 5 -1 81 45 46 -1 6 7 47 46 -1 80 7 6 -1 81 46 47 -1 7 8 48 47 -1 80 8 7 -1 81 47 48 -1 8 9 49 48 -1 80 9 8 -1 81 48 49 -1 9 10 50 49 -1 80 10 9 -1 81 49 50 -1 10 11 51 50 -1 80 11 10 -1 81 50 51 -1 11 12 52 51 -1 80 12 11 -1 81 51 52 -1 12 13 53 52 -1 80 13 12 -1 81 52 53 -1 13 14 54 53 -1 80 14 13 -1 81 53 54 -1 14 15 55 54 -1 80 15 14 -1 81 54 55 -1 15 16 56 55 -1 80 16 15 -1 81 55 56 -1 16 17 57 56 -1 80 17 16 -1 81 56 57 -1 17 18 58 57 -1 80 18 17 -1 81 57 58 -1 18 19 59 58 -1 80 19 18 -1 81 58 59 -1 19 20 60 59 -1 80 20 19 -1 81 59 60 -1 20 21 61 60 -1 80 21 20 -1 81 60 61 -1 21 22 62 61 -1 80 22 21 -1 81 61 62 -1 22 23 63 62 -1 80 23 22 -1 81 62 63 -1 23 24 64 63 -1 80 24 23 -1 81 63 64 -1 24 25 65 64 -1 80 25 24 -1 81 64 65 -1 25 26 66 65 -1 80 26 25 -1 81 65 66 -1 26 27 67 66 -1 80 27 26 -1 81 66 67 -1 27 28 68 67 -1 80 28 27 -1 81 67 68 -1 28 29 69 68 -1 80 29 28 -1 81 68 69 -1 29 30 70 69 -1 80 30 29 -1 81 69 70 -1 30 31 71 70 -1 80 31 30 -1 81 70 71 -1 31 32 72 71 -1 80 32 31 -1 81 71 72 -1 32 33 73 72 -1 80 33 32 -1 81 72 73 -1 33 34 74 73 -1 80 34 33 -1 81 73 74 -1 34 35 75 74 -1 80 35 34 -1 81 74 75 -1 35 36 76 75 -1 80 36 35 -1 81 75 76 -1 36 37 77 76 -1 80 37 36 -1 81 76 77 -1 37 38 78 77 -1 80 38 37 -1 81 77 78 -1 38 39 79 78 -1 80 39 38 -1 81 78 79 -1 39 0 40 79 -1 80 0 39 -1 81 79 40 -1 ] } }
Shape { appearance Appearance { material Material { diffuseColor 0.12 0.16 0.42 specularColor 1.0 1.0 1.0 shininess 1.0 } } geometry IndexedFaceSet { solid FALSE creaseAngle 0.8 coord Coordinate { point [ 0.6693 -7.2835 3.5630 0.6611 -7.1788 3.5630 0.6365 -7.0766 3.5630 0.5963 -6.9796 3.5630 0.5415 -6.8901 3.5630 0.4733 -6.8102 3.5630 0.3934 -6.7420 3.5630 0.3039 -6.6871 3.5630 0.2068 -6.6469 3.5630 0.1047 -6.6224 3.5630 0.0000 -6.6142 3.5630 -0.1047 -6.6224 3.5630 -0.2068 -6.6469 3.5630 -0.3039 -6.6871 3.5630 -0.3934 -6.7420 3.5630 -0.4733 -6.8102 3.5630 -0.5415 -6.8901 3.5630 -0.5963 -6.9796 3.5630 -0.6365 -7.0766 3.5630 -0.6611 -7.1788 3.5630 -0.6693 -7.2835 3.5630 -0.6611 -7.3882 3.5630 -0.6365 -7.4903 3.5630 -0.5963 -7.5873 3.5630 -0.5415 -7.6769 3.5630 -0.4733 -7.7567 3.5630 -0.3934 -7.8249 3.5630 -0.3039 -7.8798 3.5630 -0.2068 -7.9200 3.5630 -0.1047 -7.9445 3.5630 -0.0000 -7.9528 3.5630 0.1047 -7.9445 3.5630 0.2068 -7.9200 3.5630 0.3039 -7.8798 3.5630 0.3934 -7.8249 3.5630 0.4733 -7.7567 3.5630 0.5415 -7.6769 3.5630 0.5963 -7.5873 3.5630 0.6365 -7.4903 3.5630 0.6611 -7.3882 3.5630 0.6693 -7.2835 3.6220 0.6611 -7.1788 3.6220 0.6365 -7.0766 3.6220 0.5963 -6.9796 3.6220 0.5415 -6.8901 3.6220 0.4733 -6.8102 3.6220 0.3934 -6.7420 3.6220 0.3039 -6.6871 3.6220 0.2068 -6.6469 3.6220 0.1047 -6.6224 3.6220 0.0000 -6.6142 3.6220 -0.1047 -6.6224 3.6220 -0.2068 -6.6469 3.6220 -0.3039 -6.6871 3.6220 -0.3934 -6.7420 3.6220 -0.4733 -6.8102 3.6220 -0.5415 -6.8901 3.6220 -0.5963 -6.9796 3.6220 -0.6365 -7.0766 3.6220 -0.6611 -7.1788 3.6220 -0.6693 -7.2835 3.6220 -0.6611 -7.3882 3.6220 -0.6365 -7.4903 3.6220 -0.5963 -7.5873 3.6220 -0.5415 -7.6769 3.6220 -0.4733 -7.7567 3.6220 -0.3934 -7.8249 3.6220 -0.3039 -7.8798 3.6220 -0.2068 -7.9200 3.6220 -0.1047 -7.9445 3.6220 -0.0000 -7.9528 3.6220 0.1047 -7.9445 3.6220 0.2068 -7.9200 3.6220 0.3039 -7.8798 3.6220 0.3934 -7.8249 3.6220 0.4733 -7.7567 3.6220 0.5415 -7.6769 3.6220 0.5963 -7.5873 3.6220 0.6365 -7.4903 3.6220 0.6611 -7.3882 3.6220 0.0000 -7.2835 3.5630 0.0000 -7.2835 3.6220 ] } coordIndex [ 0 1 41 40 -1 80 1 0 -1 81 40 41 -1 1 2 42 41 -1 80 2 1 -1 81 41 42 -1 2 3 43 42 -1 80 3 2 -1 81 42 43 -1 3 4 44 43 -1 80 4 3 -1 81 43 44 -1 4 5 45 44 -1 80 5 4 -1 81 44 45 -1 5 6 46 45 -1 80 6 5 -1 81 45 46 -1 6 7 47 46 -1 80 7 6 -1 81 46 47 -1 7 8 48 47 -1 80 8 7 -1 81 47 48 -1 8 9 49 48 -1 80 9 8 -1 81 48 49 -1 9 10 50 49 -1 80 10 9 -1 81 49 50 -1 10 11 51 50 -1 80 11 10 -1 81 50 51 -1 11 12 52 51 -1 80 12 11 -1 81 51 52 -1 12 13 53 52 -1 80 13 12 -1 81 52 53 -1 13 14 54 53 -1 80 14 13 -1 81 53 54 -1 14 15 55 54 -1 80 15 14 -1 81 54 55 -1 15 16 56 55 -1 80 16 15 -1 81 55 56 -1 16 17 57 56 -1 80 17 16 -1 81 56 57 -1 17 18 58 57 -1 80 18 17 -1 81 57 58 -1 18 19 59 58 -1 80 19 18 -1 81 58 59 -1 19 20 60 59 -1 80 20 19 -1 81 59 60 -1 20 21 61 60 -1 80 21 20 -1 81 60 61 -1 21 22 62 61 -1 80 22 21 -1 81 61 62 -1 22 23 63 62 -1 80 23 22 -1 81 62 63 -1 23 24 64 63 -1 80 24 23 -1 81 63 64 -1 24 25 65 64 -1 80 25 24 -1 81 64 65 -1 25 26 66 65 -1 80 26 25 -1 81 65 66 -1 26 27 67 66 -1 80 27 26 -1 81 66 67 -1 27 28 68 67 -1 80 28 27 -1 81 67 68 -1 28 29 69 68 -1 80 29 28 -1 81 68 69 -1 29 30 70 69 -1 80 30 29 -1 81 69 70 -1 30 31 71 70 -1 80 31 30 -1 81 70 71 -1 31 32 72 71 -1 80 32 31 -1 81 71 72 -1 32 33 73 72 -1 80 33 32 -1 81 72 73 -1 33 34 74 73 -1 80 34 33 -1 81 73 74 -1 34 35 75 74 -1 80 35 34 -1 81 74 75 -1 35 36 76 75 -1 80 36 35 -1 81 75 76 -1 36 37 77 76 -1 80 37 36 -1 81 76 77 -1 37 38 78 77 -1 80 38 37 -1 81 77 78 -1 38 39 79 78 -1 80 39 38 -1 81 78 79 -1 39 0 40 79 -1 80 0 39 -1 81 79 40 -1 ] } }
Transform { translation 1.2598 -5.8661 1.3583 children Shape { appearance Appearance { material Material { diffuseColor 0.9 0.9 0.9 specularColor 0.2 0.2 0.2 shininess 0.3 } } geometry Box { size 0.6299 0.1575 0.0197 } } }
