#VRML V2.0 utf8
# 1.3in IPS ST7789 7-pin module (27.78 x 39.22 mm). Generated by gen_display_wrl.py
Transform { translation 0.0000 0.0000 -0.2362 children Shape { appearance Appearance { material Material { diffuseColor 0.04 0.12 0.3 specularColor 0.2 0.2 0.3 shininess 0.4 } } geometry Box { size 10.9370 15.4409 0.4724 } } }
Transform { translation 0.0000 0.0000 -0.6693 children Shape { appearance Appearance { material Material { diffuseColor 0.72 0.72 0.75 specularColor 0.6 0.6 0.6 shininess 0.5 } } geometry Box { size 10.1575 11.5039 0.3937 } } }
Transform { translation 0.0000 0.0000 -0.9843 children Shape { appearance Appearance { material Material { diffuseColor 0.03 0.03 0.04 specularColor 0.8 0.8 0.9 shininess 0.9 } } geometry Box { size 10.1575 11.5039 0.2362 } } }
Transform { translation 0.0000 0.6220 -1.1142 children Shape { appearance Appearance { material Material { diffuseColor 0.1 0.35 0.4 specularColor 0.9 0.9 1.0 shininess 1.0 } } geometry Box { size 9.2126 9.2126 0.0236 } } }
Transform { translation 0.0000 4.8346 -1.1299 children Shape { appearance Appearance { material Material { diffuseColor 0.08 0.08 0.08 specularColor 0.2 0.2 0.2 shininess 0.3 } } geometry Box { size 8.4252 0.1969 0.0157 } } }
Transform { translation 0.0000 -3.5906 -1.1299 children Shape { appearance Appearance { material Material { diffuseColor 0.08 0.08 0.08 specularColor 0.2 0.2 0.2 shininess 0.3 } } geometry Box { size 8.4252 0.1969 0.0157 } } }
Transform { translation 4.2126 0.6220 -1.1299 children Shape { appearance Appearance { material Material { diffuseColor 0.08 0.08 0.08 specularColor 0.2 0.2 0.2 shininess 0.3 } } geometry Box { size 0.1969 8.4252 0.0157 } } }
Transform { translation -4.2126 0.6220 -1.1299 children Shape { appearance Appearance { material Material { diffuseColor 0.08 0.08 0.08 specularColor 0.2 0.2 0.2 shininess 0.3 } } geometry Box { size 0.1969 8.4252 0.0157 } } }
Transform { translation -4.4843 -6.7362 0.0039 children Shape { appearance Appearance { material Material { diffuseColor 0.85 0.75 0.45 specularColor 0.9 0.85 0.6 shininess 0.8 } } geometry Box { size 1.2598 1.2598 0.0079 } } }
Transform { translation -4.4843 -6.7362 -0.4764 children Shape { appearance Appearance { material Material { diffuseColor 0.85 0.75 0.45 specularColor 0.9 0.85 0.6 shininess 0.8 } } geometry Box { size 1.2598 1.2598 0.0079 } } }
Transform { translation -4.4843 -6.7362 -0.2362 children Shape { appearance Appearance { material Material { diffuseColor 0.08 0.08 0.08 specularColor 0.2 0.2 0.2 shininess 0.3 } } geometry Box { size 0.7874 0.7874 0.4961 } } }
Transform { translation -4.4843 6.7362 0.0039 children Shape { appearance Appearance { material Material { diffuseColor 0.85 0.75 0.45 specularColor 0.9 0.85 0.6 shininess 0.8 } } geometry Box { size 1.2598 1.2598 0.0079 } } }
Transform { translation -4.4843 6.7362 -0.4764 children Shape { appearance Appearance { material Material { diffuseColor 0.85 0.75 0.45 specularColor 0.9 0.85 0.6 shininess 0.8 } } geometry Box { size 1.2598 1.2598 0.0079 } } }
Transform { translation -4.4843 6.7362 -0.2362 children Shape { appearance Appearance { material Material { diffuseColor 0.08 0.08 0.08 specularColor 0.2 0.2 0.2 shininess 0.3 } } geometry Box { size 0.7874 0.7874 0.4961 } } }
Transform { translation 4.4843 -6.7362 0.0039 children Shape { appearance Appearance { material Material { diffuseColor 0.85 0.75 0.45 specularColor 0.9 0.85 0.6 shininess 0.8 } } geometry Box { size 1.2598 1.2598 0.0079 } } }
Transform { translation 4.4843 -6.7362 -0.4764 children Shape { appearance Appearance { material Material { diffuseColor 0.85 0.75 0.45 specularColor 0.9 0.85 0.6 shininess 0.8 } } geometry Box { size 1.2598 1.2598 0.0079 } } }
Transform { translation 4.4843 -6.7362 -0.2362 children Shape { appearance Appearance { material Material { diffuseColor 0.08 0.08 0.08 specularColor 0.2 0.2 0.2 shininess 0.3 } } geometry Box { size 0.7874 0.7874 0.4961 } } }
Transform { translation 4.4843 6.7362 0.0039 children Shape { appearance Appearance { material Material { diffuseColor 0.85 0.75 0.45 specularColor 0.9 0.85 0.6 shininess 0.8 } } geometry Box { size 1.2598 1.2598 0.0079 } } }
Transform { translation 4.4843 6.7362 -0.4764 children Shape { appearance Appearance { material Material { diffuseColor 0.85 0.75 0.45 specularColor 0.9 0.85 0.6 shininess 0.8 } } geometry Box { size 1.2598 1.2598 0.0079 } } }
Transform { translation 4.4843 6.7362 -0.2362 children Shape { appearance Appearance { material Material { diffuseColor 0.08 0.08 0.08 specularColor 0.2 0.2 0.2 shininess 0.3 } } geometry Box { size 0.7874 0.7874 0.4961 } } }
Transform { translation -0.0000 6.7362 0.5000 children Shape { appearance Appearance { material Material { diffuseColor 0.08 0.08 0.08 specularColor 0.2 0.2 0.2 shininess 0.3 } } geometry Box { size 7.0000 1.0000 1.0000 } } }
Transform { translation -3.0000 6.7362 1.0236 children Shape { appearance Appearance { material Material { diffuseColor 0.85 0.72 0.35 specularColor 0.9 0.8 0.5 shininess 0.8 } } geometry Box { size 0.2520 0.2520 2.0472 } } }
Transform { translation -2.0000 6.7362 1.0236 children Shape { appearance Appearance { material Material { diffuseColor 0.85 0.72 0.35 specularColor 0.9 0.8 0.5 shininess 0.8 } } geometry Box { size 0.2520 0.2520 2.0472 } } }
Transform { translation -1.0000 6.7362 1.0236 children Shape { appearance Appearance { material Material { diffuseColor 0.85 0.72 0.35 specularColor 0.9 0.8 0.5 shininess 0.8 } } geometry Box { size 0.2520 0.2520 2.0472 } } }
Transform { translation -0.0000 6.7362 1.0236 children Shape { appearance Appearance { material Material { diffuseColor 0.85 0.72 0.35 specularColor 0.9 0.8 0.5 shininess 0.8 } } geometry Box { size 0.2520 0.2520 2.0472 } } }
Transform { translation 1.0000 6.7362 1.0236 children Shape { appearance Appearance { material Material { diffuseColor 0.85 0.72 0.35 specularColor 0.9 0.8 0.5 shininess 0.8 } } geometry Box { size 0.2520 0.2520 2.0472 } } }
Transform { translation 2.0000 6.7362 1.0236 children Shape { appearance Appearance { material Material { diffuseColor 0.85 0.72 0.35 specularColor 0.9 0.8 0.5 shininess 0.8 } } geometry Box { size 0.2520 0.2520 2.0472 } } }
Transform { translation 3.0000 6.7362 1.0236 children Shape { appearance Appearance { material Material { diffuseColor 0.85 0.72 0.35 specularColor 0.9 0.8 0.5 shininess 0.8 } } geometry Box { size 0.2520 0.2520 2.0472 } } }
