M48
; DRILL file KiCad 10.0.5 date 2026-09-21T22:19:42
; FORMAT={-:-/ absolute / metric / decimal}
; #@! TF.CreationDate,2026-09-21T22:19:42+08:00
; #@! TF.GenerationSoftware,Kicad,Pcbnew,10.0.5
; #@! TF.FileFunction,Plated,1,4,PTH
FMAT,2
METRIC
; #@! TA.AperFunction,Plated,PTH,ViaDrill
T1C0.300
; #@! TA.AperFunction,Plated,PTH,ComponentDrill
T2C0.300
; #@! TA.AperFunction,Plated,PTH,ComponentDrill
T3C0.600
; #@! TA.AperFunction,Plated,PTH,ComponentDrill
T4C0.750
; #@! TA.AperFunction,Plated,PTH,ComponentDrill
T5C1.000
%
G90
G05
T1
X1.8Y-36.3
X3.0Y-6.0
X3.0Y-9.0
X3.0Y-12.0
X3.0Y-15.0
X3.0Y-18.0
X3.0Y-21.0
X3.0Y-24.0
X3.0Y-27.0
X3.0Y-30.0
X3.0Y-33.0
X3.0Y-36.0
X3.0Y-39.0
X3.0Y-42.0
X3.0Y-45.0
X3.0Y-48.0
X3.0Y-51.0
X3.0Y-54.0
X3.0Y-57.0
X3.0Y-60.0
X3.0Y-63.0
X3.0Y-66.0
X3.0Y-69.0
X3.2Y-37.3
X4.1Y-50.8
X5.9Y-34.8
X6.0Y-3.0
X6.0Y-6.0
X6.0Y-15.0
X6.0Y-18.0
X6.0Y-21.0
X6.0Y-27.0
X6.0Y-36.0
X6.0Y-42.0
X6.0Y-45.0
X6.0Y-48.0
X6.0Y-54.0
X6.0Y-57.0
X6.0Y-60.0
X6.0Y-63.0
X6.0Y-66.0
X6.0Y-69.0
X6.0Y-72.0
X7.2Y-13.9
X7.2Y-25.8
X7.2Y-33.8
X7.2Y-41.8
X8.8Y-9.2
X9.0Y-3.0
X9.0Y-6.0
X9.0Y-15.0
X9.0Y-18.0
X9.0Y-21.0
X9.0Y-24.0
X9.0Y-27.0
X9.0Y-30.0
X9.0Y-33.0
X9.0Y-36.0
X9.0Y-42.0
X9.0Y-45.0
X9.0Y-48.0
X9.0Y-54.0
X9.0Y-57.0
X9.0Y-60.0
X9.0Y-63.0
X9.0Y-66.0
X9.0Y-69.0
X9.0Y-72.0
X11.9Y-34.8
X12.0Y-3.0
X12.0Y-6.0
X12.0Y-9.0
X12.0Y-18.0
X12.0Y-21.0
X12.0Y-26.7
X12.0Y-36.0
X12.0Y-54.0
X12.0Y-57.0
X12.0Y-60.0
X12.0Y-66.0
X12.0Y-69.0
X12.0Y-72.0
X12.3Y-52.1
X12.4Y-42.7
X12.8Y-16.4
X12.8Y-27.0
X12.8Y-35.0
X13.0Y-21.2
X13.0Y-29.2
X13.0Y-49.9
X13.7Y-5.3
X14.4Y-41.8
X14.5Y-48.5
X14.8Y-47.7
X15.0Y-3.0
X15.0Y-15.0
X15.0Y-18.0
X15.0Y-21.0
X15.0Y-24.0
X15.0Y-27.0
X15.0Y-30.0
X15.0Y-33.0
X15.0Y-36.0
X15.0Y-39.0
X15.0Y-57.0
X15.0Y-72.0
X15.3Y-40.1
X15.8Y-53.6
X16.2Y-43.6
X16.2Y-51.6
X16.2Y-52.6
X16.9Y-38.8
X16.9Y-42.3
X16.9Y-47.8
X17.6Y-52.9
X18.0Y-3.0
X18.0Y-6.0
X18.0Y-9.0
X18.0Y-12.0
X18.0Y-21.0
X18.0Y-44.5
X18.0Y-72.0
X18.2Y-13.0
X18.5Y-47.2
X19.6Y-14.0
X20.1Y-40.7
X20.1Y-52.8
X20.8Y-56.2
X21.0Y-3.0
X21.0Y-6.0
X21.0Y-12.0
X21.0Y-71.0
X21.4Y-32.7
X21.5Y-62.1
X21.5Y-65.9
X21.8Y-13.8
X22.4Y-73.8
X22.6Y-5.1
X22.6Y-65.9
X23.2Y-12.2
X23.4Y-38.4
X23.4Y-53.8
X24.8Y-13.9
X27.0Y-3.0
X27.7Y-52.0
X27.8Y-50.0
X28.0Y-53.5
X28.8Y-3.6
X29.0Y-68.2
X29.3Y-49.2
X29.4Y-52.0
X30.8Y-3.6
X31.5Y-38.7
X31.6Y-40.4
X31.8Y-50.0
X31.9Y-3.5
X32.7Y-2.4
X32.9Y-24.8
X32.9Y-28.8
X32.9Y-32.8
X32.9Y-35.2
X32.9Y-36.8
X33.0Y-72.0
X33.1Y-57.4
X33.2Y-10.9
X33.4Y-69.4
X33.8Y-2.4
X33.8Y-3.6
X33.9Y-5.9
X34.2Y-52.0
X34.8Y-3.6
X36.0Y-60.0
X36.0Y-63.0
X36.0Y-72.0
X36.7Y-40.4
X36.8Y-30.2
X36.9Y-23.9
X36.9Y-24.8
X36.9Y-28.8
X37.0Y-3.45
X37.1Y-53.1
X37.2Y-33.0
X37.4Y-65.8
X37.7Y-54.4
X38.8Y-17.3
X38.9Y-53.1
X39.0Y-51.2
X39.1Y-8.0
X39.2Y-13.2
X39.3Y-12.3
X39.4Y-15.1
X40.0Y-8.9
X40.0Y-53.1
X40.0Y-72.5
X40.0Y-73.8
X40.5Y-42.2
X40.6Y-4.8
X40.6Y-57.0
X40.7Y-6.2
X41.3Y-11.8
X41.4Y-12.9
X41.4Y-39.2
X41.8Y-43.5
X41.8Y-50.5
X41.9Y-66.1
X42.0Y-72.0
X42.3Y-59.9
X42.6Y-19.7
X42.6Y-34.8
X42.6Y-54.1
X42.8Y-53.0
X42.9Y-3.9
X43.1Y-39.5
X43.4Y-8.2
X43.4Y-9.8
X43.5Y-58.9
X43.6Y-57.1
X43.8Y-58.0
X43.8Y-62.0
X43.9Y-14.3
X44.1Y-66.0
X44.6Y-8.2
X44.6Y-9.8
X44.9Y-53.2
X45.0Y-24.0
X45.0Y-27.0
X45.0Y-30.0
X45.0Y-33.0
X45.0Y-45.0
X45.0Y-72.0
X45.1Y-4.8
X45.1Y-14.6
X45.2Y-61.2
X45.3Y-65.2
X45.4Y-41.8
X45.7Y-7.3
X45.8Y-68.1
X45.9Y-51.0
X46.1Y-52.0
X46.5Y-50.4
X46.7Y-14.8
X47.1Y-51.0
X47.5Y-3.9
X47.5Y-12.4
X47.5Y-39.7
X47.7Y-66.0
X47.8Y-8.4
X47.8Y-9.6
X47.8Y-10.5
X47.8Y-54.9
X47.8Y-58.0
X48.0Y-69.0
X48.0Y-72.0
X48.3Y-6.3
X48.5Y-61.0
X48.6Y-51.0
X49.1Y-33.0
X49.3Y-63.5
X49.3Y-64.4
X49.4Y-53.4
X49.6Y-46.9
X49.6Y-50.6
X49.7Y-34.8
X49.7Y-52.0
X49.9Y-44.3
X50.3Y-48.2
X50.4Y-26.4
X50.4Y-47.0
X50.5Y-9.1
X50.9Y-43.45
X51.0Y-3.0
X51.0Y-6.0
X51.0Y-14.1
X51.0Y-15.0
X51.0Y-18.0
X51.0Y-54.0
X51.0Y-66.0
X51.0Y-69.0
X51.0Y-72.0
X51.4Y-25.7
X51.5Y-20.5
X51.5Y-21.5
X51.6Y-60.9
X51.7Y-35.7
X52.0Y-34.0
X52.175Y-6.9
X52.212Y-12.6
X52.8Y-39.1
X52.8Y-45.0
X53.1Y-28.2
X54.0Y-3.0
X54.0Y-6.0
X54.0Y-54.0
X54.0Y-66.0
X54.0Y-69.0
X54.0Y-72.0
X54.2Y-46.0
X54.2Y-46.9
X54.4Y-38.0
X54.5Y-43.81
X55.65Y-7.3
X57.4Y-61.6
X58.05Y-62.8
X58.7Y-58.9
T2
X30.8Y-64.64
X30.8Y-66.04
X30.8Y-67.44
X32.2Y-64.64
X32.2Y-66.04
X32.2Y-67.44
T4
X10.0Y-62.0
X12.0Y-62.0
T5
X56.0Y-37.38
X56.0Y-39.92
X56.0Y-42.46
X56.0Y-45.0
X56.0Y-47.54
X56.0Y-50.08
X56.0Y-52.62
T3
X52.615Y-19.68G85X53.715Y-19.68
G05
X52.615Y-28.32G85X53.715Y-28.32
G05
X57.045Y-19.68G85X57.645Y-19.68
G05
X57.045Y-28.32G85X57.645Y-28.32
G05
M30
