ISO-10303-21;
HEADER;
FILE_DESCRIPTION (( 'STEP AP203' ),
    '1' );
FILE_NAME ('SW_Push_SKRTLAE010_Side.step',
    '2026-09-22T06:48:59',
    ( '' ),
    ( '' ),
    'SwSTEP 2.0',
    'SolidWorks 2024',
    '' );
FILE_SCHEMA (( 'CONFIG_CONTROL_DESIGN' ));
ENDSEC;

DATA;
#1 = EDGE_CURVE ( 'NONE', #259, #262, #85, .T. ) ;
#2 = PLANE ( 'NONE',  #178 ) ;
#3 = VERTEX_POINT ( 'NONE', #392 ) ;
#4 = APPROVAL_PERSON_ORGANIZATION ( #97, #477, #353 ) ;
#5 = DIRECTION ( 'NONE',  ( 0.000000000000000000, -1.000000000000000000, 0.000000000000000000 ) ) ;
#6 = ORIENTED_EDGE ( 'NONE', *, *, #94, .T. ) ;
#7 = UNCERTAINTY_MEASURE_WITH_UNIT (LENGTH_MEASURE( 1.000000000000000082E-05 ), #388, 'distance_accuracy_value', 'NONE');
#8 = DIRECTION ( 'NONE',  ( -1.000000000000000000, 0.000000000000000000, 0.000000000000000000 ) ) ;
#9 = EDGE_CURVE ( 'NONE', #381, #59, #91, .T. ) ;
#10 = PLANE ( 'NONE',  #346 ) ;
#11 = MECHANICAL_CONTEXT ( 'NONE', #265, 'mechanical' ) ;
#12 = CARTESIAN_POINT ( 'NONE',  ( 0.000000000000000000, 0.000000000000000000, 0.000000000000000000 ) ) ;
#13 = APPROVAL_STATUS ( 'not_yet_approved' ) ;
#14 = CARTESIAN_POINT ( 'NONE',  ( -1.199999999999999956, -1.100000000000000089, 0.000000000000000000 ) ) ;
#15 = MANIFOLD_SOLID_BREP ( 'stem lower gap', #210 ) ;
#16 = CALENDAR_DATE ( 2026, 22, 9 ) ;
#17 = DIRECTION ( 'NONE',  ( 1.000000000000000000, 0.000000000000000000, 0.000000000000000000 ) ) ;
#18 = ORIENTED_EDGE ( 'NONE', *, *, #28, .T. ) ;
#19 = ADVANCED_FACE ( 'NONE', ( #339 ), #10, .T. ) ;
#20 = APPROVAL_DATE_TIME ( #317, #186 ) ;
#21 = DIRECTION ( 'NONE',  ( 1.000000000000000000, 0.000000000000000000, 0.000000000000000000 ) ) ;
#22 = VERTEX_POINT ( 'NONE', #193 ) ;
#23 = PERSON_AND_ORGANIZATION ( #493, #41 ) ;
#24 = CC_DESIGN_PERSON_AND_ORGANIZATION_ASSIGNMENT ( #395, #161, ( #139 ) ) ;
#25 = VECTOR ( 'NONE', #64, 1000.000000000000000 ) ;
#26 = LINE ( 'NONE', #174, #284 ) ;
#27 = LINE ( 'NONE', #368, #372 ) ;
#28 = EDGE_CURVE ( 'NONE', #89, #264, #155, .T. ) ;
#29 = LINE ( 'NONE', #443, #476 ) ;
#30 = EDGE_LOOP ( 'NONE', ( #457, #272, #233, #451, #430, #159, #149, #39 ) ) ;
#31 = PRODUCT_RELATED_PRODUCT_CATEGORY ( 'detail', '', ( #241 ) ) ;
#32 = LINE ( 'NONE', #335, #194 ) ;
#33 = VERTEX_POINT ( 'NONE', #191 ) ;
#34 = EDGE_CURVE ( 'NONE', #76, #381, #48, .T. ) ;
#35 = DIRECTION ( 'NONE',  ( 1.000000000000000000, 0.000000000000000000, -0.000000000000000000 ) ) ;
#36 = ORIENTED_EDGE ( 'NONE', *, *, #133, .F. ) ;
#37 = CARTESIAN_POINT ( 'NONE',  ( 1.000000000000000000, -2.040000000000000036, 2.549999999999999822 ) ) ;
#38 = EDGE_LOOP ( 'NONE', ( #305, #106, #217, #6 ) ) ;
#39 = ORIENTED_EDGE ( 'NONE', *, *, #170, .T. ) ;
#40 = VECTOR ( 'NONE', #86, 1000.000000000000000 ) ;
#41 = ORGANIZATION ( 'UNSPECIFIED', 'UNSPECIFIED', '' ) ;
#42 = CC_DESIGN_APPROVAL ( #168, ( #83 ) ) ;
#43 = FACE_OUTER_BOUND ( 'NONE', #421, .T. ) ;
#44 = ORIENTED_EDGE ( 'NONE', *, *, #45, .T. ) ;
#45 = EDGE_CURVE ( 'NONE', #408, #89, #196, .T. ) ;
#46 = DIRECTION ( 'NONE',  ( 1.000000000000000000, 0.000000000000000000, -0.000000000000000000 ) ) ;
#47 = ORIENTED_EDGE ( 'NONE', *, *, #447, .T. ) ;
#48 = LINE ( 'NONE', #119, #269 ) ;
#49 = VECTOR ( 'NONE', #386, 1000.000000000000000 ) ;
#50 = EDGE_CURVE ( 'NONE', #116, #184, #468, .T. ) ;
#51 =( NAMED_UNIT ( * ) PLANE_ANGLE_UNIT ( ) SI_UNIT ( $, .RADIAN. ) );
#52 = DIRECTION ( 'NONE',  ( 1.000000000000000000, 0.000000000000000000, 0.000000000000000000 ) ) ;
#53 = APPROVAL_ROLE ( '' ) ;
#54 = DIRECTION ( 'NONE',  ( 0.000000000000000000, -1.000000000000000000, 0.000000000000000000 ) ) ;
#55 = FACE_OUTER_BOUND ( 'NONE', #298, .T. ) ;
#56 = AXIS2_PLACEMENT_3D ( 'NONE', #176, #67, #326 ) ;
#57 = CALENDAR_DATE ( 2026, 22, 9 ) ;
#58 = LINE ( 'NONE', #95, #164 ) ;
#59 = VERTEX_POINT ( 'NONE', #252 ) ;
#60 = EDGE_CURVE ( 'NONE', #33, #262, #162, .T. ) ;
#61 = DIRECTION ( 'NONE',  ( -0.000000000000000000, 0.000000000000000000, 1.000000000000000000 ) ) ;
#62 = CC_DESIGN_DATE_AND_TIME_ASSIGNMENT ( #200, #279, ( #287 ) ) ;
#63 = DIRECTION ( 'NONE',  ( 0.000000000000000000, 0.000000000000000000, 1.000000000000000000 ) ) ;
#64 = DIRECTION ( 'NONE',  ( 0.000000000000000000, 0.000000000000000000, -1.000000000000000000 ) ) ;
#65 = VECTOR ( 'NONE', #389, 1000.000000000000000 ) ;
#66 = VECTOR ( 'NONE', #68, 1000.000000000000000 ) ;
#67 = DIRECTION ( 'NONE',  ( 0.000000000000000000, 1.000000000000000000, 0.000000000000000000 ) ) ;
#68 = DIRECTION ( 'NONE',  ( -0.000000000000000000, -0.000000000000000000, -1.000000000000000000 ) ) ;
#69 = ORIENTED_EDGE ( 'NONE', *, *, #94, .F. ) ;
#70 = DIRECTION ( 'NONE',  ( 0.000000000000000000, -1.000000000000000000, 0.000000000000000000 ) ) ;
#71 = EDGE_LOOP ( 'NONE', ( #153, #254, #223, #215 ) ) ;
#72 = CARTESIAN_POINT ( 'NONE',  ( -1.199999999999999956, -1.209999999999999964, 0.9499999999999999556 ) ) ;
#73 = VECTOR ( 'NONE', #8, 1000.000000000000000 ) ;
#74 = VERTEX_POINT ( 'NONE', #171 ) ;
#75 = LINE ( 'NONE', #261, #66 ) ;
#76 = VERTEX_POINT ( 'NONE', #360 ) ;
#77 = LINE ( 'NONE', #195, #316 ) ;
#78 = ORIENTED_EDGE ( 'NONE', *, *, #410, .T. ) ;
#79 = CARTESIAN_POINT ( 'NONE',  ( -2.250000000000000444, 1.350000000000000089, 0.000000000000000000 ) ) ;
#80 = ADVANCED_FACE ( 'NONE', ( #204 ), #321, .F. ) ;
#81 = ORIENTED_EDGE ( 'NONE', *, *, #100, .T. ) ;
#82 = AXIS2_PLACEMENT_3D ( 'NONE', #423, #459, #115 ) ;
#83 = SECURITY_CLASSIFICATION ( '', '', #470 ) ;
#84 = LINE ( 'NONE', #343, #73 ) ;
#85 = LINE ( 'NONE', #425, #65 ) ;
#86 = DIRECTION ( 'NONE',  ( 0.000000000000000000, 1.000000000000000000, 0.000000000000000000 ) ) ;
#87 = EDGE_CURVE ( 'NONE', #394, #111, #480, .T. ) ;
#88 = DIRECTION ( 'NONE',  ( -0.000000000000000000, -0.000000000000000000, -1.000000000000000000 ) ) ;
#89 = VERTEX_POINT ( 'NONE', #169 ) ;
#90 = AXIS2_PLACEMENT_3D ( 'NONE', #12, #478, #129 ) ;
#91 = LINE ( 'NONE', #236, #40 ) ;
#92 = CARTESIAN_POINT ( 'NONE',  ( 1.000000000000000000, -1.209999999999999964, 2.549999999999999822 ) ) ;
#93 = CALENDAR_DATE ( 2026, 22, 9 ) ;
#94 = EDGE_CURVE ( 'NONE', #89, #381, #278, .T. ) ;
#95 = CARTESIAN_POINT ( 'NONE',  ( -2.250000000000000444, 1.350000000000000089, 3.500000000000000000 ) ) ;
#96 = AXIS2_PLACEMENT_3D ( 'NONE', #201, #356, #21 ) ;
#97 = PERSON_AND_ORGANIZATION ( #493, #41 ) ;
#98 = CARTESIAN_POINT ( 'NONE',  ( 1.199999999999999956, -1.100000000000000089, 0.000000000000000000 ) ) ;
#99 = CARTESIAN_POINT ( 'NONE',  ( -2.250000000000000444, 1.350000000000000089, 3.500000000000000000 ) ) ;
#100 = EDGE_CURVE ( 'NONE', #172, #408, #101, .T. ) ;
#101 = LINE ( 'NONE', #99, #291 ) ;
#102 = VECTOR ( 'NONE', #160, 1000.000000000000000 ) ;
#103 = CARTESIAN_POINT ( 'NONE',  ( 2.250000000000000444, 1.350000000000000089, 3.500000000000000000 ) ) ;
#104 = ORIENTED_EDGE ( 'NONE', *, *, #260, .T. ) ;
#105 = CARTESIAN_POINT ( 'NONE',  ( 1.000000000000000000, -2.040000000000000036, 0.9499999999999998446 ) ) ;
#106 = ORIENTED_EDGE ( 'NONE', *, *, #439, .F. ) ;
#107 = FACE_OUTER_BOUND ( 'NONE', #274, .T. ) ;
#108 = ORIENTED_EDGE ( 'NONE', *, *, #114, .T. ) ;
#109 = DIRECTION ( 'NONE',  ( -1.000000000000000000, 0.000000000000000000, 0.000000000000000000 ) ) ;
#110 = VECTOR ( 'NONE', #138, 1000.000000000000000 ) ;
#111 = VERTEX_POINT ( 'NONE', #134 ) ;
#112 = DIRECTION ( 'NONE',  ( 0.000000000000000000, 0.000000000000000000, 1.000000000000000000 ) ) ;
#113 = ORIENTED_EDGE ( 'NONE', *, *, #325, .F. ) ;
#114 = EDGE_CURVE ( 'NONE', #259, #428, #402, .T. ) ;
#115 = DIRECTION ( 'NONE',  ( 0.000000000000000000, 0.000000000000000000, 1.000000000000000000 ) ) ;
#116 = VERTEX_POINT ( 'NONE', #435 ) ;
#117 = CARTESIAN_POINT ( 'NONE',  ( -1.199999999999999956, -1.100000000000000089, 0.9499999999999999556 ) ) ;
#118 = ADVANCED_FACE ( 'NONE', ( #167 ), #132, .F. ) ;
#119 = CARTESIAN_POINT ( 'NONE',  ( -2.250000000000000444, -1.209999999999999964, 0.000000000000000000 ) ) ;
#120 = CARTESIAN_POINT ( 'NONE',  ( 1.199999999999999956, -1.100000000000000089, 0.9499999999999999556 ) ) ;
#121 = ORIENTED_EDGE ( 'NONE', *, *, #358, .T. ) ;
#122 = ORIENTED_EDGE ( 'NONE', *, *, #340, .T. ) ;
#123 = VECTOR ( 'NONE', #286, 1000.000000000000000 ) ;
#124 = DATE_AND_TIME ( #57, #165 ) ;
#125 = LINE ( 'NONE', #92, #323 ) ;
#126 = PERSON_AND_ORGANIZATION ( #493, #41 ) ;
#127 = DIRECTION ( 'NONE',  ( -0.000000000000000000, -0.000000000000000000, -1.000000000000000000 ) ) ;
#128 = DIRECTION ( 'NONE',  ( 1.000000000000000000, 0.000000000000000000, 0.000000000000000000 ) ) ;
#129 = DIRECTION ( 'NONE',  ( 1.000000000000000000, 0.000000000000000000, 0.000000000000000000 ) ) ;
#130 = VECTOR ( 'NONE', #398, 1000.000000000000000 ) ;
#131 = DATE_AND_TIME ( #355, #497 ) ;
#132 = PLANE ( 'NONE',  #90 ) ;
#133 = EDGE_CURVE ( 'NONE', #172, #465, #58, .T. ) ;
#134 = CARTESIAN_POINT ( 'NONE',  ( -1.000000000000000000, -2.040000000000000036, 0.9499999999999998446 ) ) ;
#135 = DIRECTION ( 'NONE',  ( 0.000000000000000000, -0.000000000000000000, -1.000000000000000000 ) ) ;
#136 = EDGE_LOOP ( 'NONE', ( #336, #225, #140, #416 ) ) ;
#137 = VECTOR ( 'NONE', #304, 1000.000000000000000 ) ;
#138 = DIRECTION ( 'NONE',  ( 1.000000000000000000, 0.000000000000000000, 0.000000000000000000 ) ) ;
#139 = PRODUCT_DEFINITION_FORMATION_WITH_SPECIFIED_SOURCE ( 'ANY', '', #241, .NOT_KNOWN. ) ;
#140 = ORIENTED_EDGE ( 'NONE', *, *, #50, .T. ) ;
#141 = ADVANCED_FACE ( 'NONE', ( #283 ), #322, .T. ) ;
#142 = FACE_OUTER_BOUND ( 'NONE', #182, .T. ) ;
#143 = ORIENTED_EDGE ( 'NONE', *, *, #358, .F. ) ;
#144 = FACE_OUTER_BOUND ( 'NONE', #327, .T. ) ;
#145 = ORIENTED_EDGE ( 'NONE', *, *, #439, .T. ) ;
#146 = DESIGN_CONTEXT ( 'detailed design', #255, 'design' ) ;
#147 = FACE_OUTER_BOUND ( 'NONE', #177, .T. ) ;
#148 = AXIS2_PLACEMENT_3D ( 'NONE', #442, #324, #248 ) ;
#149 = ORIENTED_EDGE ( 'NONE', *, *, #380, .T. ) ;
#150 = DIRECTION ( 'NONE',  ( -0.000000000000000000, 0.000000000000000000, -1.000000000000000000 ) ) ;
#151 = CARTESIAN_POINT ( 'NONE',  ( 1.199999999999999956, -1.100000000000000089, 0.9499999999999999556 ) ) ;
#152 = CARTESIAN_POINT ( 'NONE',  ( -1.000000000000000000, -1.209999999999999964, 2.549999999999999822 ) ) ;
#153 = ORIENTED_EDGE ( 'NONE', *, *, #170, .F. ) ;
#154 = CARTESIAN_POINT ( 'NONE',  ( 0.000000000000000000, 0.000000000000000000, 0.9499999999999999556 ) ) ;
#155 = LINE ( 'NONE', #231, #49 ) ;
#156 = AXIS2_PLACEMENT_3D ( 'NONE', #456, #70, #135 ) ;
#157 = AXIS2_PLACEMENT_3D ( 'NONE', #209, #61, #17 ) ;
#158 = CARTESIAN_POINT ( 'NONE',  ( -1.000000000000000000, -1.209999999999999964, 0.9499999999999998446 ) ) ;
#159 = ORIENTED_EDGE ( 'NONE', *, *, #34, .F. ) ;
#160 = DIRECTION ( 'NONE',  ( 1.000000000000000000, 0.000000000000000000, 0.000000000000000000 ) ) ;
#161 = PERSON_AND_ORGANIZATION_ROLE ( 'creator' ) ;
#162 = LINE ( 'NONE', #14, #307 ) ;
#163 = EDGE_CURVE ( 'NONE', #116, #3, #438, .T. ) ;
#164 = VECTOR ( 'NONE', #315, 1000.000000000000000 ) ;
#165 = LOCAL_TIME ( 14, 48, 59.00000000000000000, #401 ) ;
#166 = APPROVAL_DATE_TIME ( #124, #168 ) ;
#167 = FACE_OUTER_BOUND ( 'NONE', #30, .T. ) ;
#168 = APPROVAL ( #13, 'UNSPECIFIED' ) ;
#169 = CARTESIAN_POINT ( 'NONE',  ( 2.250000000000000444, -1.209999999999999964, 3.500000000000000000 ) ) ;
#170 = EDGE_CURVE ( 'NONE', #184, #33, #199, .T. ) ;
#171 = CARTESIAN_POINT ( 'NONE',  ( 1.000000000000000000, -1.209999999999999964, 0.9499999999999998446 ) ) ;
#172 = VERTEX_POINT ( 'NONE', #471 ) ;
#173 = VECTOR ( 'NONE', #5, 1000.000000000000000 ) ;
#174 = CARTESIAN_POINT ( 'NONE',  ( -2.250000000000000444, -1.209999999999999964, 0.9499999999999998446 ) ) ;
#175 = PLANE ( 'NONE',  #391 ) ;
#176 = CARTESIAN_POINT ( 'NONE',  ( -2.250000000000000444, -1.209999999999999964, 3.500000000000000000 ) ) ;
#177 = EDGE_LOOP ( 'NONE', ( #349, #342, #369, #228 ) ) ;
#178 = AXIS2_PLACEMENT_3D ( 'NONE', #154, #188, #461 ) ;
#179 = LINE ( 'NONE', #105, #496 ) ;
#180 = ORIENTED_EDGE ( 'NONE', *, *, #268, .T. ) ;
#181 = CARTESIAN_POINT ( 'NONE',  ( 1.000000000000000000, -1.209999999999999964, 2.549999999999999822 ) ) ;
#182 = EDGE_LOOP ( 'NONE', ( #78, #371, #205, #384 ) ) ;
#183 = DIRECTION ( 'NONE',  ( 0.000000000000000000, 1.000000000000000000, 0.000000000000000000 ) ) ;
#184 = VERTEX_POINT ( 'NONE', #441 ) ;
#185 = AXIS2_PLACEMENT_3D ( 'NONE', #299, #295, #112 ) ;
#186 = APPROVAL ( #277, 'UNSPECIFIED' ) ;
#187 = EDGE_LOOP ( 'NONE', ( #81, #44, #18, #122 ) ) ;
#188 = DIRECTION ( 'NONE',  ( -0.000000000000000000, 0.000000000000000000, 1.000000000000000000 ) ) ;
#189 = ORIENTED_EDGE ( 'NONE', *, *, #238, .T. ) ;
#190 = FACE_OUTER_BOUND ( 'NONE', #294, .T. ) ;
#191 = CARTESIAN_POINT ( 'NONE',  ( -1.199999999999999956, -1.100000000000000089, 0.000000000000000000 ) ) ;
#192 = DIRECTION ( 'NONE',  ( 0.000000000000000000, 0.000000000000000000, 1.000000000000000000 ) ) ;
#193 = CARTESIAN_POINT ( 'NONE',  ( 1.199999999999999956, -1.209999999999999964, 0.9499999999999999556 ) ) ;
#194 = VECTOR ( 'NONE', #212, 1000.000000000000000 ) ;
#195 = CARTESIAN_POINT ( 'NONE',  ( 2.250000000000000444, 1.350000000000000089, 3.500000000000000000 ) ) ;
#196 = LINE ( 'NONE', #352, #102 ) ;
#197 = PERSON_AND_ORGANIZATION_ROLE ( 'design_supplier' ) ;
#198 = EDGE_CURVE ( 'NONE', #329, #482, #125, .T. ) ;
#199 = LINE ( 'NONE', #98, #123 ) ;
#200 = DATE_AND_TIME ( #16, #487 ) ;
#201 = CARTESIAN_POINT ( 'NONE',  ( 0.000000000000000000, 0.000000000000000000, 2.549999999999999822 ) ) ;
#202 = VECTOR ( 'NONE', #377, 1000.000000000000000 ) ;
#203 = PERSON_AND_ORGANIZATION_ROLE ( 'design_owner' ) ;
#204 = FACE_OUTER_BOUND ( 'NONE', #462, .T. ) ;
#205 = ORIENTED_EDGE ( 'NONE', *, *, #100, .F. ) ;
#206 = EDGE_CURVE ( 'NONE', #3, #259, #474, .T. ) ;
#207 = DIRECTION ( 'NONE',  ( 0.000000000000000000, -1.000000000000000000, 0.000000000000000000 ) ) ;
#208 = APPROVAL_STATUS ( 'not_yet_approved' ) ;
#209 = CARTESIAN_POINT ( 'NONE',  ( 0.000000000000000000, 0.000000000000000000, 3.500000000000000000 ) ) ;
#210 = CLOSED_SHELL ( 'NONE', ( #345, #118, #396, #491, #364, #141, #319, #80, #426, #214, #19, #310, #464, #431 ) ) ;
#211 = VECTOR ( 'NONE', #288, 1000.000000000000000 ) ;
#212 = DIRECTION ( 'NONE',  ( 1.000000000000000000, 0.000000000000000000, 0.000000000000000000 ) ) ;
#213 = DIRECTION ( 'NONE',  ( -0.000000000000000000, -0.000000000000000000, -1.000000000000000000 ) ) ;
#214 = ADVANCED_FACE ( 'NONE', ( #55 ), #362, .T. ) ;
#215 = ORIENTED_EDGE ( 'NONE', *, *, #303, .T. ) ;
#216 = LINE ( 'NONE', #370, #218 ) ;
#217 = ORIENTED_EDGE ( 'NONE', *, *, #28, .F. ) ;
#218 = VECTOR ( 'NONE', #289, 1000.000000000000000 ) ;
#219 = DIRECTION ( 'NONE',  ( 0.000000000000000000, 0.000000000000000000, -1.000000000000000000 ) ) ;
#220 = ORIENTED_EDGE ( 'NONE', *, *, #87, .T. ) ;
#221 = EDGE_CURVE ( 'NONE', #270, #329, #318, .T. ) ;
#222 = CARTESIAN_POINT ( 'NONE',  ( 2.250000000000000444, 1.350000000000000089, 3.500000000000000000 ) ) ;
#223 = ORIENTED_EDGE ( 'NONE', *, *, #163, .T. ) ;
#224 = APPLICATION_PROTOCOL_DEFINITION ( 'international standard', 'config_control_design', 1994, #265 ) ;
#225 = ORIENTED_EDGE ( 'NONE', *, *, #417, .T. ) ;
#226 = CARTESIAN_POINT ( 'NONE',  ( -2.250000000000000444, -1.209999999999999964, 0.000000000000000000 ) ) ;
#227 = VECTOR ( 'NONE', #397, 1000.000000000000000 ) ;
#228 = ORIENTED_EDGE ( 'NONE', *, *, #373, .F. ) ;
#229 = LOCAL_TIME ( 14, 48, 59.00000000000000000, #285 ) ;
#230 = DIRECTION ( 'NONE',  ( 0.000000000000000000, -1.000000000000000000, -0.000000000000000000 ) ) ;
#231 = CARTESIAN_POINT ( 'NONE',  ( 2.250000000000000444, -1.209999999999999964, 3.500000000000000000 ) ) ;
#232 = CARTESIAN_POINT ( 'NONE',  ( -1.000000000000000000, -1.209999999999999964, 0.9499999999999998446 ) ) ;
#233 = ORIENTED_EDGE ( 'NONE', *, *, #410, .F. ) ;
#234 = CC_DESIGN_PERSON_AND_ORGANIZATION_ASSIGNMENT ( #126, #404, ( #287 ) ) ;
#235 = PLANE ( 'NONE',  #445 ) ;
#236 = CARTESIAN_POINT ( 'NONE',  ( 2.250000000000000444, -1.209999999999999964, 0.000000000000000000 ) ) ;
#237 = VECTOR ( 'NONE', #347, 1000.000000000000000 ) ;
#238 = EDGE_CURVE ( 'NONE', #74, #22, #26, .T. ) ;
#239 = APPROVAL_ROLE ( '' ) ;
#240 = ORIENTED_EDGE ( 'NONE', *, *, #198, .T. ) ;
#241 = PRODUCT ( 'SW_Push_SKRTLAE010_Side', 'SW_Push_SKRTLAE010_Side', '', ( #11 ) ) ;
#242 = ADVANCED_BREP_SHAPE_REPRESENTATION ( 'SW_Push_SKRTLAE010_Side', ( #15, #469 ), #337 ) ;
#243 = CARTESIAN_POINT ( 'NONE',  ( 0.000000000000000000, 0.000000000000000000, 0.000000000000000000 ) ) ;
#244 = CC_DESIGN_DATE_AND_TIME_ASSIGNMENT ( #432, #314, ( #83 ) ) ;
#245 = CARTESIAN_POINT ( 'NONE',  ( -1.199999999999999956, -1.100000000000000089, 0.9499999999999999556 ) ) ;
#246 = CARTESIAN_POINT ( 'NONE',  ( 1.199999999999999956, -1.100000000000000089, 0.9499999999999999556 ) ) ;
#247 = APPROVAL_DATE_TIME ( #131, #477 ) ;
#248 = DIRECTION ( 'NONE',  ( 0.000000000000000000, -0.000000000000000000, 1.000000000000000000 ) ) ;
#249 = EDGE_CURVE ( 'NONE', #453, #262, #32, .T. ) ;
#250 = COORDINATED_UNIVERSAL_TIME_OFFSET ( 8, 0, .AHEAD. ) ;
#251 = CARTESIAN_POINT ( 'NONE',  ( 1.000000000000000000, -2.040000000000000036, 2.549999999999999822 ) ) ;
#252 = CARTESIAN_POINT ( 'NONE',  ( 2.250000000000000444, 1.350000000000000089, 0.000000000000000000 ) ) ;
#253 = CARTESIAN_POINT ( 'NONE',  ( -1.199999999999999956, -1.209999999999999964, 0.000000000000000000 ) ) ;
#254 = ORIENTED_EDGE ( 'NONE', *, *, #50, .F. ) ;
#255 = APPLICATION_CONTEXT ( 'configuration controlled 3d designs of mechanical parts and assemblies' ) ;
#256 = LINE ( 'NONE', #103, #486 ) ;
#257 = ORIENTED_EDGE ( 'NONE', *, *, #249, .T. ) ;
#258 = PLANE ( 'NONE',  #366 ) ;
#259 = VERTEX_POINT ( 'NONE', #72 ) ;
#260 = EDGE_CURVE ( 'NONE', #329, #74, #75, .T. ) ;
#261 = CARTESIAN_POINT ( 'NONE',  ( 1.000000000000000000, -1.209999999999999964, 2.549999999999999822 ) ) ;
#262 = VERTEX_POINT ( 'NONE', #253 ) ;
#263 = DIRECTION ( 'NONE',  ( 0.000000000000000000, 1.000000000000000000, 0.000000000000000000 ) ) ;
#264 = VERTEX_POINT ( 'NONE', #222 ) ;
#265 = APPLICATION_CONTEXT ( 'configuration controlled 3d designs of mechanical parts and assemblies' ) ;
#266 = PLANE ( 'NONE',  #399 ) ;
#267 = ORIENTED_EDGE ( 'NONE', *, *, #206, .F. ) ;
#268 = EDGE_CURVE ( 'NONE', #408, #453, #297, .T. ) ;
#269 = VECTOR ( 'NONE', #308, 1000.000000000000000 ) ;
#270 = VERTEX_POINT ( 'NONE', #37 ) ;
#271 =( NAMED_UNIT ( * ) SI_UNIT ( $, .STERADIAN. ) SOLID_ANGLE_UNIT ( ) );
#272 = ORIENTED_EDGE ( 'NONE', *, *, #249, .F. ) ;
#273 = CARTESIAN_POINT ( 'NONE',  ( -1.000000000000000000, -2.040000000000000036, 0.9499999999999998446 ) ) ;
#274 = EDGE_LOOP ( 'NONE', ( #467, #108, #400, #276, #104, #189, #113, #332, #69, #376, #180, #257 ) ) ;
#275 = PERSON_AND_ORGANIZATION ( #493, #41 ) ;
#276 = ORIENTED_EDGE ( 'NONE', *, *, #198, .F. ) ;
#277 = APPROVAL_STATUS ( 'not_yet_approved' ) ;
#278 = LINE ( 'NONE', #354, #429 ) ;
#279 = DATE_TIME_ROLE ( 'creation_date' ) ;
#280 = DIRECTION ( 'NONE',  ( 1.000000000000000000, -0.000000000000000000, 0.000000000000000000 ) ) ;
#281 = PERSON_AND_ORGANIZATION ( #493, #41 ) ;
#282 = EDGE_CURVE ( 'NONE', #444, #74, #179, .T. ) ;
#283 = FACE_OUTER_BOUND ( 'NONE', #187, .T. ) ;
#284 = VECTOR ( 'NONE', #409, 1000.000000000000000 ) ;
#285 = COORDINATED_UNIVERSAL_TIME_OFFSET ( 8, 0, .AHEAD. ) ;
#286 = DIRECTION ( 'NONE',  ( -1.000000000000000000, 0.000000000000000000, 0.000000000000000000 ) ) ;
#287 = PRODUCT_DEFINITION ( 'UNKNOWN', '', #139, #146 ) ;
#288 = DIRECTION ( 'NONE',  ( -1.000000000000000000, 0.000000000000000000, 0.000000000000000000 ) ) ;
#289 = DIRECTION ( 'NONE',  ( 0.000000000000000000, 1.000000000000000000, 0.000000000000000000 ) ) ;
#290 = ORIENTED_EDGE ( 'NONE', *, *, #60, .F. ) ;
#291 = VECTOR ( 'NONE', #54, 1000.000000000000000 ) ;
#292 = CC_DESIGN_APPROVAL ( #186, ( #287 ) ) ;
#293 = CARTESIAN_POINT ( 'NONE',  ( -1.000000000000000000, -1.209999999999999964, 2.549999999999999822 ) ) ;
#294 = EDGE_LOOP ( 'NONE', ( #121, #449, #419, #495 ) ) ;
#295 = DIRECTION ( 'NONE',  ( -1.000000000000000000, 0.000000000000000000, 0.000000000000000000 ) ) ;
#296 = ORIENTED_EDGE ( 'NONE', *, *, #417, .F. ) ;
#297 = LINE ( 'NONE', #367, #202 ) ;
#298 = EDGE_LOOP ( 'NONE', ( #313, #378, #489, #240 ) ) ;
#299 = CARTESIAN_POINT ( 'NONE',  ( 1.199999999999999956, -2.200000000000000178, 0.9499999999999999556 ) ) ;
#300 = ORIENTED_EDGE ( 'NONE', *, *, #340, .F. ) ;
#301 = CARTESIAN_POINT ( 'NONE',  ( 1.199999999999999956, -2.200000000000000178, 0.9499999999999999556 ) ) ;
#302 = ORIENTED_EDGE ( 'NONE', *, *, #387, .F. ) ;
#303 = EDGE_CURVE ( 'NONE', #3, #33, #27, .T. ) ;
#304 = DIRECTION ( 'NONE',  ( 1.000000000000000000, -0.000000000000000000, 0.000000000000000000 ) ) ;
#305 = ORIENTED_EDGE ( 'NONE', *, *, #9, .T. ) ;
#306 = FACE_OUTER_BOUND ( 'NONE', #38, .T. ) ;
#307 = VECTOR ( 'NONE', #207, 1000.000000000000000 ) ;
#308 = DIRECTION ( 'NONE',  ( 1.000000000000000000, 0.000000000000000000, 0.000000000000000000 ) ) ;
#309 = PLANE ( 'NONE',  #82 ) ;
#310 = ADVANCED_FACE ( 'NONE', ( #494 ), #375, .T. ) ;
#311 = ORIENTED_EDGE ( 'NONE', *, *, #303, .F. ) ;
#312 = CARTESIAN_POINT ( 'NONE',  ( -2.250000000000000444, -1.209999999999999964, 3.500000000000000000 ) ) ;
#313 = ORIENTED_EDGE ( 'NONE', *, *, #373, .T. ) ;
#314 = DATE_TIME_ROLE ( 'classification_date' ) ;
#315 = DIRECTION ( 'NONE',  ( -0.000000000000000000, -0.000000000000000000, -1.000000000000000000 ) ) ;
#316 = VECTOR ( 'NONE', #88, 1000.000000000000000 ) ;
#317 = DATE_AND_TIME ( #436, #422 ) ;
#318 = LINE ( 'NONE', #251, #374 ) ;
#319 = ADVANCED_FACE ( 'NONE', ( #147 ), #175, .F. ) ;
#320 = SHAPE_DEFINITION_REPRESENTATION ( #351, #242 ) ;
#321 = PLANE ( 'NONE',  #148 ) ;
#322 = PLANE ( 'NONE',  #157 ) ;
#323 = VECTOR ( 'NONE', #365, 1000.000000000000000 ) ;
#324 = DIRECTION ( 'NONE',  ( 0.000000000000000000, 1.000000000000000000, 0.000000000000000000 ) ) ;
#325 = EDGE_CURVE ( 'NONE', #76, #22, #29, .T. ) ;
#326 = DIRECTION ( 'NONE',  ( 0.000000000000000000, -0.000000000000000000, 1.000000000000000000 ) ) ;
#327 = EDGE_LOOP ( 'NONE', ( #47, #36, #300, #145 ) ) ;
#328 = CARTESIAN_POINT ( 'NONE',  ( 2.250000000000000444, -1.209999999999999964, 0.000000000000000000 ) ) ;
#329 = VERTEX_POINT ( 'NONE', #181 ) ;
#330 = VECTOR ( 'NONE', #213, 1000.000000000000000 ) ;
#331 = LINE ( 'NONE', #484, #110 ) ;
#332 = ORIENTED_EDGE ( 'NONE', *, *, #34, .T. ) ;
#333 = CARTESIAN_POINT ( 'NONE',  ( 1.000000000000000000, -2.040000000000000036, 2.549999999999999822 ) ) ;
#334 = ORIENTED_EDGE ( 'NONE', *, *, #206, .T. ) ;
#335 = CARTESIAN_POINT ( 'NONE',  ( -2.250000000000000444, -1.209999999999999964, 0.000000000000000000 ) ) ;
#336 = ORIENTED_EDGE ( 'NONE', *, *, #325, .T. ) ;
#337 =( GEOMETRIC_REPRESENTATION_CONTEXT ( 3 ) GLOBAL_UNCERTAINTY_ASSIGNED_CONTEXT ( ( #7 ) ) GLOBAL_UNIT_ASSIGNED_CONTEXT ( ( #388, #51, #271 ) ) REPRESENTATION_CONTEXT ( 'NONE', 'WORKASPACE' ) );
#338 = DIRECTION ( 'NONE',  ( 0.000000000000000000, 0.000000000000000000, -1.000000000000000000 ) ) ;
#339 = FACE_OUTER_BOUND ( 'NONE', #460, .T. ) ;
#340 = EDGE_CURVE ( 'NONE', #264, #172, #256, .T. ) ;
#341 = CARTESIAN_POINT ( 'NONE',  ( -2.250000000000000444, 1.350000000000000089, 0.000000000000000000 ) ) ;
#342 = ORIENTED_EDGE ( 'NONE', *, *, #403, .T. ) ;
#343 = CARTESIAN_POINT ( 'NONE',  ( 2.250000000000000444, 1.350000000000000089, 0.000000000000000000 ) ) ;
#344 = ORIENTED_EDGE ( 'NONE', *, *, #403, .F. ) ;
#345 = ADVANCED_FACE ( 'NONE', ( #107 ), #407, .F. ) ;
#346 = AXIS2_PLACEMENT_3D ( 'NONE', #117, #52, #424 ) ;
#347 = DIRECTION ( 'NONE',  ( -0.000000000000000000, -0.000000000000000000, -1.000000000000000000 ) ) ;
#348 = CC_DESIGN_APPROVAL ( #477, ( #139 ) ) ;
#349 = ORIENTED_EDGE ( 'NONE', *, *, #454, .T. ) ;
#350 = LINE ( 'NONE', #79, #173 ) ;
#351 = PRODUCT_DEFINITION_SHAPE ( 'NONE', 'NONE',  #287 ) ;
#352 = CARTESIAN_POINT ( 'NONE',  ( -2.250000000000000444, -1.209999999999999964, 3.500000000000000000 ) ) ;
#353 = APPROVAL_ROLE ( '' ) ;
#354 = CARTESIAN_POINT ( 'NONE',  ( 2.250000000000000444, -1.209999999999999964, 3.500000000000000000 ) ) ;
#355 = CALENDAR_DATE ( 2026, 22, 9 ) ;
#356 = DIRECTION ( 'NONE',  ( -0.000000000000000000, 0.000000000000000000, 1.000000000000000000 ) ) ;
#357 = APPROVAL_PERSON_ORGANIZATION ( #473, #186, #239 ) ;
#358 = EDGE_CURVE ( 'NONE', #270, #444, #450, .T. ) ;
#359 = APPLICATION_PROTOCOL_DEFINITION ( 'international standard', 'config_control_design', 1994, #255 ) ;
#360 = CARTESIAN_POINT ( 'NONE',  ( 1.199999999999999956, -1.209999999999999964, 0.000000000000000000 ) ) ;
#361 = COORDINATED_UNIVERSAL_TIME_OFFSET ( 8, 0, .AHEAD. ) ;
#362 = PLANE ( 'NONE',  #96 ) ;
#363 = ORIENTED_EDGE ( 'NONE', *, *, #238, .F. ) ;
#364 = ADVANCED_FACE ( 'NONE', ( #144 ), #488, .F. ) ;
#365 = DIRECTION ( 'NONE',  ( -1.000000000000000000, 0.000000000000000000, 0.000000000000000000 ) ) ;
#366 = AXIS2_PLACEMENT_3D ( 'NONE', #412, #46, #150 ) ;
#367 = CARTESIAN_POINT ( 'NONE',  ( -2.250000000000000444, -1.209999999999999964, 3.500000000000000000 ) ) ;
#368 = CARTESIAN_POINT ( 'NONE',  ( -1.199999999999999956, -1.100000000000000089, 0.9499999999999999556 ) ) ;
#369 = ORIENTED_EDGE ( 'NONE', *, *, #87, .F. ) ;
#370 = CARTESIAN_POINT ( 'NONE',  ( 1.199999999999999956, -2.200000000000000178, 0.000000000000000000 ) ) ;
#371 = ORIENTED_EDGE ( 'NONE', *, *, #268, .F. ) ;
#372 = VECTOR ( 'NONE', #219, 1000.000000000000000 ) ;
#373 = EDGE_CURVE ( 'NONE', #482, #394, #415, .T. ) ;
#374 = VECTOR ( 'NONE', #405, 1000.000000000000000 ) ;
#375 = PLANE ( 'NONE',  #185 ) ;
#376 = ORIENTED_EDGE ( 'NONE', *, *, #45, .F. ) ;
#377 = DIRECTION ( 'NONE',  ( -0.000000000000000000, -0.000000000000000000, -1.000000000000000000 ) ) ;
#378 = ORIENTED_EDGE ( 'NONE', *, *, #387, .T. ) ;
#379 = CARTESIAN_POINT ( 'NONE',  ( -1.000000000000000000, -1.209999999999999964, 2.549999999999999822 ) ) ;
#380 = EDGE_CURVE ( 'NONE', #76, #184, #216, .T. ) ;
#381 = VERTEX_POINT ( 'NONE', #328 ) ;
#382 = VECTOR ( 'NONE', #418, 1000.000000000000000 ) ;
#383 = LINE ( 'NONE', #301, #455 ) ;
#384 = ORIENTED_EDGE ( 'NONE', *, *, #133, .T. ) ;
#385 = CARTESIAN_POINT ( 'NONE',  ( 1.000000000000000000, -2.040000000000000036, 0.9499999999999998446 ) ) ;
#386 = DIRECTION ( 'NONE',  ( 0.000000000000000000, 1.000000000000000000, 0.000000000000000000 ) ) ;
#387 = EDGE_CURVE ( 'NONE', #394, #270, #331, .T. ) ;
#388 =( LENGTH_UNIT ( ) NAMED_UNIT ( * ) SI_UNIT ( .MILLI., .METRE. ) );
#389 = DIRECTION ( 'NONE',  ( 0.000000000000000000, 0.000000000000000000, -1.000000000000000000 ) ) ;
#390 = CC_DESIGN_PERSON_AND_ORGANIZATION_ASSIGNMENT ( #23, #393, ( #83 ) ) ;
#391 = AXIS2_PLACEMENT_3D ( 'NONE', #490, #35, #452 ) ;
#392 = CARTESIAN_POINT ( 'NONE',  ( -1.199999999999999956, -1.100000000000000089, 0.9499999999999999556 ) ) ;
#393 = PERSON_AND_ORGANIZATION_ROLE ( 'classification_officer' ) ;
#394 = VERTEX_POINT ( 'NONE', #448 ) ;
#395 = PERSON_AND_ORGANIZATION ( #493, #41 ) ;
#396 = ADVANCED_FACE ( 'NONE', ( #142 ), #258, .F. ) ;
#397 = DIRECTION ( 'NONE',  ( 0.000000000000000000, -1.000000000000000000, 0.000000000000000000 ) ) ;
#398 = DIRECTION ( 'NONE',  ( -0.000000000000000000, -0.000000000000000000, -1.000000000000000000 ) ) ;
#399 = AXIS2_PLACEMENT_3D ( 'NONE', #120, #230, #338 ) ;
#400 = ORIENTED_EDGE ( 'NONE', *, *, #454, .F. ) ;
#401 = COORDINATED_UNIVERSAL_TIME_OFFSET ( 8, 0, .AHEAD. ) ;
#402 = LINE ( 'NONE', #475, #414 ) ;
#403 = EDGE_CURVE ( 'NONE', #428, #111, #427, .T. ) ;
#404 = PERSON_AND_ORGANIZATION_ROLE ( 'creator' ) ;
#405 = DIRECTION ( 'NONE',  ( 0.000000000000000000, 1.000000000000000000, 0.000000000000000000 ) ) ;
#406 = DIRECTION ( 'NONE',  ( 0.000000000000000000, -0.000000000000000000, 1.000000000000000000 ) ) ;
#407 = PLANE ( 'NONE',  #56 ) ;
#408 = VERTEX_POINT ( 'NONE', #312 ) ;
#409 = DIRECTION ( 'NONE',  ( 1.000000000000000000, -0.000000000000000000, 0.000000000000000000 ) ) ;
#410 = EDGE_CURVE ( 'NONE', #465, #453, #350, .T. ) ;
#411 = ORIENTED_EDGE ( 'NONE', *, *, #483, .T. ) ;
#412 = CARTESIAN_POINT ( 'NONE',  ( -2.250000000000000444, 1.350000000000000089, 3.500000000000000000 ) ) ;
#413 = ORIENTED_EDGE ( 'NONE', *, *, #282, .F. ) ;
#414 = VECTOR ( 'NONE', #280, 1000.000000000000000 ) ;
#415 = LINE ( 'NONE', #293, #437 ) ;
#416 = ORIENTED_EDGE ( 'NONE', *, *, #380, .F. ) ;
#417 = EDGE_CURVE ( 'NONE', #22, #116, #383, .T. ) ;
#418 = DIRECTION ( 'NONE',  ( 0.000000000000000000, -1.000000000000000000, 0.000000000000000000 ) ) ;
#419 = ORIENTED_EDGE ( 'NONE', *, *, #260, .F. ) ;
#420 = LINE ( 'NONE', #152, #237 ) ;
#421 = EDGE_LOOP ( 'NONE', ( #267, #501, #296, #363, #413, #492, #344, #485 ) ) ;
#422 = LOCAL_TIME ( 14, 48, 59.00000000000000000, #361 ) ;
#423 = CARTESIAN_POINT ( 'NONE',  ( 1.000000000000000000, -2.040000000000000036, 2.549999999999999822 ) ) ;
#424 = DIRECTION ( 'NONE',  ( 0.000000000000000000, 0.000000000000000000, -1.000000000000000000 ) ) ;
#425 = CARTESIAN_POINT ( 'NONE',  ( -1.199999999999999956, -1.209999999999999964, 3.500000000000000000 ) ) ;
#426 = ADVANCED_FACE ( 'NONE', ( #190 ), #309, .F. ) ;
#427 = LINE ( 'NONE', #158, #382 ) ;
#428 = VERTEX_POINT ( 'NONE', #232 ) ;
#429 = VECTOR ( 'NONE', #127, 1000.000000000000000 ) ;
#430 = ORIENTED_EDGE ( 'NONE', *, *, #9, .F. ) ;
#431 = ADVANCED_FACE ( 'NONE', ( #466 ), #266, .T. ) ;
#432 = DATE_AND_TIME ( #93, #229 ) ;
#433 = CARTESIAN_POINT ( 'NONE',  ( -1.000000000000000000, -2.040000000000000036, 2.549999999999999822 ) ) ;
#434 = COORDINATED_UNIVERSAL_TIME_OFFSET ( 8, 0, .AHEAD. ) ;
#435 = CARTESIAN_POINT ( 'NONE',  ( 1.199999999999999956, -1.100000000000000089, 0.9499999999999999556 ) ) ;
#436 = CALENDAR_DATE ( 2026, 22, 9 ) ;
#437 = VECTOR ( 'NONE', #481, 1000.000000000000000 ) ;
#438 = LINE ( 'NONE', #246, #211 ) ;
#439 = EDGE_CURVE ( 'NONE', #264, #59, #77, .T. ) ;
#440 = PERSON_AND_ORGANIZATION ( #493, #41 ) ;
#441 = CARTESIAN_POINT ( 'NONE',  ( 1.199999999999999956, -1.100000000000000089, 0.000000000000000000 ) ) ;
#442 = CARTESIAN_POINT ( 'NONE',  ( -1.000000000000000000, -2.040000000000000036, 2.549999999999999822 ) ) ;
#443 = CARTESIAN_POINT ( 'NONE',  ( 1.199999999999999734, -1.209999999999999964, 3.500000000000000000 ) ) ;
#444 = VERTEX_POINT ( 'NONE', #385 ) ;
#445 = AXIS2_PLACEMENT_3D ( 'NONE', #463, #498, #192 ) ;
#446 = APPROVAL_PERSON_ORGANIZATION ( #275, #168, #53 ) ;
#447 = EDGE_CURVE ( 'NONE', #59, #465, #84, .T. ) ;
#448 = CARTESIAN_POINT ( 'NONE',  ( -1.000000000000000000, -2.040000000000000036, 2.549999999999999822 ) ) ;
#449 = ORIENTED_EDGE ( 'NONE', *, *, #282, .T. ) ;
#450 = LINE ( 'NONE', #333, #330 ) ;
#451 = ORIENTED_EDGE ( 'NONE', *, *, #447, .F. ) ;
#452 = DIRECTION ( 'NONE',  ( -0.000000000000000000, 0.000000000000000000, -1.000000000000000000 ) ) ;
#453 = VERTEX_POINT ( 'NONE', #226 ) ;
#454 = EDGE_CURVE ( 'NONE', #482, #428, #420, .T. ) ;
#455 = VECTOR ( 'NONE', #263, 1000.000000000000000 ) ;
#456 = CARTESIAN_POINT ( 'NONE',  ( 2.250000000000000444, 1.350000000000000089, 3.500000000000000000 ) ) ;
#457 = ORIENTED_EDGE ( 'NONE', *, *, #60, .T. ) ;
#458 = CC_DESIGN_PERSON_AND_ORGANIZATION_ASSIGNMENT ( #440, #197, ( #139 ) ) ;
#459 = DIRECTION ( 'NONE',  ( -1.000000000000000000, 0.000000000000000000, 0.000000000000000000 ) ) ;
#460 = EDGE_LOOP ( 'NONE', ( #499, #290, #311, #334 ) ) ;
#461 = DIRECTION ( 'NONE',  ( 1.000000000000000000, 0.000000000000000000, 0.000000000000000000 ) ) ;
#462 = EDGE_LOOP ( 'NONE', ( #220, #411, #143, #302 ) ) ;
#463 = CARTESIAN_POINT ( 'NONE',  ( 2.250000000000000444, -1.209999999999999964, 3.500000000000000000 ) ) ;
#464 = ADVANCED_FACE ( 'NONE', ( #43 ), #2, .F. ) ;
#465 = VERTEX_POINT ( 'NONE', #341 ) ;
#466 = FACE_OUTER_BOUND ( 'NONE', #71, .T. ) ;
#467 = ORIENTED_EDGE ( 'NONE', *, *, #1, .F. ) ;
#468 = LINE ( 'NONE', #151, #25 ) ;
#469 = AXIS2_PLACEMENT_3D ( 'NONE', #243, #63, #128 ) ;
#470 = SECURITY_CLASSIFICATION_LEVEL ( 'unclassified' ) ;
#471 = CARTESIAN_POINT ( 'NONE',  ( -2.250000000000000444, 1.350000000000000089, 3.500000000000000000 ) ) ;
#472 = CC_DESIGN_PERSON_AND_ORGANIZATION_ASSIGNMENT ( #281, #203, ( #241 ) ) ;
#473 = PERSON_AND_ORGANIZATION ( #493, #41 ) ;
#474 = LINE ( 'NONE', #245, #227 ) ;
#475 = CARTESIAN_POINT ( 'NONE',  ( -2.250000000000000444, -1.209999999999999964, 0.9499999999999998446 ) ) ;
#476 = VECTOR ( 'NONE', #406, 1000.000000000000000 ) ;
#477 = APPROVAL ( #208, 'UNSPECIFIED' ) ;
#478 = DIRECTION ( 'NONE',  ( -0.000000000000000000, 0.000000000000000000, 1.000000000000000000 ) ) ;
#479 = CC_DESIGN_SECURITY_CLASSIFICATION ( #83, ( #139 ) ) ;
#480 = LINE ( 'NONE', #433, #130 ) ;
#481 = DIRECTION ( 'NONE',  ( 0.000000000000000000, -1.000000000000000000, 0.000000000000000000 ) ) ;
#482 = VERTEX_POINT ( 'NONE', #379 ) ;
#483 = EDGE_CURVE ( 'NONE', #111, #444, #500, .T. ) ;
#484 = CARTESIAN_POINT ( 'NONE',  ( -1.000000000000000000, -2.040000000000000036, 2.549999999999999822 ) ) ;
#485 = ORIENTED_EDGE ( 'NONE', *, *, #114, .F. ) ;
#486 = VECTOR ( 'NONE', #109, 1000.000000000000000 ) ;
#487 = LOCAL_TIME ( 14, 48, 59.00000000000000000, #434 ) ;
#488 = PLANE ( 'NONE',  #156 ) ;
#489 = ORIENTED_EDGE ( 'NONE', *, *, #221, .T. ) ;
#490 = CARTESIAN_POINT ( 'NONE',  ( -1.000000000000000000, -1.209999999999999964, 2.549999999999999822 ) ) ;
#491 = ADVANCED_FACE ( 'NONE', ( #306 ), #235, .F. ) ;
#492 = ORIENTED_EDGE ( 'NONE', *, *, #483, .F. ) ;
#493 = PERSON ( 'UNSPECIFIED', 'UNSPECIFIED', 'UNSPECIFIED', ('UNSPECIFIED'), ('UNSPECIFIED'), ('UNSPECIFIED') ) ;
#494 = FACE_OUTER_BOUND ( 'NONE', #136, .T. ) ;
#495 = ORIENTED_EDGE ( 'NONE', *, *, #221, .F. ) ;
#496 = VECTOR ( 'NONE', #183, 1000.000000000000000 ) ;
#497 = LOCAL_TIME ( 14, 48, 59.00000000000000000, #250 ) ;
#498 = DIRECTION ( 'NONE',  ( -1.000000000000000000, 0.000000000000000000, 0.000000000000000000 ) ) ;
#499 = ORIENTED_EDGE ( 'NONE', *, *, #1, .T. ) ;
#500 = LINE ( 'NONE', #273, #137 ) ;
#501 = ORIENTED_EDGE ( 'NONE', *, *, #163, .F. ) ;
ENDSEC;
END-ISO-10303-21;
